{"glyphs":{"0":{"ha":799,"x_min":47,"x_max":753,"o":"m 395 -17 q 47 471 47 -17 q 141 856 47 724 q 414 989 235 989 q 753 493 753 989 q 660 115 753 246 q 395 -17 568 -17 m 404 825 q 265 476 265 825 q 401 147 265 147 q 534 486 534 147 q 404 825 534 825 z "},"1":{"ha":799,"x_min":110,"x_max":730,"o":"m 730 0 l 115 0 l 115 170 l 317 170 l 317 775 l 110 730 l 110 904 l 530 989 l 530 170 l 730 170 l 730 0 z "},"2":{"ha":799,"x_min":74,"x_max":724,"o":"m 319 182 l 319 178 l 714 178 l 714 0 l 74 0 l 74 167 l 353 433 q 471 569 437 514 q 505 684 505 623 q 361 818 505 818 q 121 718 235 818 l 121 907 q 407 989 248 989 q 640 914 556 989 q 724 711 724 839 q 519 359 724 541 l 319 182 z "},"3":{"ha":799,"x_min":100,"x_max":720,"o":"m 100 32 l 100 218 q 328 147 197 147 q 455 182 410 147 q 501 281 501 218 q 445 381 501 346 q 289 416 388 416 l 201 416 l 201 581 l 282 581 q 472 707 472 581 q 326 825 472 825 q 136 762 229 825 l 136 937 q 375 989 239 989 q 607 922 524 989 q 690 747 690 854 q 497 509 690 557 l 497 505 q 660 430 600 492 q 720 278 720 368 q 620 62 720 142 q 345 -17 520 -17 q 100 32 194 -17 z "},"4":{"ha":799,"x_min":26,"x_max":762,"o":"m 762 207 l 646 207 l 646 0 l 450 0 l 450 207 l 26 207 l 26 343 l 435 972 l 646 972 l 646 359 l 762 359 l 762 207 m 453 758 l 449 758 q 412 682 439 734 l 204 359 l 450 359 l 450 665 q 453 758 450 706 z "},"5":{"ha":799,"x_min":111,"x_max":722,"o":"m 111 25 l 111 208 q 323 147 211 147 q 456 188 408 147 q 504 297 504 228 q 300 441 504 441 q 139 429 233 441 l 139 972 l 677 972 l 677 798 l 322 798 l 322 603 q 403 607 365 607 q 637 528 553 607 q 722 317 722 450 q 621 76 722 170 q 347 -17 520 -17 q 111 25 207 -17 z "},"6":{"ha":799,"x_min":68,"x_max":753,"o":"m 684 962 l 684 783 q 522 825 610 825 q 348 743 414 825 q 279 522 282 661 l 283 522 q 488 625 353 625 q 681 543 610 625 q 753 323 753 460 q 658 80 753 177 q 416 -17 563 -17 q 160 102 252 -17 q 68 435 68 220 q 186 838 68 687 q 509 989 305 989 q 684 962 621 989 m 415 467 q 321 425 356 467 q 286 319 286 384 q 322 198 286 248 q 416 147 357 147 q 509 192 474 147 q 543 310 543 237 q 415 467 543 467 z "},"7":{"ha":799,"x_min":65,"x_max":742,"o":"m 742 873 l 399 0 l 172 0 l 518 798 l 65 798 l 65 972 l 742 972 l 742 873 z "},"8":{"ha":799,"x_min":56,"x_max":746,"o":"m 252 505 l 252 509 q 85 730 85 577 q 174 916 85 843 q 406 989 264 989 q 636 921 550 989 q 722 745 722 852 q 538 510 722 585 l 538 507 q 691 411 637 478 q 746 261 746 345 q 651 58 746 132 q 385 -17 555 -17 q 146 56 237 -17 q 56 249 56 129 q 252 505 56 423 m 521 726 q 489 805 521 776 q 406 835 458 835 q 321 804 355 835 q 288 725 288 773 q 404 587 288 634 q 521 726 521 635 m 395 424 q 258 260 258 370 q 300 172 258 207 q 401 138 342 138 q 505 172 466 138 q 545 261 545 205 q 395 424 545 372 z "},"9":{"ha":799,"x_min":53,"x_max":737,"o":"m 109 21 l 109 197 q 293 147 185 147 q 467 223 406 147 q 529 440 528 300 l 525 441 q 329 346 460 346 q 131 429 210 346 q 53 646 53 513 q 149 895 53 801 q 396 989 244 989 q 645 871 552 989 q 737 533 737 753 q 626 128 737 273 q 314 -17 514 -17 q 109 21 195 -17 m 390 825 q 298 780 334 825 q 262 664 262 735 q 298 548 262 590 q 395 505 334 505 q 486 546 450 505 q 521 647 521 586 q 484 774 521 724 q 390 825 447 825 z "},"\r":{"ha":0,"x_min":0,"x_max":0,"o":""}," ":{"ha":383,"x_min":0,"x_max":0,"o":""},"!":{"ha":454,"x_min":103,"x_max":351,"o":"m 339 972 l 313 302 l 139 302 l 114 972 l 339 972 m 228 -16 q 138 17 174 -16 q 103 97 103 50 q 139 177 103 146 q 228 208 174 208 q 317 177 282 208 q 351 97 351 145 q 317 16 351 48 q 228 -16 283 -16 z "},"\"":{"ha":685,"x_min":119,"x_max":566,"o":"m 566 985 l 545 684 l 408 684 l 387 985 l 566 985 m 297 985 l 277 685 l 139 685 l 119 985 l 297 985 z "},"#":{"ha":823,"x_min":25,"x_max":798,"o":"m 798 725 l 771 603 l 646 603 l 608 435 l 749 435 l 718 313 l 583 313 l 530 78 l 395 78 l 444 313 l 289 313 l 239 78 l 103 78 l 151 313 l 25 313 l 50 435 l 178 435 l 214 603 l 77 603 l 100 725 l 239 725 l 289 966 l 428 966 l 378 725 l 533 725 l 585 966 l 722 966 l 672 725 l 798 725 m 509 603 l 351 603 l 314 435 l 471 435 l 509 603 z "},"$":{"ha":799,"x_min":83,"x_max":734,"o":"m 457 5 l 457 -142 l 358 -142 l 358 1 q 102 64 220 2 l 102 252 q 219 193 141 220 q 358 161 297 165 l 358 408 q 141 536 199 467 q 83 704 83 605 q 159 885 83 810 q 358 972 234 960 l 358 1099 l 457 1099 l 457 975 q 671 929 600 968 l 671 746 q 457 817 576 804 l 457 559 q 670 437 606 506 q 734 271 734 368 q 663 89 734 158 q 457 5 591 20 m 358 599 l 358 814 q 264 715 264 797 q 358 599 264 646 m 457 370 l 457 164 q 554 261 554 179 q 457 370 554 328 z "},"%":{"ha":1204,"x_min":61,"x_max":1143,"o":"m 292 479 q 124 545 188 479 q 61 722 61 611 q 129 915 61 844 q 309 986 196 986 q 477 922 416 986 q 538 741 538 857 q 471 550 538 621 q 292 479 404 479 m 304 867 q 205 729 205 867 q 300 599 205 599 q 396 734 396 599 q 304 867 396 867 m 1002 972 l 368 0 l 203 0 l 835 972 l 1002 972 m 897 -14 q 730 52 793 -14 q 667 229 667 118 q 734 422 667 351 q 914 493 802 493 q 1083 429 1023 493 q 1143 249 1143 366 q 1076 58 1143 129 q 897 -14 1009 -14 m 908 374 q 810 236 810 374 q 905 106 810 106 q 1002 241 1002 106 q 976 339 1002 304 q 908 374 950 374 z "},"&":{"ha":1180,"x_min":51,"x_max":1158,"o":"m 1003 -16 q 935 -6 967 -16 q 874 20 903 3 q 819 58 845 36 q 770 105 793 80 q 710 63 745 85 q 630 24 675 41 q 532 -4 586 7 q 418 -16 479 -16 q 271 3 338 -16 q 155 60 203 22 q 78 153 106 98 q 51 282 51 209 q 72 385 51 340 q 125 464 92 430 q 201 522 159 498 q 286 563 243 547 q 244 601 265 579 q 205 647 222 622 q 178 703 189 673 q 168 766 168 732 q 189 861 168 819 q 250 930 211 902 q 343 974 289 959 q 463 989 397 989 q 577 973 525 989 q 666 930 629 958 q 724 863 703 902 q 744 777 744 824 q 699 647 744 702 q 572 557 654 591 q 634 523 604 542 q 692 479 664 504 q 748 424 721 455 q 802 353 775 393 q 881 502 857 423 q 905 667 905 581 q 902 716 905 692 q 892 760 899 740 l 1075 760 q 1086 718 1082 739 q 1089 670 1089 698 q 1075 542 1089 604 q 1036 422 1061 479 q 976 315 1011 366 q 897 220 940 264 q 966 166 930 185 q 1032 148 1001 148 q 1099 155 1065 148 q 1158 175 1133 162 l 1158 14 q 1084 -8 1120 -1 q 1003 -16 1048 -16 m 429 146 q 504 154 469 146 q 570 175 539 162 q 628 205 602 188 q 677 240 655 222 q 609 332 643 294 q 542 396 575 370 q 476 441 509 423 q 410 475 443 460 q 356 445 382 461 q 311 406 331 428 q 280 356 292 384 q 268 291 268 328 q 279 232 268 258 q 312 186 291 205 q 363 157 334 168 q 429 146 393 146 m 554 762 q 547 798 554 782 q 526 824 539 813 q 497 840 513 834 q 463 846 481 846 q 421 839 440 846 q 389 821 403 832 q 368 793 375 809 q 360 759 360 777 q 384 689 360 721 q 443 637 408 657 q 485 656 465 646 q 520 682 505 667 q 545 717 536 697 q 554 762 554 736 z "},"'":{"ha":407,"x_min":115,"x_max":292,"o":"m 292 985 l 271 685 l 135 685 l 115 985 l 292 985 z "},"(":{"ha":513,"x_min":107,"x_max":501,"o":"m 501 -221 l 326 -221 q 107 372 107 20 q 326 972 107 712 l 500 972 q 294 372 294 700 q 501 -221 294 45 z "},")":{"ha":513,"x_min":12,"x_max":407,"o":"m 186 -221 l 12 -221 q 220 372 220 43 q 12 972 220 699 l 187 972 q 407 372 407 711 q 186 -221 407 23 z "},"*":{"ha":632,"x_min":47,"x_max":586,"o":"m 586 714 l 400 689 l 533 546 l 410 461 l 317 633 l 224 461 l 100 546 l 233 689 l 47 714 l 96 851 l 267 778 l 237 972 l 396 972 l 367 778 l 536 851 l 586 714 z "},"+":{"ha":982,"x_min":161,"x_max":822,"o":"m 822 329 l 561 329 l 561 68 l 424 68 l 424 329 l 161 329 l 161 467 l 424 467 l 424 729 l 561 729 l 561 467 l 822 467 l 822 329 z "},",":{"ha":376,"x_min":26,"x_max":293,"o":"m 293 171 l 193 -172 l 26 -172 l 96 171 l 293 171 z "},"-":{"ha":562,"x_min":97,"x_max":468,"o":"m 468 296 l 97 296 l 97 446 l 468 446 l 468 296 z "},".":{"ha":376,"x_min":62,"x_max":314,"o":"m 186 -17 q 98 16 133 -17 q 62 96 62 48 q 99 176 62 144 q 189 207 135 207 q 279 175 244 207 q 314 96 314 144 q 278 15 314 46 q 186 -17 243 -17 z "},"/":{"ha":616,"x_min":-33,"x_max":632,"o":"m 632 972 l 158 -161 l -33 -161 l 439 972 l 632 972 z "},":":{"ha":376,"x_min":62,"x_max":314,"o":"m 186 479 q 98 512 133 479 q 62 591 62 544 q 99 671 62 640 q 189 703 135 703 q 279 671 244 703 q 314 591 314 640 q 278 511 314 542 q 186 479 243 479 m 186 -17 q 98 16 133 -17 q 62 96 62 48 q 99 176 62 144 q 189 207 135 207 q 279 175 244 207 q 314 96 314 144 q 278 15 314 46 q 186 -17 243 -17 z "},";":{"ha":376,"x_min":26,"x_max":317,"o":"m 191 479 q 102 512 137 479 q 66 591 66 545 q 102 672 66 641 q 192 703 138 703 q 282 671 247 703 q 317 591 317 640 q 282 511 317 542 q 191 479 248 479 m 293 171 l 193 -172 l 26 -172 l 96 171 l 293 171 z "},"<":{"ha":982,"x_min":175,"x_max":808,"o":"m 808 43 l 175 332 l 175 441 l 808 745 l 808 583 l 357 390 l 357 386 l 808 204 l 808 43 z "},"=":{"ha":982,"x_min":161,"x_max":822,"o":"m 822 475 l 161 475 l 161 614 l 822 614 l 822 475 m 822 180 l 161 180 l 161 318 l 822 318 l 822 180 z "},">":{"ha":982,"x_min":175,"x_max":808,"o":"m 808 340 l 175 52 l 175 212 l 628 393 l 628 396 l 175 590 l 175 751 l 808 450 l 808 340 z "},"?":{"ha":608,"x_min":42,"x_max":581,"o":"m 178 281 q 168 321 172 299 q 164 363 164 343 q 170 420 164 394 q 189 468 176 446 q 219 512 201 491 q 262 553 237 532 q 307 593 288 574 q 340 630 326 612 q 360 669 353 649 q 367 713 367 689 q 359 752 367 734 q 338 783 352 770 q 304 804 324 796 q 260 811 284 811 q 150 789 207 811 q 42 722 93 767 l 42 926 q 156 973 94 958 q 283 989 218 989 q 401 975 347 989 q 495 931 455 961 q 558 855 536 901 q 581 743 581 808 q 572 668 581 702 q 544 605 562 635 q 498 548 526 575 q 436 491 471 520 q 394 454 412 471 q 365 421 376 437 q 347 386 353 404 q 340 343 340 367 q 345 310 340 327 q 357 281 349 293 l 178 281 m 277 -16 q 187 17 223 -16 q 151 97 151 51 q 187 176 151 144 q 277 208 223 208 q 366 176 331 208 q 401 97 401 145 q 367 16 401 48 q 277 -16 332 -16 z "},"@":{"ha":1325,"x_min":92,"x_max":1236,"o":"m 761 252 l 757 252 q 585 122 709 122 q 434 190 491 122 q 376 378 376 258 q 456 630 376 533 q 647 728 535 728 q 774 648 748 728 l 777 648 l 783 715 l 936 715 q 905 338 905 427 q 957 243 905 243 q 1046 315 1011 243 q 1082 503 1082 387 q 981 763 1082 661 q 699 864 880 864 q 376 729 505 864 q 248 399 248 593 q 361 102 248 210 q 675 -7 475 -7 q 954 52 827 -7 l 954 -78 q 656 -127 838 -127 q 249 16 406 -127 q 92 401 92 159 q 259 817 92 648 q 690 985 427 985 q 1085 854 935 985 q 1236 510 1236 724 q 1144 228 1236 334 q 916 122 1052 122 q 806 158 848 122 q 761 252 764 194 m 671 610 q 571 540 610 610 q 533 379 533 471 q 559 278 533 314 q 627 241 585 241 q 727 310 690 241 q 764 493 764 378 q 738 578 764 547 q 671 610 713 610 z "},"A":{"ha":977,"x_min":7,"x_max":966,"o":"m 966 0 l 728 0 l 659 216 l 313 216 l 244 0 l 7 0 l 361 972 l 621 972 l 966 0 m 608 385 l 504 711 q 488 799 492 748 l 482 799 q 465 714 479 756 l 359 385 l 608 385 z "},"B":{"ha":890,"x_min":111,"x_max":842,"o":"m 111 0 l 111 972 l 465 972 q 715 913 628 972 q 803 745 803 853 q 750 607 803 666 q 614 525 696 548 l 614 522 q 780 446 718 509 q 842 290 842 382 q 746 78 842 157 q 485 0 650 0 l 111 0 m 330 811 l 330 581 l 427 581 q 533 613 494 581 q 572 704 572 646 q 412 811 572 811 l 330 811 m 330 418 l 330 161 l 449 161 q 568 197 525 161 q 611 293 611 232 q 569 385 611 351 q 450 418 526 418 l 330 418 z "},"C":{"ha":867,"x_min":50,"x_max":808,"o":"m 808 35 q 530 -17 702 -17 q 178 115 307 -17 q 50 465 50 246 q 194 844 50 699 q 568 989 338 989 q 808 953 711 989 l 808 742 q 586 800 711 800 q 365 714 449 800 q 281 481 281 628 q 360 256 281 340 q 574 172 439 172 q 808 235 702 172 l 808 35 z "},"D":{"ha":1024,"x_min":111,"x_max":974,"o":"m 111 0 l 111 972 l 456 972 q 974 498 974 972 q 832 136 974 271 q 456 0 691 0 l 111 0 m 330 794 l 330 178 l 439 178 q 662 263 581 178 q 743 496 743 349 q 663 714 743 635 q 437 794 583 794 l 330 794 z "},"E":{"ha":739,"x_min":111,"x_max":694,"o":"m 694 0 l 111 0 l 111 972 l 672 972 l 672 794 l 330 794 l 330 578 l 648 578 l 648 400 l 330 400 l 330 178 l 694 178 l 694 0 z "},"F":{"ha":722,"x_min":111,"x_max":673,"o":"m 673 794 l 330 794 l 330 555 l 646 555 l 646 378 l 330 378 l 330 0 l 111 0 l 111 972 l 673 972 l 673 794 z "},"G":{"ha":987,"x_min":50,"x_max":909,"o":"m 909 65 q 555 -17 767 -17 q 185 113 321 -17 q 50 471 50 243 q 198 844 50 700 q 591 989 346 989 q 864 946 746 989 l 864 741 q 589 806 751 806 q 367 717 452 806 q 281 481 281 629 q 358 249 281 331 q 566 167 435 167 q 690 189 644 167 l 690 379 l 496 379 l 496 554 l 909 554 l 909 65 z "},"H":{"ha":1064,"x_min":111,"x_max":953,"o":"m 953 0 l 733 0 l 733 396 l 330 396 l 330 0 l 111 0 l 111 972 l 330 972 l 330 585 l 733 585 l 733 972 l 953 972 l 953 0 z "},"I":{"ha":440,"x_min":30,"x_max":412,"o":"m 412 972 l 412 803 l 330 803 l 330 170 l 412 170 l 412 0 l 30 0 l 30 170 l 111 170 l 111 803 l 30 803 l 30 972 l 412 972 z "},"J":{"ha":618,"x_min":22,"x_max":517,"o":"m 517 386 q 426 87 517 191 q 164 -17 336 -17 q 22 9 87 -17 l 22 215 q 149 172 79 172 q 298 395 298 172 l 298 972 l 517 972 l 517 386 z "},"K":{"ha":901,"x_min":111,"x_max":920,"o":"m 920 0 l 643 0 l 359 422 q 334 476 351 435 l 330 476 l 330 0 l 111 0 l 111 972 l 330 972 l 330 513 l 334 513 q 361 567 342 532 l 629 972 l 890 972 l 551 509 l 920 0 z "},"L":{"ha":710,"x_min":111,"x_max":690,"o":"m 690 0 l 111 0 l 111 972 l 330 972 l 330 178 l 690 178 l 690 0 z "},"M":{"ha":1329,"x_min":111,"x_max":1219,"o":"m 1219 0 l 1003 0 l 1003 582 q 1011 790 1003 676 l 1006 790 q 975 661 989 701 l 747 0 l 568 0 l 336 654 q 306 790 327 681 l 300 790 q 309 538 309 646 l 309 0 l 111 0 l 111 972 l 432 972 l 631 396 q 665 257 654 327 l 669 257 q 708 397 688 338 l 907 972 l 1219 972 l 1219 0 z "},"N":{"ha":1097,"x_min":111,"x_max":986,"o":"m 986 0 l 765 0 l 364 611 q 315 692 329 665 l 313 692 q 318 534 318 640 l 318 0 l 111 0 l 111 972 l 347 972 l 733 380 q 782 301 760 340 l 785 301 q 779 435 779 335 l 779 972 l 986 972 l 986 0 z "},"O":{"ha":1053,"x_min":50,"x_max":1003,"o":"m 522 -17 q 182 119 313 -17 q 50 473 50 255 q 184 846 50 704 q 538 989 317 989 q 874 852 746 989 q 1003 493 1003 716 q 870 123 1003 264 q 522 -17 736 -17 m 532 800 q 349 714 416 800 q 281 485 281 627 q 349 256 281 340 q 526 172 416 172 q 706 254 640 172 q 772 481 772 336 q 708 716 772 632 q 532 800 644 800 z "},"P":{"ha":853,"x_min":111,"x_max":822,"o":"m 330 335 l 330 0 l 111 0 l 111 972 l 454 972 q 822 663 822 972 q 716 426 822 516 q 435 335 611 335 l 330 335 m 330 804 l 330 501 l 416 501 q 591 654 591 501 q 416 804 591 804 l 330 804 z "},"Q":{"ha":1053,"x_min":50,"x_max":1074,"o":"m 532 800 q 349 713 417 800 q 281 485 281 627 q 348 256 281 341 q 526 172 416 172 q 706 254 640 172 q 772 481 772 336 q 709 715 772 631 q 532 800 645 800 m 705 18 q 772 -44 741 -20 q 837 -83 804 -68 q 903 -102 869 -97 q 977 -108 937 -108 q 1000 -107 987 -108 q 1026 -103 1013 -106 q 1052 -98 1040 -101 q 1074 -91 1064 -95 l 1074 -275 q 1014 -288 1053 -281 q 921 -294 976 -294 q 799 -272 854 -294 q 691 -213 743 -250 q 592 -124 640 -175 q 491 -15 543 -73 q 310 26 391 -12 q 171 131 229 65 q 82 284 113 196 q 50 473 50 372 q 183 846 50 705 q 539 989 317 989 q 874 852 746 989 q 1003 493 1003 716 q 924 193 1003 319 q 705 18 846 69 z "},"R":{"ha":907,"x_min":111,"x_max":927,"o":"m 927 0 l 675 0 l 524 250 q 492 301 507 279 q 460 339 476 323 q 427 364 444 355 q 389 372 410 372 l 330 372 l 330 0 l 111 0 l 111 972 l 458 972 q 812 708 812 972 q 797 614 812 657 q 753 536 781 571 q 684 477 724 502 q 594 437 644 452 l 594 435 q 636 413 616 428 q 675 377 656 397 q 712 333 694 357 q 743 288 729 310 l 927 0 m 330 808 l 330 538 l 425 538 q 538 578 496 538 q 582 681 582 620 q 429 808 582 808 l 330 808 z "},"S":{"ha":779,"x_min":62,"x_max":730,"o":"m 66 37 l 66 254 q 195 180 125 205 q 334 155 264 155 q 407 163 376 155 q 458 183 437 170 q 489 215 479 197 q 499 254 499 233 q 483 304 499 282 q 438 346 467 327 q 372 382 410 365 q 288 418 333 400 q 118 534 174 466 q 62 700 62 603 q 93 830 62 776 q 176 920 123 885 q 298 972 229 956 q 444 989 367 989 q 579 980 520 989 q 687 951 637 970 l 687 749 q 634 779 663 766 q 574 800 605 791 q 514 812 544 808 q 456 817 484 817 q 389 809 419 817 q 337 789 358 802 q 304 759 316 777 q 293 718 293 741 q 306 674 293 694 q 342 638 319 655 q 400 604 366 621 q 477 570 434 587 q 582 518 535 545 q 661 456 628 490 q 712 377 694 421 q 730 273 730 332 q 699 137 730 192 q 615 47 668 81 q 492 -2 562 13 q 344 -17 422 -17 q 192 -3 264 -17 q 66 37 119 10 z "},"T":{"ha":814,"x_min":21,"x_max":794,"o":"m 794 794 l 517 794 l 517 0 l 297 0 l 297 794 l 21 794 l 21 972 l 794 972 l 794 794 z "},"U":{"ha":1004,"x_min":100,"x_max":904,"o":"m 904 421 q 496 -17 904 -17 q 100 411 100 -17 l 100 972 l 319 972 l 319 408 q 504 172 319 172 q 685 400 685 172 l 685 972 l 904 972 l 904 421 z "},"V":{"ha":926,"x_min":7,"x_max":921,"o":"m 921 972 l 586 0 l 338 0 l 7 972 l 243 972 l 446 296 q 465 199 462 241 l 469 199 q 490 298 474 244 l 692 972 l 921 972 z "},"W":{"ha":1396,"x_min":12,"x_max":1383,"o":"m 1383 972 l 1126 0 l 884 0 l 722 624 q 707 733 709 673 l 704 733 q 686 624 698 667 l 521 0 l 268 0 l 12 972 l 252 972 l 389 325 q 401 214 397 283 l 406 214 q 425 328 408 266 l 602 972 l 836 972 l 996 319 q 1011 215 1004 283 l 1014 215 q 1028 323 1017 269 l 1162 972 l 1383 972 z "},"X":{"ha":910,"x_min":4,"x_max":905,"o":"m 905 0 l 646 0 l 478 317 q 458 382 469 334 l 456 382 q 433 314 451 359 l 265 0 l 4 0 l 314 486 l 31 972 l 297 972 l 436 681 q 465 599 452 646 l 468 599 q 498 684 476 627 l 653 972 l 897 972 l 606 490 l 905 0 z "},"Y":{"ha":843,"x_min":0,"x_max":844,"o":"m 844 972 l 528 346 l 528 0 l 309 0 l 309 342 l 0 972 l 250 972 l 407 610 q 429 530 411 600 l 432 530 q 453 607 441 579 l 612 972 l 844 972 z "},"Z":{"ha":843,"x_min":28,"x_max":811,"o":"m 811 0 l 28 0 l 28 126 l 526 794 l 64 794 l 64 972 l 810 972 l 810 850 l 322 178 l 811 178 l 811 0 z "},"[":{"ha":513,"x_min":147,"x_max":465,"o":"m 465 -221 l 147 -221 l 147 972 l 465 972 l 465 836 l 323 836 l 323 -85 l 465 -85 l 465 -221 z "},"\\":{"ha":606,"x_min":0,"x_max":652,"o":"m 652 -161 l 463 -161 l 0 972 l 191 972 l 652 -161 z "},"]":{"ha":513,"x_min":47,"x_max":367,"o":"m 367 -221 l 47 -221 l 47 -85 l 191 -85 l 191 836 l 47 836 l 47 972 l 367 972 l 367 -221 z "},"^":{"ha":982,"x_min":138,"x_max":847,"o":"m 847 414 l 682 414 l 488 811 l 485 811 l 301 414 l 138 414 l 429 989 l 539 989 l 847 414 z "},"_":{"ha":576,"x_min":0,"x_max":576,"o":"m 576 -201 l 0 -201 l 0 -121 l 576 -121 l 576 -201 z "},"`":{"ha":436,"x_min":37,"x_max":404,"o":"m 404 804 l 250 804 l 37 1023 l 228 1023 l 404 804 z "},"a":{"ha":747,"x_min":39,"x_max":668,"o":"m 668 0 l 465 0 l 465 100 l 463 100 q 256 -17 393 -17 q 97 40 155 -17 q 39 193 39 98 q 278 427 39 395 l 467 452 q 343 566 467 566 q 107 492 219 566 l 107 653 q 230 694 152 676 q 371 711 307 711 q 668 415 668 711 l 668 0 m 467 282 l 467 329 l 340 313 q 236 218 236 299 q 261 158 236 182 q 330 135 287 135 q 429 177 391 135 q 467 282 467 218 z "},"b":{"ha":861,"x_min":90,"x_max":812,"o":"m 307 81 l 304 81 l 304 0 l 90 0 l 90 1028 l 304 1028 l 304 590 l 307 590 q 533 711 387 711 q 740 619 667 711 q 812 367 812 527 q 728 88 812 193 q 501 -17 643 -17 q 307 81 373 -17 m 301 374 l 301 302 q 340 191 301 235 q 439 147 378 147 q 552 204 512 147 q 593 364 593 260 q 556 499 593 450 q 450 547 519 547 q 343 499 386 547 q 301 374 301 451 z "},"c":{"ha":667,"x_min":49,"x_max":616,"o":"m 616 25 q 407 -17 544 -17 q 148 80 247 -17 q 49 330 49 177 q 155 609 49 507 q 439 711 261 711 q 616 679 562 711 l 616 497 q 467 547 549 547 q 320 493 374 547 q 267 345 267 439 q 318 200 267 252 q 460 147 370 147 q 616 197 540 147 l 616 25 z "},"d":{"ha":860,"x_min":49,"x_max":770,"o":"m 770 0 l 555 0 l 555 96 l 553 96 q 338 -17 479 -17 q 128 75 208 -17 q 49 332 49 167 q 136 608 49 504 q 366 711 224 711 q 553 615 500 711 l 555 615 l 555 1028 l 770 1028 l 770 0 m 559 338 l 559 390 q 520 503 559 458 q 418 547 481 547 q 307 491 347 547 q 267 338 267 435 q 305 197 267 246 q 412 147 344 147 q 518 199 477 147 q 559 338 559 252 z "},"e":{"ha":751,"x_min":49,"x_max":714,"o":"m 714 286 l 261 286 q 452 135 272 135 q 653 189 566 135 l 653 35 q 403 -17 557 -17 q 142 76 235 -17 q 49 336 49 170 q 149 610 49 509 q 396 711 250 711 q 631 621 548 711 q 714 376 714 531 l 714 286 m 515 418 q 395 567 515 567 q 306 524 343 567 q 260 418 268 481 l 515 418 z "},"f":{"ha":532,"x_min":31,"x_max":543,"o":"m 543 864 q 464 880 502 880 q 361 768 361 880 l 361 694 l 519 694 l 519 536 l 361 536 l 361 0 l 147 0 l 147 536 l 31 536 l 31 694 l 147 694 l 147 781 q 224 972 147 899 q 435 1044 302 1044 q 543 1031 500 1044 l 543 864 z "},"g":{"ha":860,"x_min":49,"x_max":771,"o":"m 771 79 q 659 -220 771 -114 q 335 -326 547 -326 q 113 -286 195 -326 l 113 -106 q 329 -168 220 -168 q 497 -111 437 -168 q 557 45 557 -54 l 557 100 l 554 100 q 338 -17 481 -17 q 127 77 205 -17 q 49 328 49 170 q 136 608 49 504 q 364 711 222 711 q 554 614 491 711 l 557 614 l 557 694 l 771 694 l 771 79 m 559 334 l 559 389 q 520 501 559 454 q 419 547 481 547 q 307 492 348 547 q 267 335 267 436 q 305 198 267 248 q 411 147 344 147 q 518 198 477 147 q 559 334 559 250 z "},"h":{"ha":836,"x_min":90,"x_max":757,"o":"m 757 0 l 543 0 l 543 395 q 432 547 543 547 q 340 505 375 547 q 304 396 304 462 l 304 0 l 90 0 l 90 1028 l 304 1028 l 304 591 l 307 591 q 521 711 386 711 q 757 427 757 711 l 757 0 z "},"i":{"ha":395,"x_min":75,"x_max":322,"o":"m 199 804 q 110 837 144 804 q 75 916 75 869 q 110 994 75 964 q 199 1025 144 1025 q 288 994 254 1025 q 322 916 322 964 q 288 836 322 867 q 199 804 254 804 m 304 0 l 90 0 l 90 694 l 304 694 l 304 0 z "},"j":{"ha":395,"x_min":-90,"x_max":322,"o":"m 199 804 q 110 837 144 804 q 75 916 75 869 q 110 994 75 964 q 199 1025 144 1025 q 288 994 254 1025 q 322 916 322 964 q 288 836 322 867 q 199 804 254 804 m 304 12 q 229 -234 304 -142 q 12 -326 154 -326 q -90 -306 -35 -326 l -90 -138 q -11 -163 -45 -163 q 90 -4 90 -163 l 90 694 l 304 694 l 304 12 z "},"k":{"ha":777,"x_min":90,"x_max":786,"o":"m 786 0 l 529 0 l 307 345 l 304 345 l 304 0 l 90 0 l 90 1028 l 304 1028 l 304 374 l 307 374 l 514 694 l 768 694 l 519 368 l 786 0 z "},"l":{"ha":395,"x_min":90,"x_max":304,"o":"m 304 0 l 90 0 l 90 1028 l 304 1028 l 304 0 z "},"m":{"ha":1272,"x_min":90,"x_max":1193,"o":"m 1193 0 l 979 0 l 979 396 q 868 547 979 547 q 782 502 815 547 q 749 389 749 456 l 749 0 l 534 0 l 534 400 q 425 547 534 547 q 337 504 370 547 q 304 386 304 460 l 304 0 l 90 0 l 90 694 l 304 694 l 304 586 l 307 586 q 400 676 340 642 q 532 711 460 711 q 733 582 679 711 q 966 711 812 711 q 1193 432 1193 711 l 1193 0 z "},"n":{"ha":840,"x_min":90,"x_max":761,"o":"m 761 0 l 547 0 l 547 386 q 432 547 547 547 q 340 505 376 547 q 304 396 304 462 l 304 0 l 90 0 l 90 694 l 304 694 l 304 585 l 307 585 q 530 711 384 711 q 761 425 761 711 l 761 0 z "},"o":{"ha":849,"x_min":49,"x_max":800,"o":"m 421 -17 q 148 80 248 -17 q 49 345 49 178 q 152 614 49 517 q 431 711 255 711 q 702 614 604 711 q 800 357 800 517 q 699 83 800 184 q 421 -17 597 -17 m 427 547 q 309 495 351 547 q 267 347 267 443 q 428 147 267 147 q 582 353 582 147 q 427 547 582 547 z "},"p":{"ha":861,"x_min":90,"x_max":812,"o":"m 307 81 l 304 81 l 304 -319 l 90 -319 l 90 694 l 304 694 l 304 590 l 307 590 q 530 711 387 711 q 739 619 665 711 q 812 367 812 526 q 727 88 812 193 q 498 -17 641 -17 q 307 81 373 -17 m 301 366 l 301 310 q 339 193 301 238 q 439 147 377 147 q 552 204 512 147 q 593 364 593 260 q 450 547 593 547 q 343 497 385 547 q 301 366 301 448 z "},"q":{"ha":860,"x_min":49,"x_max":770,"o":"m 770 -319 l 555 -319 l 555 96 l 553 96 q 339 -17 480 -17 q 129 74 208 -17 q 49 330 49 165 q 136 608 49 504 q 364 711 224 711 q 553 614 492 711 l 555 614 l 555 694 l 770 694 l 770 -319 m 559 332 l 559 387 q 520 501 559 455 q 419 547 481 547 q 307 491 348 547 q 267 336 267 435 q 306 197 267 248 q 410 147 346 147 q 518 198 477 147 q 559 332 559 249 z "},"r":{"ha":553,"x_min":90,"x_max":543,"o":"m 543 501 q 453 522 505 522 q 344 471 383 522 q 304 332 304 420 l 304 0 l 90 0 l 90 694 l 304 694 l 304 566 l 307 566 q 490 707 358 707 q 543 699 524 707 l 543 501 z "},"s":{"ha":611,"x_min":45,"x_max":578,"o":"m 45 18 l 45 192 q 150 144 98 160 q 250 129 203 129 q 339 144 307 129 q 372 192 372 160 q 357 226 372 212 q 319 250 342 239 q 268 268 296 260 q 214 286 240 276 q 141 320 173 302 q 89 361 110 338 q 56 416 67 385 q 45 490 45 448 q 70 591 45 549 q 138 660 96 633 q 235 699 180 686 q 349 711 290 711 q 442 704 395 711 q 536 684 490 697 l 536 518 q 449 554 495 542 q 357 566 402 566 q 318 562 336 566 q 285 551 299 558 q 262 533 271 544 q 254 507 254 522 q 267 475 254 488 q 298 451 279 461 q 342 434 318 441 q 390 418 366 426 q 467 385 433 403 q 527 344 502 368 q 565 288 551 320 q 578 212 578 256 q 551 107 578 151 q 480 36 524 63 q 377 -4 435 8 q 257 -17 319 -17 q 45 18 142 -17 z "},"t":{"ha":541,"x_min":28,"x_max":510,"o":"m 510 8 q 367 -17 463 -17 q 140 218 140 -17 l 140 536 l 28 536 l 28 694 l 140 694 l 140 844 l 354 905 l 354 694 l 510 694 l 510 536 l 354 536 l 354 256 q 440 147 354 147 q 510 167 474 147 l 510 8 z "},"u":{"ha":840,"x_min":79,"x_max":750,"o":"m 750 0 l 536 0 l 536 106 l 533 106 q 321 -17 454 -17 q 79 275 79 -17 l 79 694 l 293 694 l 293 294 q 410 147 293 147 q 502 188 467 147 q 536 297 536 228 l 536 694 l 750 694 l 750 0 z "},"v":{"ha":753,"x_min":3,"x_max":751,"o":"m 751 694 l 493 0 l 249 0 l 3 694 l 232 694 l 353 267 q 376 143 373 194 l 379 143 q 404 262 384 191 l 528 694 l 751 694 z "},"w":{"ha":1107,"x_min":11,"x_max":1096,"o":"m 1096 694 l 896 0 l 671 0 l 568 407 q 557 496 558 448 l 553 496 q 539 410 548 443 l 429 0 l 207 0 l 11 694 l 229 694 l 325 241 q 335 164 332 210 l 339 164 q 351 244 342 212 l 471 694 l 675 694 l 782 241 q 791 163 786 224 l 796 163 q 807 241 800 202 l 897 694 l 1096 694 z "},"x":{"ha":767,"x_min":5,"x_max":761,"o":"m 761 694 l 532 358 l 760 0 l 513 0 l 412 187 q 383 250 400 210 l 380 250 q 353 189 370 222 l 252 0 l 5 0 l 240 346 l 20 694 l 268 694 l 367 500 q 395 435 387 461 l 397 435 q 427 501 408 467 l 528 694 l 761 694 z "},"y":{"ha":747,"x_min":-3,"x_max":751,"o":"m 751 694 l 469 -56 q 163 -326 368 -326 q 35 -309 85 -326 l 35 -138 q 127 -163 77 -163 q 243 -85 210 -163 l 279 1 l -3 694 l 235 694 l 364 272 q 383 179 376 233 l 386 179 q 408 271 392 218 l 539 694 l 751 694 z "},"z":{"ha":665,"x_min":17,"x_max":640,"o":"m 640 0 l 17 0 l 17 89 l 366 536 l 52 536 l 52 694 l 637 694 l 637 589 l 307 158 l 640 158 l 640 0 z "},"{":{"ha":513,"x_min":72,"x_max":457,"o":"m 457 -221 q 242 -167 309 -221 q 175 26 175 -113 l 175 189 q 72 314 175 314 l 72 439 q 175 568 175 439 l 175 720 q 241 916 175 859 q 457 972 308 972 l 457 846 q 349 728 349 846 l 349 583 q 244 378 349 420 l 244 375 q 349 167 349 333 l 349 28 q 374 -66 349 -39 q 457 -94 399 -94 l 457 -221 z "},"|":{"ha":453,"x_min":142,"x_max":313,"o":"m 313 -326 l 142 -326 l 142 1063 l 313 1063 l 313 -326 z "},"}":{"ha":513,"x_min":57,"x_max":441,"o":"m 441 314 q 338 187 338 314 l 338 31 q 272 -167 338 -113 q 57 -221 205 -221 l 57 -94 q 140 -67 114 -94 q 165 26 165 -39 l 165 171 q 269 374 165 333 l 269 376 q 165 589 165 419 l 165 728 q 57 846 165 846 l 57 972 q 271 916 205 972 q 338 722 338 859 l 338 567 q 441 439 338 439 l 441 314 z "},"~":{"ha":982,"x_min":132,"x_max":851,"o":"m 851 524 q 790 343 847 410 q 639 277 734 277 q 464 336 567 277 q 358 379 390 379 q 271 271 275 379 l 132 271 q 193 452 136 385 q 347 518 250 518 q 509 467 423 518 q 631 414 597 414 q 689 444 666 414 q 713 524 711 474 l 851 524 z "},"Ä":{"ha":977,"x_min":7,"x_max":966,"o":"m 966 0 l 728 0 l 659 216 l 313 216 l 244 0 l 7 0 l 361 972 l 621 972 l 966 0 m 608 385 l 504 711 q 488 799 492 748 l 482 799 q 465 714 479 756 l 359 385 l 608 385 m 641 1063 q 566 1089 595 1063 q 537 1156 537 1116 q 566 1223 537 1197 q 641 1249 595 1249 q 716 1222 686 1249 q 745 1156 745 1196 q 716 1089 745 1115 q 641 1063 687 1063 m 330 1063 q 255 1089 284 1063 q 226 1156 226 1116 q 256 1222 226 1196 q 330 1249 286 1249 q 405 1222 376 1249 q 434 1156 434 1196 q 405 1088 434 1114 q 330 1063 376 1063 z "},"Å":{"ha":977,"x_min":7,"x_max":966,"o":"m 966 0 l 728 0 l 659 216 l 313 216 l 244 0 l 7 0 l 354 954 q 318 1047 318 991 q 368 1162 318 1119 q 490 1204 418 1204 q 615 1161 568 1204 q 663 1050 663 1118 q 627 957 663 996 l 966 0 m 488 1116 q 437 1096 456 1116 q 418 1048 418 1077 q 488 982 418 982 q 540 1001 520 982 q 559 1048 559 1021 q 539 1097 559 1078 q 488 1116 519 1116 m 606 396 l 503 711 q 488 793 494 739 l 482 793 q 467 714 477 747 l 363 396 l 606 396 z "},"Ç":{"ha":867,"x_min":50,"x_max":808,"o":"m 808 35 q 530 -17 702 -17 q 178 115 307 -17 q 50 465 50 246 q 194 844 50 699 q 568 989 338 989 q 808 953 711 989 l 808 742 q 586 800 711 800 q 365 714 449 800 q 281 481 281 628 q 360 256 281 340 q 574 172 439 172 q 808 235 702 172 l 808 35 m 414 -306 l 414 -212 q 463 -216 437 -216 q 546 -167 546 -216 q 471 -122 546 -122 q 446 -123 462 -122 l 446 0 l 562 0 l 562 -56 q 689 -168 689 -61 q 473 -309 689 -309 q 414 -306 442 -309 z "},"É":{"ha":739,"x_min":111,"x_max":694,"o":"m 694 0 l 111 0 l 111 972 l 672 972 l 672 794 l 330 794 l 330 578 l 648 578 l 648 400 l 330 400 l 330 178 l 694 178 l 694 0 m 633 1282 l 421 1063 l 267 1063 l 443 1282 l 633 1282 z "},"Ñ":{"ha":1097,"x_min":111,"x_max":986,"o":"m 986 0 l 765 0 l 364 611 q 315 692 329 665 l 313 692 q 318 534 318 640 l 318 0 l 111 0 l 111 972 l 347 972 l 733 380 q 782 301 760 340 l 785 301 q 779 435 779 335 l 779 972 l 986 972 l 986 0 m 818 1274 q 780 1127 818 1179 q 677 1075 743 1075 q 564 1104 619 1075 q 480 1136 503 1136 q 426 1063 426 1136 l 330 1063 q 368 1209 330 1157 q 472 1261 405 1261 q 586 1228 527 1261 q 667 1198 640 1198 q 720 1274 720 1198 l 818 1274 z "},"Ö":{"ha":1053,"x_min":50,"x_max":1003,"o":"m 522 -17 q 182 119 313 -17 q 50 473 50 255 q 184 846 50 704 q 538 989 317 989 q 874 852 746 989 q 1003 493 1003 716 q 870 123 1003 264 q 522 -17 736 -17 m 532 800 q 349 714 416 800 q 281 485 281 627 q 349 256 281 340 q 526 172 416 172 q 706 254 640 172 q 772 481 772 336 q 708 716 772 632 q 532 800 644 800 m 681 1063 q 606 1089 635 1063 q 577 1156 577 1116 q 606 1223 577 1197 q 681 1249 635 1249 q 756 1222 726 1249 q 785 1156 785 1196 q 756 1089 785 1115 q 681 1063 727 1063 m 370 1063 q 295 1089 324 1063 q 266 1156 266 1116 q 296 1222 266 1196 q 370 1249 326 1249 q 445 1222 416 1249 q 474 1156 474 1196 q 445 1088 474 1114 q 370 1063 416 1063 z "},"Ü":{"ha":1004,"x_min":100,"x_max":904,"o":"m 904 421 q 496 -17 904 -17 q 100 411 100 -17 l 100 972 l 319 972 l 319 408 q 504 172 319 172 q 685 400 685 172 l 685 972 l 904 972 l 904 421 m 657 1063 q 583 1089 612 1063 q 553 1156 553 1116 q 583 1223 553 1197 q 657 1249 612 1249 q 732 1222 703 1249 q 762 1156 762 1196 q 732 1089 762 1115 q 657 1063 703 1063 m 347 1063 q 271 1089 300 1063 q 242 1156 242 1116 q 272 1222 242 1196 q 347 1249 302 1249 q 421 1222 393 1249 q 450 1156 450 1196 q 421 1088 450 1114 q 347 1063 393 1063 z "},"á":{"ha":747,"x_min":39,"x_max":668,"o":"m 668 0 l 465 0 l 465 100 l 463 100 q 256 -17 393 -17 q 97 40 155 -17 q 39 193 39 98 q 278 427 39 395 l 467 452 q 343 566 467 566 q 107 492 219 566 l 107 653 q 230 694 152 676 q 371 711 307 711 q 668 415 668 711 l 668 0 m 467 282 l 467 329 l 340 313 q 236 218 236 299 q 261 158 236 182 q 330 135 287 135 q 429 177 391 135 q 467 282 467 218 m 604 1023 l 392 804 l 237 804 l 414 1023 l 604 1023 z "},"à":{"ha":747,"x_min":39,"x_max":668,"o":"m 668 0 l 465 0 l 465 100 l 463 100 q 256 -17 393 -17 q 97 40 155 -17 q 39 193 39 98 q 278 427 39 395 l 467 452 q 343 566 467 566 q 107 492 219 566 l 107 653 q 230 694 152 676 q 371 711 307 711 q 668 415 668 711 l 668 0 m 467 282 l 467 329 l 340 313 q 236 218 236 299 q 261 158 236 182 q 330 135 287 135 q 429 177 391 135 q 467 282 467 218 m 526 804 l 372 804 l 159 1023 l 349 1023 l 526 804 z "},"â":{"ha":747,"x_min":39,"x_max":668,"o":"m 668 0 l 465 0 l 465 100 l 463 100 q 256 -17 393 -17 q 97 40 155 -17 q 39 193 39 98 q 278 427 39 395 l 467 452 q 343 566 467 566 q 107 492 219 566 l 107 653 q 230 694 152 676 q 371 711 307 711 q 668 415 668 711 l 668 0 m 467 282 l 467 329 l 340 313 q 236 218 236 299 q 261 158 236 182 q 330 135 287 135 q 429 177 391 135 q 467 282 467 218 m 620 804 l 479 804 l 372 932 l 273 804 l 132 804 l 292 1025 l 460 1025 l 620 804 z "},"ä":{"ha":747,"x_min":39,"x_max":668,"o":"m 668 0 l 465 0 l 465 100 l 463 100 q 256 -17 393 -17 q 97 40 155 -17 q 39 193 39 98 q 278 427 39 395 l 467 452 q 343 566 467 566 q 107 492 219 566 l 107 653 q 230 694 152 676 q 371 711 307 711 q 668 415 668 711 l 668 0 m 467 282 l 467 329 l 340 313 q 236 218 236 299 q 261 158 236 182 q 330 135 287 135 q 429 177 391 135 q 467 282 467 218 m 534 804 q 459 831 488 804 q 430 897 430 857 q 459 964 430 939 q 534 990 488 990 q 609 964 579 990 q 638 897 638 938 q 609 830 638 857 q 534 804 580 804 m 223 804 q 148 831 177 804 q 119 897 119 858 q 149 964 119 938 q 223 990 178 990 q 298 964 269 990 q 327 897 327 938 q 298 830 327 856 q 223 804 269 804 z "},"ã":{"ha":747,"x_min":39,"x_max":668,"o":"m 668 0 l 465 0 l 465 100 l 463 100 q 256 -17 393 -17 q 97 40 155 -17 q 39 193 39 98 q 278 427 39 395 l 467 452 q 343 566 467 566 q 107 492 219 566 l 107 653 q 230 694 152 676 q 371 711 307 711 q 668 415 668 711 l 668 0 m 467 282 l 467 329 l 340 313 q 236 218 236 299 q 261 158 236 182 q 330 135 287 135 q 429 177 391 135 q 467 282 467 218 m 615 1015 q 577 868 615 920 q 475 817 540 817 q 361 846 416 817 q 277 878 300 878 q 223 804 223 878 l 127 804 q 165 951 127 899 q 269 1003 202 1003 q 383 970 324 1003 q 465 940 437 940 q 517 1015 517 940 l 615 1015 z "},"å":{"ha":747,"x_min":39,"x_max":668,"o":"m 668 0 l 465 0 l 465 100 l 463 100 q 256 -17 393 -17 q 97 40 155 -17 q 39 193 39 98 q 278 427 39 395 l 467 452 q 343 566 467 566 q 107 492 219 566 l 107 653 q 230 694 152 676 q 371 711 307 711 q 668 415 668 711 l 668 0 m 467 282 l 467 329 l 340 313 q 236 218 236 299 q 261 158 236 182 q 330 135 287 135 q 429 177 391 135 q 467 282 467 218 m 389 804 q 274 845 319 804 q 229 950 229 885 q 276 1059 229 1019 q 392 1100 323 1100 q 509 1060 465 1100 q 554 954 554 1019 q 506 846 554 888 q 389 804 457 804 m 389 1017 q 323 953 323 1017 q 389 889 323 889 q 439 908 419 889 q 458 953 458 926 q 439 999 458 981 q 389 1017 420 1017 z "},"ç":{"ha":667,"x_min":49,"x_max":616,"o":"m 616 25 q 407 -17 544 -17 q 148 80 247 -17 q 49 330 49 177 q 155 609 49 507 q 439 711 261 711 q 616 679 562 711 l 616 497 q 467 547 549 547 q 320 493 374 547 q 267 345 267 439 q 318 200 267 252 q 460 147 370 147 q 616 197 540 147 l 616 25 m 289 -306 l 289 -212 q 338 -216 313 -216 q 421 -167 421 -216 q 346 -122 421 -122 q 321 -123 337 -122 l 321 0 l 437 0 l 437 -56 q 564 -168 564 -61 q 349 -309 564 -309 q 289 -306 317 -309 z "},"é":{"ha":751,"x_min":49,"x_max":714,"o":"m 714 286 l 261 286 q 452 135 272 135 q 653 189 566 135 l 653 35 q 403 -17 557 -17 q 142 76 235 -17 q 49 336 49 170 q 149 610 49 509 q 396 711 250 711 q 631 621 548 711 q 714 376 714 531 l 714 286 m 515 418 q 395 567 515 567 q 306 524 343 567 q 260 418 268 481 l 515 418 m 625 1023 l 412 804 l 258 804 l 434 1023 l 625 1023 z "},"è":{"ha":751,"x_min":49,"x_max":714,"o":"m 714 286 l 261 286 q 452 135 272 135 q 653 189 566 135 l 653 35 q 403 -17 557 -17 q 142 76 235 -17 q 49 336 49 170 q 149 610 49 509 q 396 711 250 711 q 631 621 548 711 q 714 376 714 531 l 714 286 m 515 418 q 395 567 515 567 q 306 524 343 567 q 260 418 268 481 l 515 418 m 539 804 l 385 804 l 172 1023 l 363 1023 l 539 804 z "},"ê":{"ha":751,"x_min":49,"x_max":714,"o":"m 714 286 l 261 286 q 452 135 272 135 q 653 189 566 135 l 653 35 q 403 -17 557 -17 q 142 76 235 -17 q 49 336 49 170 q 149 610 49 509 q 396 711 250 711 q 631 621 548 711 q 714 376 714 531 l 714 286 m 515 418 q 395 567 515 567 q 306 524 343 567 q 260 418 268 481 l 515 418 m 644 804 l 503 804 l 396 932 l 296 804 l 156 804 l 315 1025 l 484 1025 l 644 804 z "},"ë":{"ha":751,"x_min":49,"x_max":714,"o":"m 714 286 l 261 286 q 452 135 272 135 q 653 189 566 135 l 653 35 q 403 -17 557 -17 q 142 76 235 -17 q 49 336 49 170 q 149 610 49 509 q 396 711 250 711 q 631 621 548 711 q 714 376 714 531 l 714 286 m 515 418 q 395 567 515 567 q 306 524 343 567 q 260 418 268 481 l 515 418 m 548 804 q 473 831 503 804 q 444 897 444 857 q 473 964 444 939 q 548 990 503 990 q 623 964 593 990 q 652 897 652 938 q 623 830 652 857 q 548 804 594 804 m 237 804 q 162 831 191 804 q 133 897 133 858 q 163 964 133 938 q 237 990 193 990 q 312 964 283 990 q 341 897 341 938 q 312 830 341 856 q 237 804 283 804 z "},"í":{"ha":395,"x_min":48,"x_max":415,"o":"m 304 0 l 90 0 l 90 694 l 304 694 l 304 0 m 415 1023 l 203 804 l 48 804 l 224 1023 l 415 1023 z "},"ì":{"ha":395,"x_min":-18,"x_max":349,"o":"m 304 0 l 90 0 l 90 694 l 304 694 l 304 0 m 349 804 l 195 804 l -18 1023 l 172 1023 l 349 804 z "},"î":{"ha":395,"x_min":-42,"x_max":446,"o":"m 304 0 l 90 0 l 90 694 l 304 694 l 304 0 m 446 804 l 305 804 l 198 932 l 98 804 l -42 804 l 117 1025 l 286 1025 l 446 804 z "},"ï":{"ha":395,"x_min":-58,"x_max":461,"o":"m 304 0 l 90 0 l 90 694 l 304 694 l 304 0 m 357 804 q 282 831 311 804 q 253 897 253 857 q 282 964 253 939 q 357 990 311 990 q 432 964 402 990 q 461 897 461 938 q 432 830 461 857 q 357 804 403 804 m 46 804 q -29 831 0 804 q -58 897 -58 858 q -28 964 -58 938 q 46 990 1 990 q 121 964 92 990 q 150 897 150 938 q 121 830 150 856 q 46 804 92 804 z "},"ñ":{"ha":840,"x_min":90,"x_max":761,"o":"m 761 0 l 547 0 l 547 386 q 432 547 547 547 q 340 505 376 547 q 304 396 304 462 l 304 0 l 90 0 l 90 694 l 304 694 l 304 585 l 307 585 q 530 711 384 711 q 761 425 761 711 l 761 0 m 666 1015 q 628 868 666 920 q 526 817 591 817 q 412 846 467 817 q 328 878 351 878 q 274 804 274 878 l 178 804 q 216 951 178 899 q 320 1003 253 1003 q 434 970 375 1003 q 515 940 488 940 q 568 1015 568 940 l 666 1015 z "},"ó":{"ha":848,"x_min":49,"x_max":800,"o":"m 421 -17 q 148 80 248 -17 q 49 345 49 178 q 152 614 49 517 q 431 711 255 711 q 702 614 604 711 q 800 357 800 517 q 699 83 800 184 q 421 -17 597 -17 m 427 547 q 309 495 351 547 q 267 347 267 443 q 428 147 267 147 q 582 353 582 147 q 427 547 582 547 m 656 1023 l 444 804 l 290 804 l 466 1023 l 656 1023 z "},"ò":{"ha":848,"x_min":49,"x_max":800,"o":"m 421 -17 q 148 80 248 -17 q 49 345 49 178 q 152 614 49 517 q 431 711 255 711 q 702 614 604 711 q 800 357 800 517 q 699 83 800 184 q 421 -17 597 -17 m 427 547 q 309 495 351 547 q 267 347 267 443 q 428 147 267 147 q 582 353 582 147 q 427 547 582 547 m 578 804 l 424 804 l 211 1023 l 401 1023 l 578 804 z "},"ô":{"ha":848,"x_min":49,"x_max":800,"o":"m 421 -17 q 148 80 248 -17 q 49 345 49 178 q 152 614 49 517 q 431 711 255 711 q 702 614 604 711 q 800 357 800 517 q 699 83 800 184 q 421 -17 597 -17 m 427 547 q 309 495 351 547 q 267 347 267 443 q 428 147 267 147 q 582 353 582 147 q 427 547 582 547 m 670 804 l 530 804 l 422 932 l 323 804 l 182 804 l 342 1025 l 510 1025 l 670 804 z "},"ö":{"ha":848,"x_min":49,"x_max":800,"o":"m 421 -17 q 148 80 248 -17 q 49 345 49 178 q 152 614 49 517 q 431 711 255 711 q 702 614 604 711 q 800 357 800 517 q 699 83 800 184 q 421 -17 597 -17 m 427 547 q 309 495 351 547 q 267 347 267 443 q 428 147 267 147 q 582 353 582 147 q 427 547 582 547 m 583 804 q 508 831 537 804 q 479 897 479 857 q 508 964 479 939 q 583 990 537 990 q 657 964 628 990 q 687 897 687 938 q 658 830 687 857 q 583 804 629 804 m 272 804 q 197 831 226 804 q 168 897 168 858 q 197 964 168 938 q 272 990 227 990 q 347 964 318 990 q 376 897 376 938 q 347 830 376 856 q 272 804 318 804 z "},"õ":{"ha":848,"x_min":49,"x_max":800,"o":"m 421 -17 q 148 80 248 -17 q 49 345 49 178 q 152 614 49 517 q 431 711 255 711 q 702 614 604 711 q 800 357 800 517 q 699 83 800 184 q 421 -17 597 -17 m 427 547 q 309 495 351 547 q 267 347 267 443 q 428 147 267 147 q 582 353 582 147 q 427 547 582 547 m 668 1015 q 630 868 668 920 q 528 817 593 817 q 414 846 469 817 q 330 878 353 878 q 276 804 276 878 l 180 804 q 218 951 180 899 q 322 1003 255 1003 q 436 970 377 1003 q 517 940 490 940 q 570 1015 570 940 l 668 1015 z "},"ú":{"ha":840,"x_min":79,"x_max":750,"o":"m 750 0 l 536 0 l 536 106 l 533 106 q 321 -17 454 -17 q 79 275 79 -17 l 79 694 l 293 694 l 293 294 q 410 147 293 147 q 502 188 467 147 q 536 297 536 228 l 536 694 l 750 694 l 750 0 m 663 1023 l 450 804 l 296 804 l 472 1023 l 663 1023 z "},"ù":{"ha":840,"x_min":79,"x_max":750,"o":"m 750 0 l 536 0 l 536 106 l 533 106 q 321 -17 454 -17 q 79 275 79 -17 l 79 694 l 293 694 l 293 294 q 410 147 293 147 q 502 188 467 147 q 536 297 536 228 l 536 694 l 750 694 l 750 0 m 532 804 l 378 804 l 165 1023 l 355 1023 l 532 804 z "},"û":{"ha":840,"x_min":79,"x_max":750,"o":"m 750 0 l 536 0 l 536 106 l 533 106 q 321 -17 454 -17 q 79 275 79 -17 l 79 694 l 293 694 l 293 294 q 410 147 293 147 q 502 188 467 147 q 536 297 536 228 l 536 694 l 750 694 l 750 0 m 658 804 l 517 804 l 410 932 l 311 804 l 170 804 l 330 1025 l 498 1025 l 658 804 z "},"ü":{"ha":840,"x_min":79,"x_max":750,"o":"m 750 0 l 536 0 l 536 106 l 533 106 q 321 -17 454 -17 q 79 275 79 -17 l 79 694 l 293 694 l 293 294 q 410 147 293 147 q 502 188 467 147 q 536 297 536 228 l 536 694 l 750 694 l 750 0 m 572 804 q 498 831 527 804 q 469 897 469 857 q 498 964 469 939 q 572 990 527 990 q 647 964 618 990 q 677 897 677 938 q 648 830 677 857 q 572 804 618 804 m 262 804 q 186 831 216 804 q 157 897 157 858 q 187 964 157 938 q 262 990 217 990 q 337 964 308 990 q 366 897 366 938 q 337 830 366 856 q 262 804 308 804 z "},"†":{"ha":564,"x_min":22,"x_max":541,"o":"m 541 589 l 356 609 l 326 137 l 238 137 l 208 609 l 22 589 l 22 742 l 221 722 l 201 972 l 363 972 l 342 722 l 541 742 l 541 589 z "},"°":{"ha":528,"x_min":78,"x_max":464,"o":"m 271 607 q 134 663 190 607 q 78 799 78 719 q 134 934 78 879 q 271 989 190 989 q 407 934 351 989 q 464 799 464 879 q 407 663 464 719 q 271 607 351 607 m 271 886 q 209 861 234 886 q 183 799 183 836 q 209 736 183 762 q 271 710 234 710 q 332 736 307 710 q 358 799 358 762 q 333 861 358 836 q 271 886 307 886 z "},"¢":{"ha":799,"x_min":115,"x_max":681,"o":"m 681 140 q 558 103 631 112 l 558 -25 l 449 -25 l 449 100 q 209 202 302 108 q 115 446 115 297 q 206 704 115 604 q 449 821 297 804 l 449 964 l 558 964 l 558 823 q 681 793 633 819 l 681 608 q 558 656 629 648 l 558 267 q 681 313 631 278 l 681 140 m 449 271 l 449 650 q 317 460 317 610 q 449 271 317 309 z "},"£":{"ha":799,"x_min":97,"x_max":755,"o":"m 755 0 l 97 0 l 97 154 q 228 336 228 189 l 228 415 l 111 415 l 111 562 l 228 562 l 228 689 q 311 906 228 823 q 534 989 393 989 q 693 956 621 989 l 693 781 q 551 825 627 825 q 427 669 427 825 l 427 562 l 608 562 l 608 415 l 427 415 l 427 357 q 323 164 427 232 l 755 164 l 755 0 z "},"§":{"ha":674,"x_min":89,"x_max":611,"o":"m 510 294 q 566 176 566 243 q 492 15 566 75 q 298 -45 418 -45 q 102 1 188 -45 l 102 170 q 313 98 224 98 q 399 165 399 98 q 334 239 399 207 q 191 315 238 283 q 117 394 144 347 q 89 496 89 441 q 174 654 89 593 q 114 800 114 714 q 183 953 114 895 q 370 1011 253 1011 q 546 974 464 1011 l 546 804 q 370 869 452 869 q 286 806 286 869 q 314 753 286 775 q 439 688 341 731 q 611 478 611 612 q 510 294 611 365 m 293 586 q 249 511 249 560 q 283 442 249 473 q 404 375 318 412 q 449 458 449 405 q 413 527 449 500 q 293 586 376 553 z "},"•":{"ha":587,"x_min":109,"x_max":482,"o":"m 294 191 q 163 245 218 191 q 109 378 109 300 q 163 509 109 455 q 294 564 217 564 q 427 509 372 564 q 482 378 482 454 q 427 246 482 301 q 294 191 372 191 z "},"¶":{"ha":707,"x_min":62,"x_max":642,"o":"m 642 863 l 562 863 l 562 0 l 444 0 l 444 863 l 364 863 l 364 0 l 244 0 l 244 567 q 114 629 166 572 q 62 772 62 687 q 120 916 62 860 q 264 972 178 972 l 642 972 l 642 863 z "},"ß":{"ha":872,"x_min":90,"x_max":832,"o":"m 370 5 l 370 183 q 489 147 426 147 q 579 183 545 147 q 612 281 612 218 q 552 405 612 359 q 382 454 492 451 l 382 604 q 499 650 457 610 q 541 758 541 691 q 510 848 541 815 q 429 880 480 880 q 304 714 304 880 l 304 0 l 90 0 l 90 711 q 183 954 90 863 q 441 1044 276 1044 q 674 970 589 1044 q 760 779 760 896 q 711 634 760 696 q 586 549 663 572 l 586 546 q 832 275 832 499 q 746 68 832 153 q 514 -17 661 -17 q 370 5 443 -17 z "},"­":{"ha":562,"x_min":97,"x_max":468,"o":"m 468 296 l 97 296 l 97 446 l 468 446 l 468 296 z "},"®":{"ha":1214,"x_min":89,"x_max":1126,"o":"m 606 -17 q 234 123 380 -17 q 89 484 89 264 q 238 844 89 699 q 611 989 388 989 q 980 847 833 989 q 1126 486 1126 706 q 976 127 1126 271 q 606 -17 826 -17 m 608 913 q 300 791 422 913 q 179 486 179 669 q 302 181 179 302 q 608 60 425 60 q 912 181 788 60 q 1036 485 1036 303 q 914 791 1036 669 q 608 913 792 913 m 873 179 l 701 179 l 650 336 q 575 419 623 419 l 525 419 l 525 179 l 382 179 l 382 804 l 599 804 q 850 627 850 804 q 703 461 850 498 l 703 458 q 799 359 764 445 l 873 179 m 525 685 l 525 529 l 600 529 q 694 610 694 529 q 586 685 694 685 l 525 685 z "},"©":{"ha":1214,"x_min":89,"x_max":1126,"o":"m 606 -17 q 234 123 380 -17 q 89 484 89 264 q 238 844 89 699 q 611 989 388 989 q 980 847 833 989 q 1126 486 1126 706 q 976 127 1126 271 q 606 -17 826 -17 m 608 913 q 300 791 422 913 q 179 486 179 669 q 302 181 179 302 q 608 60 425 60 q 912 181 788 60 q 1036 485 1036 303 q 914 791 1036 669 q 608 913 792 913 m 817 200 q 631 154 732 154 q 396 245 489 154 q 302 472 302 336 q 400 723 302 629 q 653 818 497 818 q 815 781 738 818 l 815 621 q 650 672 749 672 q 519 620 572 672 q 467 481 467 568 q 520 347 467 398 q 654 296 573 296 q 817 347 750 296 l 817 200 z "},"™":{"ha":1071,"x_min":52,"x_max":946,"o":"m 946 524 l 844 524 l 844 825 l 842 825 l 733 524 l 642 524 l 543 825 l 539 825 l 539 524 l 439 524 l 439 972 l 586 972 l 692 665 l 694 665 l 808 972 l 946 972 l 946 524 m 395 889 l 273 889 l 273 524 l 168 524 l 168 889 l 52 889 l 52 972 l 395 972 l 395 889 z "},"´":{"ha":421,"x_min":37,"x_max":404,"o":"m 404 1023 l 192 804 l 37 804 l 214 1023 l 404 1023 z "},"¨":{"ha":642,"x_min":58,"x_max":578,"o":"m 473 804 q 399 831 428 804 q 370 897 370 857 q 399 964 370 939 q 473 990 428 990 q 548 964 519 990 q 578 897 578 938 q 549 830 578 857 q 473 804 519 804 m 163 804 q 87 831 117 804 q 58 897 58 858 q 88 964 58 938 q 163 990 118 990 q 238 964 209 990 q 267 897 267 938 q 238 830 267 856 q 163 804 209 804 z "},"≠":{"ha":983,"x_min":161,"x_max":822,"o":"m 822 180 l 458 180 l 364 0 l 199 0 l 293 180 l 161 180 l 161 318 l 366 318 l 447 475 l 161 475 l 161 614 l 519 614 l 618 806 l 783 806 l 685 614 l 822 614 l 822 475 l 612 475 l 530 318 l 822 318 l 822 180 z "},"Æ":{"ha":1299,"x_min":-1,"x_max":1254,"o":"m 1254 0 l 672 0 l 672 216 l 353 216 l 253 0 l -1 0 l 490 972 l 1232 972 l 1232 794 l 890 794 l 890 578 l 1208 578 l 1208 400 l 890 400 l 890 178 l 1254 178 l 1254 0 m 672 385 l 672 794 l 619 794 l 428 385 l 672 385 z "},"Ø":{"ha":1053,"x_min":50,"x_max":1003,"o":"m 236 74 l 139 -41 l 54 29 l 155 149 q 50 473 50 279 q 183 846 50 704 q 538 989 317 989 q 810 908 696 989 l 897 1010 l 982 940 l 890 833 q 1003 493 1003 701 q 870 123 1003 264 q 522 -17 736 -17 q 236 74 359 -17 m 689 766 q 532 818 623 818 q 337 725 409 818 q 265 481 265 633 q 297 310 265 382 l 689 766 m 753 675 l 361 216 q 526 154 429 154 q 717 241 645 154 q 789 479 789 328 q 753 675 789 591 z "},"∞":{"ha":1128,"x_min":47,"x_max":1084,"o":"m 566 297 q 309 132 462 132 q 120 208 193 132 q 47 406 47 283 q 123 596 47 517 q 309 675 198 675 q 566 504 469 675 q 823 668 669 668 q 1012 593 939 668 q 1084 396 1084 517 q 1008 205 1084 284 q 822 126 932 126 q 566 297 665 126 m 494 404 q 328 534 421 534 q 238 497 273 534 q 203 404 203 460 q 238 312 203 348 q 329 275 273 275 q 494 404 421 275 m 637 397 q 804 268 711 268 q 893 304 859 268 q 928 397 928 341 q 893 491 928 454 q 803 528 858 528 q 637 397 712 528 z "},"±":{"ha":982,"x_min":161,"x_max":822,"o":"m 822 471 l 561 471 l 561 208 l 424 208 l 424 471 l 164 471 l 164 608 l 424 608 l 424 873 l 561 873 l 561 608 l 822 608 l 822 471 m 821 0 l 161 0 l 161 138 l 821 138 l 821 0 z "},"≤":{"ha":983,"x_min":161,"x_max":821,"o":"m 810 168 l 175 439 l 175 557 l 810 840 l 810 679 l 357 500 l 357 497 l 810 329 l 810 168 m 821 0 l 161 0 l 161 138 l 821 138 l 821 0 z "},"≥":{"ha":983,"x_min":161,"x_max":821,"o":"m 810 439 l 175 168 l 175 329 l 628 496 l 628 498 l 175 679 l 175 840 l 810 557 l 810 439 m 821 0 l 161 0 l 161 138 l 821 138 l 821 0 z "},"¥":{"ha":799,"x_min":28,"x_max":785,"o":"m 785 972 l 545 538 l 715 538 l 715 410 l 509 410 l 509 306 l 715 306 l 715 178 l 509 178 l 509 0 l 300 0 l 300 178 l 86 178 l 86 306 l 300 306 l 300 410 l 86 410 l 86 538 l 260 538 l 28 972 l 245 972 l 412 586 l 415 586 q 440 647 418 593 l 578 972 l 785 972 z "},"µ":{"ha":851,"x_min":90,"x_max":787,"o":"m 787 0 l 568 0 q 551 104 551 47 l 548 104 q 401 -16 509 -16 q 307 28 336 -16 l 304 28 l 304 -268 l 90 -268 l 90 694 l 304 694 l 304 295 q 420 155 304 155 q 545 327 545 155 l 545 694 l 761 694 l 761 213 q 787 0 761 53 z "},"∂":{"ha":802,"x_min":31,"x_max":779,"o":"m 555 596 l 558 596 q 559 623 559 617 q 395 854 559 854 q 212 807 304 854 l 256 977 q 449 1018 349 1018 q 779 625 779 1018 q 729 319 779 478 q 574 71 679 159 q 322 -17 469 -17 q 108 60 186 -17 q 31 269 31 136 q 129 566 31 441 q 382 692 227 692 q 555 596 496 692 m 533 437 q 427 542 507 542 q 301 460 353 542 q 249 277 249 378 q 346 147 249 147 q 467 228 415 147 q 533 437 518 309 z "},"∑":{"ha":892,"x_min":36,"x_max":861,"o":"m 861 -318 l 36 -318 l 36 -199 l 446 334 l 53 847 l 53 972 l 839 972 l 839 794 l 359 794 l 699 339 l 340 -140 l 861 -140 l 861 -318 z "},"∏":{"ha":1099,"x_min":111,"x_max":1000,"o":"m 1000 -319 l 781 -319 l 781 783 l 330 783 l 330 -319 l 111 -319 l 111 972 l 1000 972 l 1000 -319 z "},"∫":{"ha":800,"x_min":113,"x_max":689,"o":"m 689 864 q 610 880 648 880 q 507 768 507 880 l 507 -66 q 430 -259 507 -186 q 221 -332 353 -332 q 113 -318 157 -332 l 113 -151 q 191 -168 157 -168 q 293 -56 293 -168 l 293 781 q 370 972 293 899 q 581 1044 448 1044 q 689 1031 646 1044 l 689 864 z "},"ª":{"ha":570,"x_min":49,"x_max":501,"o":"m 501 486 l 357 486 l 357 545 l 354 545 q 205 472 295 472 q 93 513 137 472 q 49 621 49 555 q 227 786 49 764 l 357 803 q 262 880 357 880 q 96 828 182 880 l 96 947 q 290 986 180 986 q 501 783 501 986 l 501 486 m 357 668 l 357 715 l 273 704 q 195 639 195 693 q 265 579 195 579 q 329 605 302 579 q 357 668 357 631 z "},"º":{"ha":633,"x_min":47,"x_max":582,"o":"m 311 472 q 117 539 186 472 q 47 728 47 607 q 121 918 47 849 q 319 986 195 986 q 512 917 442 986 q 582 737 582 848 q 510 542 582 612 q 311 472 437 472 m 315 868 q 204 730 204 868 q 315 590 204 590 q 424 732 424 590 q 315 868 424 868 z "},"Ω":{"ha":1063,"x_min":56,"x_max":1007,"o":"m 771 176 l 1006 176 l 1006 0 l 599 0 l 599 176 q 777 532 777 330 q 708 728 777 654 q 535 801 639 801 q 357 728 427 801 q 288 526 288 655 q 463 176 288 336 l 463 0 l 56 0 l 56 176 l 286 176 q 57 562 57 309 q 190 872 57 755 q 531 989 322 989 q 876 871 745 989 q 1007 565 1007 753 q 771 176 1007 308 z "},"æ":{"ha":1150,"x_min":39,"x_max":1112,"o":"m 1112 286 l 660 286 q 851 135 673 135 q 1053 189 960 135 l 1053 36 q 796 -17 947 -17 q 526 104 614 -17 l 524 104 q 278 -17 428 -17 q 102 39 165 -17 q 39 195 39 95 q 104 353 39 294 q 292 422 170 413 l 465 436 q 340 566 465 566 q 107 493 222 566 l 107 653 q 358 711 234 711 q 578 621 517 711 l 581 621 q 802 711 670 711 q 1029 621 947 711 q 1112 374 1112 531 l 1112 286 m 914 418 q 794 567 914 567 q 705 525 743 567 q 660 418 667 483 l 914 418 m 465 281 l 465 311 l 359 302 q 235 214 235 292 q 261 157 235 180 q 330 135 288 135 q 427 175 389 135 q 465 281 465 216 z "},"ø":{"ha":849,"x_min":26,"x_max":818,"o":"m 818 685 l 724 586 q 800 357 800 489 q 700 83 800 181 q 421 -16 600 -16 q 199 43 287 -16 l 107 -53 l 26 20 l 119 117 q 49 346 49 212 q 152 615 49 517 q 432 713 256 713 q 643 657 553 713 l 737 757 l 818 685 m 524 536 q 428 564 486 564 q 253 349 253 564 q 265 267 253 299 l 524 536 m 585 441 l 318 164 q 427 134 359 134 q 597 353 597 134 q 585 441 597 403 z "},"¿":{"ha":608,"x_min":36,"x_max":575,"o":"m 439 414 q 449 375 446 397 q 453 333 453 353 q 447 276 453 302 q 429 228 441 250 q 398 184 416 205 q 355 143 380 163 q 311 103 330 121 q 277 65 291 84 q 257 27 264 47 q 250 -18 250 7 q 258 -57 250 -39 q 279 -87 265 -75 q 313 -108 293 -100 q 357 -115 333 -115 q 467 -93 410 -115 q 575 -26 524 -71 l 575 -231 q 461 -277 523 -262 q 334 -293 399 -293 q 216 -279 271 -293 q 122 -235 162 -265 q 59 -159 81 -205 q 36 -47 36 -113 q 45 27 36 -6 q 73 91 55 61 q 119 148 92 121 q 181 205 146 176 q 223 241 205 224 q 253 275 241 258 q 271 310 264 292 q 277 353 277 329 q 272 386 277 369 q 260 414 268 403 l 439 414 m 340 711 q 430 679 395 711 q 466 599 466 645 q 430 519 466 551 q 340 488 394 488 q 251 519 286 488 q 216 599 216 551 q 250 680 216 648 q 340 711 286 711 z "}," ":{"ha":383,"x_min":0,"x_max":0,"o":""},"¡":{"ha":454,"x_min":103,"x_max":351,"o":"m 228 489 q 138 520 173 489 q 103 599 103 551 q 138 680 103 648 q 228 711 173 711 q 316 679 281 711 q 351 599 351 646 q 316 519 351 550 q 228 489 281 489 m 342 -277 l 117 -277 l 142 395 l 315 395 l 342 -277 z "},"¬":{"ha":982,"x_min":161,"x_max":822,"o":"m 822 180 l 685 180 l 685 444 l 161 444 l 161 582 l 822 582 l 822 180 z "},"√":{"ha":903,"x_min":61,"x_max":811,"o":"m 811 1028 l 534 0 l 401 0 l 184 494 l 61 494 l 61 608 l 298 608 l 463 224 l 677 1028 l 811 1028 z "},"ƒ":{"ha":799,"x_min":53,"x_max":708,"o":"m 708 796 q 618 817 665 817 q 518 724 534 817 l 503 631 l 610 631 l 610 485 l 479 485 l 418 82 q 323 -129 397 -51 q 135 -207 248 -207 q 53 -193 101 -207 l 53 -29 q 115 -43 79 -43 q 220 94 199 -43 l 279 485 l 208 485 l 208 631 l 304 631 l 319 732 q 411 913 336 845 q 600 981 486 981 q 708 965 656 981 l 708 796 z "},"≈":{"ha":983,"x_min":132,"x_max":851,"o":"m 851 676 q 790 496 847 562 q 639 429 734 429 q 464 489 568 429 q 358 532 390 532 q 271 425 275 532 l 132 425 q 192 605 136 540 q 346 671 248 671 q 509 619 423 671 q 631 568 593 568 q 689 598 667 568 q 713 676 711 627 l 851 676 m 851 372 q 790 192 847 258 q 639 125 734 125 q 464 186 570 125 q 358 229 389 229 q 271 119 275 229 l 132 119 q 192 301 136 235 q 346 368 248 368 q 509 317 423 368 q 631 264 597 264 q 689 294 667 264 q 713 372 711 323 l 851 372 z "},"Δ":{"ha":977,"x_min":24,"x_max":935,"o":"m 935 0 l 24 0 l 24 85 l 354 972 l 613 972 l 935 85 l 935 0 m 674 178 l 503 696 q 479 793 484 753 l 474 793 q 452 697 469 749 l 279 178 l 674 178 z "},"«":{"ha":807,"x_min":36,"x_max":771,"o":"m 771 136 l 589 136 l 367 364 l 589 597 l 771 597 l 545 364 l 771 136 m 441 136 l 260 136 l 36 364 l 260 597 l 440 597 l 214 364 l 441 136 z "},"»":{"ha":807,"x_min":36,"x_max":771,"o":"m 771 364 l 549 136 l 367 136 l 593 364 l 368 597 l 549 597 l 771 364 m 441 364 l 218 136 l 36 136 l 264 364 l 37 597 l 218 597 l 441 364 z "},"…":{"ha":1267,"x_min":87,"x_max":1181,"o":"m 1054 -16 q 966 17 1001 -16 q 930 97 930 50 q 966 177 930 146 q 1055 208 1002 208 q 1145 177 1110 208 q 1181 97 1181 145 q 1146 16 1181 47 q 1054 -16 1111 -16 m 632 -16 q 545 17 579 -16 q 510 97 510 50 q 545 177 510 146 q 633 208 580 208 q 723 177 688 208 q 758 97 758 145 q 723 16 758 47 q 632 -16 688 -16 m 210 -16 q 122 17 157 -16 q 87 97 87 50 q 122 177 87 146 q 211 208 157 208 q 301 177 266 208 q 336 97 336 145 q 301 16 336 47 q 210 -16 267 -16 z "},"À":{"ha":977,"x_min":7,"x_max":966,"o":"m 966 0 l 728 0 l 659 216 l 313 216 l 244 0 l 7 0 l 361 972 l 621 972 l 966 0 m 608 385 l 504 711 q 488 799 492 748 l 482 799 q 465 714 479 756 l 359 385 l 608 385 m 621 1063 l 467 1063 l 254 1282 l 445 1282 l 621 1063 z "},"Ã":{"ha":977,"x_min":7,"x_max":966,"o":"m 966 0 l 728 0 l 659 216 l 313 216 l 244 0 l 7 0 l 361 972 l 621 972 l 966 0 m 608 385 l 504 711 q 488 799 492 748 l 482 799 q 465 714 479 756 l 359 385 l 608 385 m 730 1274 q 693 1127 730 1179 q 590 1075 655 1075 q 476 1104 532 1075 q 393 1136 416 1136 q 338 1063 338 1136 l 243 1063 q 280 1209 243 1157 q 385 1261 317 1261 q 498 1228 439 1261 q 580 1198 552 1198 q 633 1274 633 1198 l 730 1274 z "},"Õ":{"ha":1053,"x_min":50,"x_max":1003,"o":"m 522 -17 q 182 119 313 -17 q 50 473 50 255 q 184 846 50 704 q 538 989 317 989 q 874 852 746 989 q 1003 493 1003 716 q 870 123 1003 264 q 522 -17 736 -17 m 532 800 q 349 714 416 800 q 281 485 281 627 q 349 256 281 340 q 526 172 416 172 q 706 254 640 172 q 772 481 772 336 q 708 716 772 632 q 532 800 644 800 m 778 1274 q 740 1127 778 1179 q 637 1075 703 1075 q 524 1104 579 1075 q 440 1136 463 1136 q 386 1063 386 1136 l 290 1063 q 328 1209 290 1157 q 432 1261 365 1261 q 546 1228 487 1261 q 627 1198 600 1198 q 680 1274 680 1198 l 778 1274 z "},"Œ":{"ha":1305,"x_min":50,"x_max":1261,"o":"m 1261 0 l 700 0 q 621 -8 682 0 q 514 -17 559 -17 q 178 121 306 -17 q 50 473 50 258 q 182 847 50 705 q 532 989 313 989 q 634 981 574 989 q 708 972 694 972 l 1239 972 l 1239 794 l 897 794 l 897 575 l 1215 575 l 1215 396 l 897 396 l 897 178 l 1261 178 l 1261 0 m 672 207 l 672 765 q 530 800 614 800 q 349 712 416 800 q 282 482 282 625 q 351 257 282 341 q 528 172 419 172 q 672 207 606 172 z "},"œ":{"ha":1284,"x_min":49,"x_max":1246,"o":"m 1246 286 l 791 286 q 983 135 801 135 q 1183 189 1097 135 l 1183 35 q 949 -17 1087 -17 q 684 111 778 -17 l 681 111 q 404 -16 588 -16 q 147 81 245 -16 q 49 345 49 178 q 149 614 49 515 q 412 713 248 713 q 574 679 503 713 q 679 593 645 646 l 682 593 q 937 711 762 711 q 1164 621 1082 711 q 1246 378 1246 530 l 1246 286 m 1046 418 q 928 567 1046 567 q 836 524 873 567 q 791 418 799 481 l 1046 418 m 428 547 q 309 495 351 547 q 267 347 267 442 q 427 149 267 149 q 582 350 582 149 q 542 495 582 444 q 428 547 501 547 z "},"–":{"ha":694,"x_min":0,"x_max":694,"o":"m 694 296 l 0 296 l 0 446 l 694 446 l 694 296 z "},"—":{"ha":1389,"x_min":0,"x_max":1389,"o":"m 1389 296 l 0 296 l 0 446 l 1389 446 l 1389 296 z "},"“":{"ha":685,"x_min":65,"x_max":608,"o":"m 608 996 l 532 694 l 347 694 l 476 996 l 608 996 m 326 996 l 252 694 l 65 694 l 193 996 l 326 996 z "},"”":{"ha":685,"x_min":77,"x_max":621,"o":"m 621 996 l 492 694 l 358 694 l 435 996 l 621 996 m 339 996 l 208 694 l 77 694 l 154 996 l 339 996 z "},"‘":{"ha":403,"x_min":65,"x_max":326,"o":"m 326 996 l 252 694 l 65 694 l 193 996 l 326 996 z "},"’":{"ha":403,"x_min":77,"x_max":339,"o":"m 339 996 l 208 694 l 77 694 l 154 996 l 339 996 z "},"÷":{"ha":982,"x_min":161,"x_max":822,"o":"m 496 574 q 428 601 456 574 q 400 667 400 628 q 427 737 400 709 q 496 765 454 765 q 563 738 538 765 q 589 668 589 711 q 561 600 589 627 q 496 574 534 574 m 822 329 l 161 329 l 161 467 l 822 467 l 822 329 m 493 32 q 425 58 453 32 q 397 123 397 85 q 424 194 397 165 q 493 222 451 222 q 561 195 535 222 q 586 125 586 168 q 559 58 586 83 q 493 32 532 32 z "},"◊":{"ha":816,"x_min":49,"x_max":765,"o":"m 765 486 l 444 0 l 367 0 l 49 485 l 367 972 l 444 972 l 765 486 m 610 486 l 407 806 l 204 486 l 407 167 l 610 486 z "},"ÿ":{"ha":747,"x_min":-3,"x_max":751,"o":"m 751 694 l 469 -56 q 163 -326 368 -326 q 35 -309 85 -326 l 35 -138 q 127 -163 77 -163 q 243 -85 210 -163 l 279 1 l -3 694 l 235 694 l 364 272 q 383 179 376 233 l 386 179 q 408 271 392 218 l 539 694 l 751 694 m 538 804 q 463 831 492 804 q 434 897 434 857 q 463 964 434 939 q 538 990 492 990 q 613 964 583 990 q 642 897 642 938 q 613 830 642 857 q 538 804 584 804 m 227 804 q 152 831 181 804 q 123 897 123 858 q 153 964 123 938 q 227 990 182 990 q 302 964 273 990 q 331 897 331 938 q 302 830 331 856 q 227 804 273 804 z "},"Ÿ":{"ha":843,"x_min":0,"x_max":844,"o":"m 844 972 l 528 346 l 528 0 l 309 0 l 309 342 l 0 972 l 250 972 l 407 610 q 429 530 411 600 l 432 530 q 453 607 441 579 l 612 972 l 844 972 m 582 1063 q 507 1089 536 1063 q 478 1156 478 1116 q 507 1223 478 1197 q 582 1249 536 1249 q 657 1222 627 1249 q 686 1156 686 1196 q 657 1089 686 1115 q 582 1063 628 1063 m 271 1063 q 196 1089 225 1063 q 167 1156 167 1116 q 197 1222 167 1196 q 271 1249 227 1249 q 346 1222 317 1249 q 375 1156 375 1196 q 346 1088 375 1114 q 271 1063 317 1063 z "},"⁄":{"ha":488,"x_min":-138,"x_max":632,"o":"m 632 972 l 28 0 l -138 0 l 467 972 l 632 972 z "},"€":{"ha":799,"x_min":74,"x_max":742,"o":"m 742 31 q 533 -18 662 -18 q 284 66 380 -18 q 157 307 188 151 l 74 307 l 74 436 l 139 436 q 138 476 138 453 q 140 532 138 488 l 74 532 l 74 659 l 160 659 q 301 902 197 815 q 559 989 405 989 q 742 951 673 989 l 742 775 q 570 835 666 835 q 438 787 495 835 q 358 659 382 739 l 647 659 l 647 532 l 338 532 q 335 476 335 492 q 336 436 335 458 l 647 436 l 647 307 l 357 307 q 559 136 408 136 q 742 197 655 136 l 742 31 z "},"‹":{"ha":478,"x_min":36,"x_max":441,"o":"m 441 136 l 260 136 l 36 364 l 260 597 l 441 597 l 215 364 l 441 136 z "},"›":{"ha":478,"x_min":36,"x_max":441,"o":"m 441 364 l 218 136 l 36 136 l 262 364 l 37 597 l 218 597 l 441 364 z "},"ﬁ":{"ha":926,"x_min":28,"x_max":854,"o":"m 533 863 q 456 882 494 882 q 359 770 359 882 l 359 694 l 517 694 l 517 539 l 359 539 l 359 0 l 144 0 l 144 539 l 28 539 l 28 694 l 144 694 l 144 781 q 221 972 144 899 q 428 1044 297 1044 q 533 1031 491 1044 l 533 863 m 730 804 q 642 837 676 804 q 607 916 607 869 q 642 994 607 964 q 730 1025 676 1025 q 820 994 785 1025 q 854 916 854 964 q 820 836 854 867 q 730 804 786 804 m 836 0 l 623 0 l 623 694 l 836 694 l 836 0 z "},"ﬂ":{"ha":926,"x_min":28,"x_max":836,"o":"m 533 863 q 456 882 494 882 q 359 770 359 882 l 359 694 l 517 694 l 517 539 l 359 539 l 359 0 l 144 0 l 144 539 l 28 539 l 28 694 l 144 694 l 144 781 q 221 972 144 899 q 428 1044 297 1044 q 533 1031 491 1044 l 533 863 m 836 0 l 623 0 l 623 1028 l 836 1028 l 836 0 z "},"‡":{"ha":564,"x_min":22,"x_max":541,"o":"m 541 327 l 339 347 l 363 137 l 201 137 l 224 347 l 22 327 l 22 480 l 204 460 l 227 555 l 204 650 l 22 629 l 22 783 l 224 762 l 201 972 l 363 972 l 339 762 l 541 783 l 541 629 l 359 650 l 337 555 l 359 460 l 541 480 l 541 327 z "},"·":{"ha":376,"x_min":62,"x_max":314,"o":"m 186 330 q 98 363 133 330 q 62 443 62 395 q 99 523 62 492 q 189 554 135 554 q 279 523 244 554 q 314 443 314 491 q 278 362 314 393 q 186 330 243 330 z "},"‚":{"ha":403,"x_min":61,"x_max":323,"o":"m 323 149 l 193 -153 l 61 -153 l 139 149 l 323 149 z "},"„":{"ha":685,"x_min":61,"x_max":606,"o":"m 606 149 l 475 -153 l 343 -153 l 419 149 l 606 149 m 323 149 l 193 -153 l 61 -153 l 139 149 l 323 149 z "},"‰":{"ha":1745,"x_min":61,"x_max":1683,"o":"m 292 479 q 124 545 188 479 q 61 722 61 611 q 129 915 61 844 q 309 986 196 986 q 477 922 416 986 q 538 741 538 857 q 471 550 538 621 q 292 479 404 479 m 304 867 q 205 729 205 867 q 300 599 205 599 q 396 734 396 599 q 304 867 396 867 m 1002 972 l 368 0 l 203 0 l 836 972 l 1002 972 m 1436 -14 q 1269 52 1333 -14 q 1206 229 1206 118 q 1273 422 1206 351 q 1453 493 1341 493 q 1623 429 1562 493 q 1683 249 1683 366 q 1616 58 1683 129 q 1436 -14 1548 -14 m 1449 374 q 1350 236 1350 374 q 1444 106 1350 106 q 1541 241 1541 106 q 1516 339 1541 304 q 1449 374 1490 374 m 897 -14 q 730 52 793 -14 q 667 229 667 118 q 734 422 667 351 q 914 493 802 493 q 1083 429 1023 493 q 1143 249 1143 366 q 1076 58 1143 129 q 897 -14 1009 -14 m 908 374 q 810 236 810 374 q 905 106 810 106 q 1002 241 1002 106 q 976 339 1002 304 q 908 374 950 374 z "},"Â":{"ha":977,"x_min":7,"x_max":966,"o":"m 966 0 l 728 0 l 659 216 l 313 216 l 244 0 l 7 0 l 361 972 l 621 972 l 966 0 m 608 385 l 504 711 q 488 799 492 748 l 482 799 q 465 714 479 756 l 359 385 l 608 385 m 731 1063 l 591 1063 l 484 1190 l 384 1063 l 243 1063 l 403 1283 l 571 1283 l 731 1063 z "},"Ê":{"ha":739,"x_min":111,"x_max":694,"o":"m 694 0 l 111 0 l 111 972 l 672 972 l 672 794 l 330 794 l 330 578 l 648 578 l 648 400 l 330 400 l 330 178 l 694 178 l 694 0 m 632 1063 l 492 1063 l 385 1190 l 285 1063 l 144 1063 l 304 1283 l 472 1283 l 632 1063 z "},"Á":{"ha":977,"x_min":7,"x_max":966,"o":"m 966 0 l 728 0 l 659 216 l 313 216 l 244 0 l 7 0 l 361 972 l 621 972 l 966 0 m 608 385 l 504 711 q 488 799 492 748 l 482 799 q 465 714 479 756 l 359 385 l 608 385 m 703 1282 l 490 1063 l 336 1063 l 512 1282 l 703 1282 z "},"Ë":{"ha":739,"x_min":111,"x_max":694,"o":"m 694 0 l 111 0 l 111 972 l 672 972 l 672 794 l 330 794 l 330 578 l 648 578 l 648 400 l 330 400 l 330 178 l 694 178 l 694 0 m 551 1063 q 476 1089 505 1063 q 447 1156 447 1116 q 476 1223 447 1197 q 551 1249 505 1249 q 626 1222 596 1249 q 655 1156 655 1196 q 626 1089 655 1115 q 551 1063 597 1063 m 240 1063 q 165 1089 194 1063 q 136 1156 136 1116 q 165 1222 136 1196 q 240 1249 195 1249 q 315 1222 286 1249 q 344 1156 344 1196 q 315 1088 344 1114 q 240 1063 286 1063 z "},"È":{"ha":739,"x_min":111,"x_max":694,"o":"m 694 0 l 111 0 l 111 972 l 672 972 l 672 794 l 330 794 l 330 578 l 648 578 l 648 400 l 330 400 l 330 178 l 694 178 l 694 0 m 519 1063 l 366 1063 l 153 1282 l 343 1282 l 519 1063 z "},"Í":{"ha":440,"x_min":30,"x_max":441,"o":"m 412 972 l 412 803 l 330 803 l 330 170 l 412 170 l 412 0 l 30 0 l 30 170 l 111 170 l 111 803 l 30 803 l 30 972 l 412 972 m 441 1282 l 229 1063 l 75 1063 l 251 1282 l 441 1282 z "},"Î":{"ha":440,"x_min":-19,"x_max":469,"o":"m 412 972 l 412 803 l 330 803 l 330 170 l 412 170 l 412 0 l 30 0 l 30 170 l 111 170 l 111 803 l 30 803 l 30 972 l 412 972 m 469 1063 l 328 1063 l 221 1190 l 121 1063 l -19 1063 l 140 1283 l 309 1283 l 469 1063 z "},"Ï":{"ha":440,"x_min":-36,"x_max":484,"o":"m 412 972 l 412 803 l 330 803 l 330 170 l 412 170 l 412 0 l 30 0 l 30 170 l 111 170 l 111 803 l 30 803 l 30 972 l 412 972 m 379 1063 q 304 1089 334 1063 q 275 1156 275 1116 q 304 1223 275 1197 q 379 1249 334 1249 q 454 1222 425 1249 q 484 1156 484 1196 q 454 1089 484 1115 q 379 1063 425 1063 m 68 1063 q -7 1089 22 1063 q -36 1156 -36 1116 q -6 1222 -36 1196 q 68 1249 24 1249 q 143 1222 115 1249 q 172 1156 172 1196 q 143 1088 172 1114 q 68 1063 115 1063 z "},"Ì":{"ha":440,"x_min":-6,"x_max":412,"o":"m 412 972 l 412 803 l 330 803 l 330 170 l 412 170 l 412 0 l 30 0 l 30 170 l 111 170 l 111 803 l 30 803 l 30 972 l 412 972 m 361 1063 l 207 1063 l -6 1282 l 184 1282 l 361 1063 z "},"Ó":{"ha":1053,"x_min":50,"x_max":1003,"o":"m 522 -17 q 182 119 313 -17 q 50 473 50 255 q 184 846 50 704 q 538 989 317 989 q 874 852 746 989 q 1003 493 1003 716 q 870 123 1003 264 q 522 -17 736 -17 m 532 800 q 349 714 416 800 q 281 485 281 627 q 349 256 281 340 q 526 172 416 172 q 706 254 640 172 q 772 481 772 336 q 708 716 772 632 q 532 800 644 800 m 753 1282 l 541 1063 l 386 1063 l 562 1282 l 753 1282 z "},"Ô":{"ha":1053,"x_min":50,"x_max":1003,"o":"m 522 -17 q 182 119 313 -17 q 50 473 50 255 q 184 846 50 704 q 538 989 317 989 q 874 852 746 989 q 1003 493 1003 716 q 870 123 1003 264 q 522 -17 736 -17 m 532 800 q 349 714 416 800 q 281 485 281 627 q 349 256 281 340 q 526 172 416 172 q 706 254 640 172 q 772 481 772 336 q 708 716 772 632 q 532 800 644 800 m 779 1063 l 639 1063 l 532 1190 l 432 1063 l 292 1063 l 451 1283 l 619 1283 l 779 1063 z "},"Ò":{"ha":1053,"x_min":50,"x_max":1003,"o":"m 522 -17 q 182 119 313 -17 q 50 473 50 255 q 184 846 50 704 q 538 989 317 989 q 874 852 746 989 q 1003 493 1003 716 q 870 123 1003 264 q 522 -17 736 -17 m 532 800 q 349 714 416 800 q 281 485 281 627 q 349 256 281 340 q 526 172 416 172 q 706 254 640 172 q 772 481 772 336 q 708 716 772 632 q 532 800 644 800 m 659 1063 l 505 1063 l 292 1282 l 482 1282 l 659 1063 z "},"Ú":{"ha":1004,"x_min":100,"x_max":904,"o":"m 904 421 q 496 -17 904 -17 q 100 411 100 -17 l 100 972 l 319 972 l 319 408 q 504 172 319 172 q 685 400 685 172 l 685 972 l 904 972 l 904 421 m 738 1282 l 526 1063 l 371 1063 l 547 1282 l 738 1282 z "},"Û":{"ha":1004,"x_min":100,"x_max":904,"o":"m 904 421 q 496 -17 904 -17 q 100 411 100 -17 l 100 972 l 319 972 l 319 408 q 504 172 319 172 q 685 400 685 172 l 685 972 l 904 972 l 904 421 m 745 1063 l 605 1063 l 498 1190 l 398 1063 l 258 1063 l 417 1283 l 585 1283 l 745 1063 z "},"Ù":{"ha":1004,"x_min":100,"x_max":904,"o":"m 904 421 q 496 -17 904 -17 q 100 411 100 -17 l 100 972 l 319 972 l 319 408 q 504 172 319 172 q 685 400 685 172 l 685 972 l 904 972 l 904 421 m 624 1063 l 470 1063 l 257 1282 l 448 1282 l 624 1063 z "},"ı":{"ha":395,"x_min":90,"x_max":304,"o":"m 304 0 l 90 0 l 90 694 l 304 694 l 304 0 z "},"ˆ":{"ha":532,"x_min":21,"x_max":509,"o":"m 509 804 l 368 804 l 261 932 l 161 804 l 21 804 l 180 1025 l 349 1025 l 509 804 z "},"˜":{"ha":532,"x_min":24,"x_max":511,"o":"m 511 1015 q 474 868 511 920 q 371 817 436 817 q 257 846 313 817 q 174 878 197 878 q 119 804 119 878 l 24 804 q 61 951 24 899 q 165 1003 98 1003 q 279 970 220 1003 q 361 940 333 940 q 414 1015 414 940 l 511 1015 z "},"ˉ":{"ha":468,"x_min":35,"x_max":432,"o":"m 432 804 l 35 804 l 35 921 l 432 921 l 432 804 z "},"˘":{"ha":481,"x_min":12,"x_max":469,"o":"m 469 1013 q 400 861 461 917 q 239 804 338 804 q 77 862 140 804 q 12 1013 15 920 l 134 1013 q 241 921 145 921 q 347 1013 334 921 l 469 1013 z "},"˙":{"ha":351,"x_min":72,"x_max":279,"o":"m 176 804 q 101 831 131 804 q 72 897 72 859 q 102 963 72 938 q 176 989 132 989 q 251 963 222 989 q 279 897 279 937 q 251 831 279 857 q 176 804 222 804 z "},"˚":{"ha":376,"x_min":26,"x_max":351,"o":"m 186 804 q 72 845 117 804 q 26 950 26 885 q 74 1059 26 1019 q 189 1100 121 1100 q 307 1060 262 1100 q 351 954 351 1019 q 303 846 351 888 q 186 804 254 804 m 186 1017 q 121 953 121 1017 q 186 889 121 889 q 236 908 216 889 q 256 953 256 926 q 236 999 256 981 q 186 1017 217 1017 z "},"¸":{"ha":299,"x_min":35,"x_max":310,"o":"m 35 -306 l 35 -212 q 83 -216 58 -216 q 167 -167 167 -216 q 92 -122 167 -122 q 66 -123 83 -122 l 66 0 l 183 0 l 183 -56 q 310 -168 310 -61 q 94 -309 310 -309 q 35 -306 63 -309 z "},"˝":{"ha":564,"x_min":22,"x_max":590,"o":"m 590 1021 l 419 804 l 277 804 l 421 1021 l 590 1021 m 334 1021 l 165 804 l 22 804 l 165 1021 l 334 1021 z "},"˛":{"ha":370,"x_min":66,"x_max":284,"o":"m 279 -271 q 240 -280 262 -277 q 193 -284 217 -284 q 101 -254 136 -284 q 66 -166 66 -224 q 74 -122 66 -145 q 96 -78 81 -100 q 131 -36 110 -56 q 179 0 152 -16 l 284 0 q 206 -76 231 -39 q 180 -141 180 -113 q 192 -175 180 -163 q 223 -186 203 -186 q 250 -184 236 -186 q 278 -178 264 -182 l 279 -271 z "},"ˇ":{"ha":532,"x_min":22,"x_max":511,"o":"m 511 1025 l 350 804 l 182 804 l 22 1025 l 161 1025 l 267 897 l 372 1025 l 511 1025 z "},"Ł":{"ha":710,"x_min":1,"x_max":690,"o":"m 690 0 l 111 0 l 111 317 l 1 258 l 1 437 l 111 494 l 111 972 l 330 972 l 330 600 l 522 701 l 522 524 l 330 422 l 330 178 l 690 178 l 690 0 z "},"ł":{"ha":436,"x_min":20,"x_max":414,"o":"m 414 511 l 322 453 l 322 0 l 109 0 l 109 321 l 20 264 l 20 439 l 109 494 l 109 1028 l 322 1028 l 322 627 l 414 685 l 414 511 z "},"Š":{"ha":779,"x_min":62,"x_max":730,"o":"m 66 37 l 66 254 q 195 180 125 205 q 334 155 264 155 q 407 163 376 155 q 458 183 437 170 q 489 215 479 197 q 499 254 499 233 q 483 304 499 282 q 438 346 467 327 q 372 382 410 365 q 288 418 333 400 q 118 534 174 466 q 62 700 62 603 q 93 830 62 776 q 176 920 123 885 q 298 972 229 956 q 444 989 367 989 q 579 980 520 989 q 687 951 637 970 l 687 749 q 634 779 663 766 q 574 800 605 791 q 514 812 544 808 q 456 817 484 817 q 389 809 419 817 q 337 789 358 802 q 304 759 316 777 q 293 718 293 741 q 306 674 293 694 q 342 638 319 655 q 400 604 366 621 q 477 570 434 587 q 582 518 535 545 q 661 456 628 490 q 712 377 694 421 q 730 273 730 332 q 699 137 730 192 q 615 47 668 81 q 492 -2 562 13 q 344 -17 422 -17 q 192 -3 264 -17 q 66 37 119 10 m 660 1262 l 498 1042 l 330 1042 l 171 1262 l 310 1262 l 415 1135 l 521 1262 l 660 1262 z "},"š":{"ha":611,"x_min":45,"x_max":578,"o":"m 45 18 l 45 192 q 150 144 98 160 q 250 129 203 129 q 339 144 307 129 q 372 192 372 160 q 357 226 372 212 q 319 250 342 239 q 268 268 296 260 q 214 286 240 276 q 141 320 173 302 q 89 361 110 338 q 56 416 67 385 q 45 490 45 448 q 70 591 45 549 q 138 660 96 633 q 235 699 180 686 q 349 711 290 711 q 442 704 395 711 q 536 684 490 697 l 536 518 q 449 554 495 542 q 357 566 402 566 q 318 562 336 566 q 285 551 299 558 q 262 533 271 544 q 254 507 254 522 q 267 475 254 488 q 298 451 279 461 q 342 434 318 441 q 390 418 366 426 q 467 385 433 403 q 527 344 502 368 q 565 288 551 320 q 578 212 578 256 q 551 107 578 151 q 480 36 524 63 q 377 -4 435 8 q 257 -17 319 -17 q 45 18 142 -17 m 550 1025 l 389 804 l 220 804 l 61 1025 l 200 1025 l 305 897 l 411 1025 l 550 1025 z "},"Ž":{"ha":843,"x_min":28,"x_max":811,"o":"m 811 0 l 28 0 l 28 126 l 526 794 l 64 794 l 64 972 l 810 972 l 810 850 l 322 178 l 811 178 l 811 0 m 671 1260 l 510 1040 l 342 1040 l 182 1260 l 321 1260 l 427 1133 l 532 1260 l 671 1260 z "},"ž":{"ha":665,"x_min":17,"x_max":640,"o":"m 640 0 l 17 0 l 17 89 l 366 536 l 52 536 l 52 694 l 637 694 l 637 589 l 307 158 l 640 158 l 640 0 m 591 1025 l 430 804 l 262 804 l 102 1025 l 241 1025 l 347 897 l 452 1025 l 591 1025 z "},"¦":{"ha":453,"x_min":142,"x_max":313,"o":"m 313 464 l 142 464 l 142 1063 l 313 1063 l 313 464 m 313 -326 l 142 -326 l 142 281 l 313 281 l 313 -326 z "},"Ð":{"ha":1024,"x_min":0,"x_max":974,"o":"m 111 0 l 111 397 l 0 397 l 0 578 l 111 578 l 111 972 l 456 972 q 974 498 974 972 q 832 136 974 271 q 456 0 691 0 l 111 0 m 330 794 l 330 578 l 514 578 l 514 397 l 330 397 l 330 178 l 439 178 q 662 263 581 178 q 743 496 743 349 q 663 714 743 635 q 437 794 583 794 l 330 794 z "},"ð":{"ha":824,"x_min":49,"x_max":775,"o":"m 513 654 l 515 656 q 383 817 458 755 l 186 720 l 131 815 l 294 893 q 111 1028 188 978 l 350 1028 q 439 962 357 1024 l 624 1053 l 676 960 l 530 889 q 775 382 775 692 q 673 94 775 205 q 406 -17 572 -17 q 143 81 237 -17 q 49 349 49 179 q 139 605 49 505 q 374 705 229 705 q 513 654 453 705 m 415 547 q 306 494 345 547 q 267 349 267 441 q 305 200 267 254 q 412 147 344 147 q 518 202 479 147 q 557 353 557 258 q 415 547 557 547 z "},"Ý":{"ha":843,"x_min":0,"x_max":844,"o":"m 844 972 l 528 346 l 528 0 l 309 0 l 309 342 l 0 972 l 250 972 l 407 610 q 429 530 411 600 l 432 530 q 453 607 441 579 l 612 972 l 844 972 m 612 1259 l 400 1040 l 245 1040 l 422 1259 l 612 1259 z "},"ý":{"ha":747,"x_min":-3,"x_max":751,"o":"m 751 694 l 469 -56 q 163 -326 368 -326 q 35 -309 85 -326 l 35 -138 q 127 -163 77 -163 q 243 -85 210 -163 l 279 1 l -3 694 l 235 694 l 364 272 q 383 179 376 233 l 386 179 q 408 271 392 218 l 539 694 l 751 694 m 566 1023 l 353 804 l 199 804 l 375 1023 l 566 1023 z "},"Þ":{"ha":853,"x_min":111,"x_max":822,"o":"m 330 191 l 330 0 l 111 0 l 111 972 l 330 972 l 330 829 l 454 829 q 822 519 822 829 q 716 282 822 373 q 435 191 611 191 l 330 191 m 330 661 l 330 358 l 416 358 q 591 511 591 358 q 416 661 591 661 l 330 661 z "},"þ":{"ha":861,"x_min":90,"x_max":812,"o":"m 307 81 l 304 81 l 304 -319 l 90 -319 l 90 1028 l 304 1028 l 304 590 l 307 590 q 530 711 387 711 q 739 619 665 711 q 812 367 812 526 q 727 88 812 193 q 498 -17 641 -17 q 307 81 373 -17 m 301 366 l 301 310 q 339 193 301 238 q 439 147 377 147 q 552 204 512 147 q 593 364 593 260 q 450 547 593 547 q 343 497 385 547 q 301 366 301 448 z "},"−":{"ha":982,"x_min":161,"x_max":822,"o":"m 822 329 l 161 329 l 161 467 l 822 467 l 822 329 z "},"×":{"ha":982,"x_min":164,"x_max":821,"o":"m 821 168 l 722 71 l 493 301 l 262 71 l 164 170 l 395 397 l 164 628 l 260 726 l 493 496 l 725 726 l 819 624 l 590 397 l 821 168 z "},"½":{"ha":1341,"x_min":66,"x_max":1250,"o":"m 458 396 l 77 396 l 77 513 l 196 513 l 196 836 l 66 808 l 66 930 l 342 986 l 342 513 l 458 513 l 458 396 m 1021 972 l 417 0 l 252 0 l 856 972 l 1021 972 m 1250 0 l 840 0 l 840 106 l 1008 265 q 1073 340 1061 315 q 1086 395 1086 365 q 1066 443 1086 424 q 1015 461 1047 461 q 872 391 949 461 l 872 537 q 1042 590 952 590 q 1188 544 1134 590 q 1242 415 1242 497 q 1216 319 1242 368 q 1095 186 1191 271 l 1023 123 l 1023 121 l 1250 121 l 1250 0 z "},"¼":{"ha":1322,"x_min":66,"x_max":1251,"o":"m 458 396 l 77 396 l 77 513 l 196 513 l 196 836 l 66 808 l 66 930 l 342 986 l 342 513 l 458 513 l 458 396 m 1021 972 l 416 0 l 251 0 l 855 972 l 1021 972 m 1251 119 l 1177 119 l 1177 0 l 1032 0 l 1032 119 l 764 119 l 764 215 l 1002 576 l 1177 576 l 1177 224 l 1251 224 l 1251 119 m 1035 460 l 1029 460 q 1003 408 1020 435 l 889 224 l 1032 224 l 1032 403 q 1035 460 1032 435 z "},"¾":{"ha":1360,"x_min":89,"x_max":1283,"o":"m 89 418 l 89 541 q 239 494 161 494 q 340 564 340 494 q 224 633 340 633 l 144 633 l 144 746 l 221 746 q 322 811 322 746 q 241 872 322 872 q 107 828 169 872 l 107 947 q 269 986 174 986 q 413 945 360 986 q 465 836 465 904 q 368 704 465 736 l 368 701 q 485 567 485 673 q 418 433 485 484 q 244 382 352 382 q 89 418 154 382 m 1061 972 l 457 0 l 292 0 l 896 972 l 1061 972 m 1283 119 l 1208 119 l 1208 0 l 1064 0 l 1064 119 l 796 119 l 796 215 l 1034 576 l 1208 576 l 1208 224 l 1283 224 l 1283 119 m 1067 460 l 1061 460 q 1035 408 1052 435 l 921 224 l 1064 224 l 1064 403 q 1067 460 1064 435 z "},"₣":{"ha":722,"x_min":0,"x_max":673,"o":"m 673 794 l 330 794 l 330 555 l 646 555 l 646 378 l 330 378 l 330 267 l 514 267 l 514 127 l 330 127 l 330 0 l 111 0 l 111 127 l 0 127 l 0 267 l 111 267 l 111 972 l 673 972 l 673 794 z "},"Ğ":{"ha":987,"x_min":50,"x_max":909,"o":"m 909 65 q 555 -17 767 -17 q 185 113 321 -17 q 50 471 50 243 q 198 844 50 700 q 591 989 346 989 q 864 946 746 989 l 864 741 q 589 806 751 806 q 367 717 452 806 q 281 481 281 629 q 358 249 281 331 q 566 167 435 167 q 690 189 644 167 l 690 379 l 496 379 l 496 554 l 909 554 l 909 65 m 775 1271 q 706 1119 767 1175 q 545 1063 644 1063 q 383 1121 446 1063 q 318 1271 321 1179 l 439 1271 q 547 1179 451 1179 q 653 1271 640 1179 l 775 1271 z "},"ğ":{"ha":860,"x_min":49,"x_max":771,"o":"m 771 79 q 659 -220 771 -114 q 335 -326 547 -326 q 113 -286 195 -326 l 113 -106 q 329 -168 220 -168 q 497 -111 437 -168 q 557 45 557 -54 l 557 100 l 554 100 q 338 -17 481 -17 q 127 77 205 -17 q 49 328 49 170 q 136 608 49 504 q 364 711 222 711 q 554 614 491 711 l 557 614 l 557 694 l 771 694 l 771 79 m 559 334 l 559 389 q 520 501 559 454 q 419 547 481 547 q 307 492 348 547 q 267 335 267 436 q 305 198 267 248 q 411 147 344 147 q 518 198 477 147 q 559 334 559 250 m 659 1013 q 589 861 650 917 q 428 804 528 804 q 267 862 329 804 q 201 1013 204 920 l 323 1013 q 431 921 334 921 q 536 1013 524 921 l 659 1013 z "},"İ":{"ha":440,"x_min":30,"x_max":412,"o":"m 412 972 l 412 803 l 330 803 l 330 170 l 412 170 l 412 0 l 30 0 l 30 170 l 111 170 l 111 803 l 30 803 l 30 972 l 412 972 m 220 1063 q 145 1090 175 1063 q 116 1156 116 1117 q 146 1222 116 1196 q 220 1247 176 1247 q 295 1221 266 1247 q 323 1156 323 1196 q 295 1089 323 1116 q 220 1063 266 1063 z "},"Ş":{"ha":779,"x_min":62,"x_max":730,"o":"m 66 37 l 66 254 q 195 180 125 205 q 334 155 264 155 q 407 163 376 155 q 458 183 437 170 q 489 215 479 197 q 499 254 499 233 q 483 304 499 282 q 438 346 467 327 q 372 382 410 365 q 288 418 333 400 q 118 534 174 466 q 62 700 62 603 q 93 830 62 776 q 176 920 123 885 q 298 972 229 956 q 444 989 367 989 q 579 980 520 989 q 687 951 637 970 l 687 749 q 634 779 663 766 q 574 800 605 791 q 514 812 544 808 q 456 817 484 817 q 389 809 419 817 q 337 789 358 802 q 304 759 316 777 q 293 718 293 741 q 306 674 293 694 q 342 638 319 655 q 400 604 366 621 q 477 570 434 587 q 582 518 535 545 q 661 456 628 490 q 712 377 694 421 q 730 273 730 332 q 699 137 730 192 q 615 47 668 81 q 492 -2 562 13 q 344 -17 422 -17 q 192 -3 264 -17 q 66 37 119 10 m 283 -306 l 283 -212 q 332 -216 307 -216 q 415 -167 415 -216 q 340 -122 415 -122 q 315 -123 331 -122 l 315 0 l 431 0 l 431 -56 q 558 -168 558 -61 q 342 -309 558 -309 q 283 -306 311 -309 z "},"ş":{"ha":611,"x_min":45,"x_max":578,"o":"m 45 18 l 45 192 q 150 144 98 160 q 250 129 203 129 q 339 144 307 129 q 372 192 372 160 q 357 226 372 212 q 319 250 342 239 q 268 268 296 260 q 214 286 240 276 q 141 320 173 302 q 89 361 110 338 q 56 416 67 385 q 45 490 45 448 q 70 591 45 549 q 138 660 96 633 q 235 699 180 686 q 349 711 290 711 q 442 704 395 711 q 536 684 490 697 l 536 518 q 449 554 495 542 q 357 566 402 566 q 318 562 336 566 q 285 551 299 558 q 262 533 271 544 q 254 507 254 522 q 267 475 254 488 q 298 451 279 461 q 342 434 318 441 q 390 418 366 426 q 467 385 433 403 q 527 344 502 368 q 565 288 551 320 q 578 212 578 256 q 551 107 578 151 q 480 36 524 63 q 377 -4 435 8 q 257 -17 319 -17 q 45 18 142 -17 m 189 -306 l 189 -212 q 238 -216 213 -216 q 321 -167 321 -216 q 246 -122 321 -122 q 221 -123 237 -122 l 221 0 l 338 0 l 338 -56 q 465 -168 465 -61 q 249 -309 465 -309 q 189 -306 218 -309 z "},"Ć":{"ha":867,"x_min":50,"x_max":808,"o":"m 808 35 q 530 -17 702 -17 q 178 115 307 -17 q 50 465 50 246 q 194 844 50 699 q 568 989 338 989 q 808 953 711 989 l 808 742 q 586 800 711 800 q 365 714 449 800 q 281 481 281 628 q 360 256 281 340 q 574 172 439 172 q 808 235 702 172 l 808 35 m 786 1282 l 574 1063 l 419 1063 l 595 1282 l 786 1282 z "},"ć":{"ha":667,"x_min":49,"x_max":628,"o":"m 616 25 q 407 -17 544 -17 q 148 80 247 -17 q 49 330 49 177 q 155 609 49 507 q 439 711 261 711 q 616 679 562 711 l 616 497 q 467 547 549 547 q 320 493 374 547 q 267 345 267 439 q 318 200 267 252 q 460 147 370 147 q 616 197 540 147 l 616 25 m 628 1023 l 416 804 l 261 804 l 437 1023 l 628 1023 z "},"Č":{"ha":867,"x_min":50,"x_max":808,"o":"m 808 35 q 530 -17 702 -17 q 178 115 307 -17 q 50 465 50 246 q 194 844 50 699 q 568 989 338 989 q 808 953 711 989 l 808 742 q 586 800 711 800 q 365 714 449 800 q 281 481 281 628 q 360 256 281 340 q 574 172 439 172 q 808 235 702 172 l 808 35 m 789 1283 l 627 1063 l 459 1063 l 300 1283 l 439 1283 l 544 1156 l 650 1283 l 789 1283 z "},"č":{"ha":667,"x_min":49,"x_max":644,"o":"m 616 25 q 407 -17 544 -17 q 148 80 247 -17 q 49 330 49 177 q 155 609 49 507 q 439 711 261 711 q 616 679 562 711 l 616 497 q 467 547 549 547 q 320 493 374 547 q 267 345 267 439 q 318 200 267 252 q 460 147 370 147 q 616 197 540 147 l 616 25 m 644 1025 l 483 804 l 315 804 l 155 1025 l 294 1025 l 399 897 l 505 1025 l 644 1025 z "},"đ":{"ha":878,"x_min":49,"x_max":867,"o":"m 867 794 l 770 794 l 770 0 l 555 0 l 555 96 l 553 96 q 338 -17 479 -17 q 128 75 208 -17 q 49 332 49 167 q 136 608 49 504 q 366 711 224 711 q 553 615 500 711 l 555 615 l 555 794 l 332 794 l 332 933 l 555 933 l 555 1028 l 770 1028 l 770 933 l 867 933 l 867 794 m 559 338 l 559 390 q 520 503 559 458 q 418 547 481 547 q 307 491 347 547 q 267 338 267 435 q 305 197 267 246 q 412 147 344 147 q 518 199 477 147 q 559 338 559 252 z "},"¯":{"ha":576,"x_min":0,"x_max":576,"o":"m 576 947 l 0 947 l 0 1028 l 576 1028 l 576 947 z "},"∙":{"ha":376,"x_min":62,"x_max":314,"o":"m 186 330 q 98 363 133 330 q 62 443 62 395 q 99 523 62 492 q 189 554 135 554 q 279 523 244 554 q 314 443 314 491 q 278 362 314 393 q 186 330 243 330 z "},"Ă":{"ha":977,"x_min":7,"x_max":966,"o":"m 966 0 l 728 0 l 659 216 l 313 216 l 244 0 l 7 0 l 361 972 l 621 972 l 966 0 m 608 385 l 504 711 q 488 799 492 748 l 482 799 q 465 714 479 756 l 359 385 l 608 385 m 717 1271 q 647 1119 709 1175 q 486 1063 586 1063 q 325 1121 387 1063 q 260 1271 262 1179 l 381 1271 q 489 1179 393 1179 q 595 1271 582 1179 l 717 1271 z "},"ă":{"ha":747,"x_min":39,"x_max":668,"o":"m 668 0 l 465 0 l 465 100 l 463 100 q 256 -17 393 -17 q 97 40 155 -17 q 39 193 39 98 q 278 427 39 395 l 467 452 q 343 566 467 566 q 107 492 219 566 l 107 653 q 230 694 152 676 q 371 711 307 711 q 668 415 668 711 l 668 0 m 467 282 l 467 329 l 340 313 q 236 218 236 299 q 261 158 236 182 q 330 135 287 135 q 429 177 391 135 q 467 282 467 218 m 616 1013 q 546 861 608 917 q 385 804 485 804 q 224 862 286 804 q 159 1013 161 920 l 280 1013 q 388 921 292 921 q 494 1013 481 921 l 616 1013 z "},"Ą":{"ha":977,"x_min":7,"x_max":966,"o":"m 966 0 l 728 0 l 659 216 l 313 216 l 244 0 l 7 0 l 361 972 l 621 972 l 966 0 m 608 385 l 504 711 q 488 799 492 748 l 482 799 q 465 714 479 756 l 359 385 l 608 385 m 828 -271 q 789 -280 812 -277 q 743 -284 766 -284 q 650 -254 685 -284 q 616 -166 616 -224 q 623 -122 616 -145 q 645 -78 631 -100 q 680 -36 659 -56 q 728 0 701 -16 l 833 0 q 755 -76 781 -39 q 730 -141 730 -113 q 741 -175 730 -163 q 772 -186 753 -186 q 800 -184 785 -186 q 827 -178 814 -182 l 828 -271 z "},"ą":{"ha":747,"x_min":39,"x_max":668,"o":"m 668 0 l 465 0 l 465 100 l 463 100 q 256 -17 393 -17 q 97 40 155 -17 q 39 193 39 98 q 278 427 39 395 l 467 452 q 343 566 467 566 q 107 492 219 566 l 107 653 q 230 694 152 676 q 371 711 307 711 q 668 415 668 711 l 668 0 m 467 282 l 467 329 l 340 313 q 236 218 236 299 q 261 158 236 182 q 330 135 287 135 q 429 177 391 135 q 467 282 467 218 m 566 -271 q 527 -280 549 -277 q 480 -284 504 -284 q 388 -254 422 -284 q 353 -166 353 -224 q 361 -122 353 -145 q 382 -78 368 -100 q 418 -36 397 -56 q 466 0 439 -16 l 571 0 q 493 -76 518 -39 q 467 -141 467 -113 q 479 -175 467 -163 q 510 -186 490 -186 q 537 -184 523 -186 q 565 -178 551 -182 l 566 -271 z "},"Ď":{"ha":1024,"x_min":111,"x_max":974,"o":"m 111 0 l 111 972 l 456 972 q 974 498 974 972 q 832 136 974 271 q 456 0 691 0 l 111 0 m 330 794 l 330 178 l 439 178 q 662 263 581 178 q 743 496 743 349 q 663 714 743 635 q 437 794 583 794 l 330 794 m 730 1283 l 569 1063 l 401 1063 l 241 1283 l 380 1283 l 486 1156 l 591 1283 l 730 1283 z "},"ď":{"ha":1029,"x_min":49,"x_max":1072,"o":"m 770 0 l 555 0 l 555 96 l 553 96 q 338 -17 479 -17 q 128 75 208 -17 q 49 332 49 167 q 136 608 49 504 q 366 711 224 711 q 553 615 500 711 l 555 615 l 555 1028 l 770 1028 l 770 0 m 559 338 l 559 390 q 520 503 559 458 q 418 547 481 547 q 307 491 347 547 q 267 338 267 435 q 305 197 267 246 q 412 147 344 147 q 518 199 477 147 q 559 338 559 252 m 1072 1028 l 958 789 l 826 789 l 887 1028 l 1072 1028 z "},"Đ":{"ha":1024,"x_min":0,"x_max":974,"o":"m 111 0 l 111 397 l 0 397 l 0 578 l 111 578 l 111 972 l 456 972 q 974 498 974 972 q 832 136 974 271 q 456 0 691 0 l 111 0 m 330 794 l 330 578 l 514 578 l 514 397 l 330 397 l 330 178 l 439 178 q 662 263 581 178 q 743 496 743 349 q 663 714 743 635 q 437 794 583 794 l 330 794 z "},"Ę":{"ha":739,"x_min":111,"x_max":694,"o":"m 694 0 l 111 0 l 111 972 l 672 972 l 672 794 l 330 794 l 330 578 l 648 578 l 648 400 l 330 400 l 330 178 l 694 178 l 694 0 m 624 -271 q 585 -280 608 -277 q 538 -284 562 -284 q 446 -254 481 -284 q 412 -166 412 -224 q 419 -122 412 -145 q 441 -78 427 -100 q 476 -36 455 -56 q 524 0 497 -16 l 629 0 q 551 -76 576 -39 q 526 -141 526 -113 q 537 -175 526 -163 q 568 -186 549 -186 q 595 -184 581 -186 q 623 -178 610 -182 l 624 -271 z "},"ę":{"ha":751,"x_min":49,"x_max":714,"o":"m 714 286 l 261 286 q 452 135 272 135 q 653 189 566 135 l 653 35 q 403 -17 557 -17 q 142 76 235 -17 q 49 336 49 170 q 149 610 49 509 q 396 711 250 711 q 631 621 548 711 q 714 376 714 531 l 714 286 m 515 418 q 395 567 515 567 q 306 524 343 567 q 260 418 268 481 l 515 418 m 548 -271 q 509 -280 532 -277 q 463 -284 486 -284 q 370 -254 405 -284 q 336 -166 336 -224 q 343 -122 336 -145 q 365 -78 351 -100 q 400 -36 379 -56 q 448 0 421 -16 l 553 0 q 475 -76 500 -39 q 450 -141 450 -113 q 461 -175 450 -163 q 492 -186 473 -186 q 519 -184 505 -186 q 547 -178 534 -182 l 548 -271 z "},"Ě":{"ha":739,"x_min":111,"x_max":694,"o":"m 694 0 l 111 0 l 111 972 l 672 972 l 672 794 l 330 794 l 330 578 l 648 578 l 648 400 l 330 400 l 330 178 l 694 178 l 694 0 m 647 1283 l 486 1063 l 317 1063 l 158 1283 l 297 1283 l 402 1156 l 508 1283 l 647 1283 z "},"ě":{"ha":751,"x_min":49,"x_max":714,"o":"m 714 286 l 261 286 q 452 135 272 135 q 653 189 566 135 l 653 35 q 403 -17 557 -17 q 142 76 235 -17 q 49 336 49 170 q 149 610 49 509 q 396 711 250 711 q 631 621 548 711 q 714 376 714 531 l 714 286 m 515 418 q 395 567 515 567 q 306 524 343 567 q 260 418 268 481 l 515 418 m 634 1025 l 473 804 l 304 804 l 145 1025 l 284 1025 l 389 897 l 495 1025 l 634 1025 z "},"Ĺ":{"ha":710,"x_min":111,"x_max":690,"o":"m 690 0 l 111 0 l 111 972 l 330 972 l 330 178 l 690 178 l 690 0 m 612 1282 l 400 1063 l 245 1063 l 422 1282 l 612 1282 z "},"ĺ":{"ha":395,"x_min":75,"x_max":442,"o":"m 304 0 l 90 0 l 90 1028 l 304 1028 l 304 0 m 442 1337 l 230 1118 l 75 1118 l 252 1337 l 442 1337 z "},"Ľ":{"ha":710,"x_min":111,"x_max":715,"o":"m 690 0 l 111 0 l 111 972 l 330 972 l 330 178 l 690 178 l 690 0 m 715 974 l 601 735 l 469 735 l 530 974 l 715 974 z "},"ľ":{"ha":506,"x_min":90,"x_max":622,"o":"m 304 0 l 90 0 l 90 1028 l 304 1028 l 304 0 m 622 1028 l 508 789 l 376 789 l 437 1028 l 622 1028 z "},"Ŀ":{"ha":710,"x_min":111,"x_max":690,"o":"m 690 0 l 111 0 l 111 972 l 330 972 l 330 178 l 690 178 l 690 0 m 561 441 q 486 469 515 441 q 456 534 456 496 q 486 601 456 575 q 561 626 516 626 q 635 600 606 626 q 664 534 664 574 q 635 468 664 494 q 561 441 606 441 z "},"ŀ":{"ha":602,"x_min":90,"x_max":602,"o":"m 304 0 l 90 0 l 90 1028 l 304 1028 l 304 0 m 498 400 q 424 427 453 400 q 394 493 394 454 q 424 559 394 534 q 498 585 454 585 q 573 559 544 585 q 602 493 602 533 q 573 427 602 453 q 498 400 544 400 z "},"Ń":{"ha":1097,"x_min":111,"x_max":986,"o":"m 986 0 l 765 0 l 364 611 q 315 692 329 665 l 313 692 q 318 534 318 640 l 318 0 l 111 0 l 111 972 l 347 972 l 733 380 q 782 301 760 340 l 785 301 q 779 435 779 335 l 779 972 l 986 972 l 986 0 m 775 1282 l 563 1063 l 408 1063 l 585 1282 l 775 1282 z "},"ń":{"ha":840,"x_min":90,"x_max":761,"o":"m 761 0 l 547 0 l 547 386 q 432 547 547 547 q 340 505 376 547 q 304 396 304 462 l 304 0 l 90 0 l 90 694 l 304 694 l 304 585 l 307 585 q 530 711 384 711 q 761 425 761 711 l 761 0 m 659 1023 l 447 804 l 292 804 l 469 1023 l 659 1023 z "},"Ň":{"ha":1097,"x_min":111,"x_max":986,"o":"m 986 0 l 765 0 l 364 611 q 315 692 329 665 l 313 692 q 318 534 318 640 l 318 0 l 111 0 l 111 972 l 347 972 l 733 380 q 782 301 760 340 l 785 301 q 779 435 779 335 l 779 972 l 986 972 l 986 0 m 793 1283 l 632 1063 l 464 1063 l 304 1283 l 444 1283 l 549 1156 l 654 1283 l 793 1283 z "},"ň":{"ha":840,"x_min":90,"x_max":761,"o":"m 761 0 l 547 0 l 547 386 q 432 547 547 547 q 340 505 376 547 q 304 396 304 462 l 304 0 l 90 0 l 90 694 l 304 694 l 304 585 l 307 585 q 530 711 384 711 q 761 425 761 711 l 761 0 m 679 1025 l 517 804 l 349 804 l 190 1025 l 329 1025 l 434 897 l 540 1025 l 679 1025 z "},"Ő":{"ha":1053,"x_min":50,"x_max":1003,"o":"m 522 -17 q 182 119 313 -17 q 50 473 50 255 q 184 846 50 704 q 538 989 317 989 q 874 852 746 989 q 1003 493 1003 716 q 870 123 1003 264 q 522 -17 736 -17 m 532 800 q 349 714 416 800 q 281 485 281 627 q 349 256 281 340 q 526 172 416 172 q 706 254 640 172 q 772 481 772 336 q 708 716 772 632 q 532 800 644 800 m 866 1279 l 695 1063 l 553 1063 l 697 1279 l 866 1279 m 610 1279 l 441 1063 l 298 1063 l 441 1279 l 610 1279 z "},"ő":{"ha":849,"x_min":49,"x_max":800,"o":"m 421 -17 q 148 80 248 -17 q 49 345 49 178 q 152 614 49 517 q 431 711 255 711 q 702 614 604 711 q 800 357 800 517 q 699 83 800 184 q 421 -17 597 -17 m 427 547 q 309 495 351 547 q 267 347 267 443 q 428 147 267 147 q 582 353 582 147 q 427 547 582 547 m 750 1021 l 579 804 l 437 804 l 581 1021 l 750 1021 m 494 1021 l 326 804 l 182 804 l 326 1021 l 494 1021 z "},"Ŕ":{"ha":907,"x_min":111,"x_max":927,"o":"m 927 0 l 675 0 l 524 250 q 492 301 507 279 q 460 339 476 323 q 427 364 444 355 q 389 372 410 372 l 330 372 l 330 0 l 111 0 l 111 972 l 458 972 q 812 708 812 972 q 797 614 812 657 q 753 536 781 571 q 684 477 724 502 q 594 437 644 452 l 594 435 q 636 413 616 428 q 675 377 656 397 q 712 333 694 357 q 743 288 729 310 l 927 0 m 330 808 l 330 538 l 425 538 q 538 578 496 538 q 582 681 582 620 q 429 808 582 808 l 330 808 m 664 1282 l 452 1063 l 297 1063 l 473 1282 l 664 1282 z "},"ŕ":{"ha":553,"x_min":90,"x_max":543,"o":"m 543 501 q 453 522 505 522 q 344 471 383 522 q 304 332 304 420 l 304 0 l 90 0 l 90 694 l 304 694 l 304 566 l 307 566 q 490 707 358 707 q 543 699 524 707 l 543 501 m 524 1023 l 311 804 l 157 804 l 333 1023 l 524 1023 z "},"Ř":{"ha":907,"x_min":111,"x_max":927,"o":"m 927 0 l 675 0 l 524 250 q 492 301 507 279 q 460 339 476 323 q 427 364 444 355 q 389 372 410 372 l 330 372 l 330 0 l 111 0 l 111 972 l 458 972 q 812 708 812 972 q 797 614 812 657 q 753 536 781 571 q 684 477 724 502 q 594 437 644 452 l 594 435 q 636 413 616 428 q 675 377 656 397 q 712 333 694 357 q 743 288 729 310 l 927 0 m 330 808 l 330 538 l 425 538 q 538 578 496 538 q 582 681 582 620 q 429 808 582 808 l 330 808 m 676 1283 l 515 1063 l 347 1063 l 187 1283 l 326 1283 l 431 1156 l 537 1283 l 676 1283 z "},"ř":{"ha":553,"x_min":46,"x_max":543,"o":"m 543 501 q 453 522 505 522 q 344 471 383 522 q 304 332 304 420 l 304 0 l 90 0 l 90 694 l 304 694 l 304 566 l 307 566 q 490 707 358 707 q 543 699 524 707 l 543 501 m 535 1025 l 374 804 l 205 804 l 46 1025 l 185 1025 l 290 897 l 396 1025 l 535 1025 z "},"Ś":{"ha":779,"x_min":62,"x_max":730,"o":"m 66 37 l 66 254 q 195 180 125 205 q 334 155 264 155 q 407 163 376 155 q 458 183 437 170 q 489 215 479 197 q 499 254 499 233 q 483 304 499 282 q 438 346 467 327 q 372 382 410 365 q 288 418 333 400 q 118 534 174 466 q 62 700 62 603 q 93 830 62 776 q 176 920 123 885 q 298 972 229 956 q 444 989 367 989 q 579 980 520 989 q 687 951 637 970 l 687 749 q 634 779 663 766 q 574 800 605 791 q 514 812 544 808 q 456 817 484 817 q 389 809 419 817 q 337 789 358 802 q 304 759 316 777 q 293 718 293 741 q 306 674 293 694 q 342 638 319 655 q 400 604 366 621 q 477 570 434 587 q 582 518 535 545 q 661 456 628 490 q 712 377 694 421 q 730 273 730 332 q 699 137 730 192 q 615 47 668 81 q 492 -2 562 13 q 344 -17 422 -17 q 192 -3 264 -17 q 66 37 119 10 m 596 1282 l 384 1063 l 229 1063 l 406 1282 l 596 1282 z "},"ś":{"ha":611,"x_min":45,"x_max":578,"o":"m 45 18 l 45 192 q 150 144 98 160 q 250 129 203 129 q 339 144 307 129 q 372 192 372 160 q 357 226 372 212 q 319 250 342 239 q 268 268 296 260 q 214 286 240 276 q 141 320 173 302 q 89 361 110 338 q 56 416 67 385 q 45 490 45 448 q 70 591 45 549 q 138 660 96 633 q 235 699 180 686 q 349 711 290 711 q 442 704 395 711 q 536 684 490 697 l 536 518 q 449 554 495 542 q 357 566 402 566 q 318 562 336 566 q 285 551 299 558 q 262 533 271 544 q 254 507 254 522 q 267 475 254 488 q 298 451 279 461 q 342 434 318 441 q 390 418 366 426 q 467 385 433 403 q 527 344 502 368 q 565 288 551 320 q 578 212 578 256 q 551 107 578 151 q 480 36 524 63 q 377 -4 435 8 q 257 -17 319 -17 q 45 18 142 -17 m 538 1023 l 326 804 l 171 804 l 347 1023 l 538 1023 z "},"Ţ":{"ha":814,"x_min":21,"x_max":794,"o":"m 794 794 l 517 794 l 517 0 l 297 0 l 297 794 l 21 794 l 21 972 l 794 972 l 794 794 m 289 -306 l 289 -212 q 338 -216 313 -216 q 421 -167 421 -216 q 346 -122 421 -122 q 321 -123 337 -122 l 321 0 l 437 0 l 437 -56 q 564 -168 564 -61 q 349 -309 564 -309 q 289 -306 317 -309 z "},"ţ":{"ha":541,"x_min":28,"x_max":510,"o":"m 510 8 q 367 -17 463 -17 q 140 218 140 -17 l 140 536 l 28 536 l 28 694 l 140 694 l 140 844 l 354 905 l 354 694 l 510 694 l 510 536 l 354 536 l 354 256 q 440 147 354 147 q 510 167 474 147 l 510 8 m 229 -306 l 229 -212 q 278 -216 253 -216 q 361 -167 361 -216 q 286 -122 361 -122 q 261 -123 277 -122 l 261 0 l 378 0 l 378 -56 q 505 -168 505 -61 q 289 -309 505 -309 q 229 -306 258 -309 z "},"Ť":{"ha":814,"x_min":21,"x_max":794,"o":"m 794 794 l 517 794 l 517 0 l 297 0 l 297 794 l 21 794 l 21 972 l 794 972 l 794 794 m 652 1283 l 490 1063 l 322 1063 l 163 1283 l 302 1283 l 407 1156 l 513 1283 l 652 1283 z "},"ť":{"ha":712,"x_min":28,"x_max":755,"o":"m 510 8 q 367 -17 463 -17 q 140 218 140 -17 l 140 536 l 28 536 l 28 694 l 140 694 l 140 844 l 354 905 l 354 694 l 510 694 l 510 536 l 354 536 l 354 256 q 440 147 354 147 q 510 167 474 147 l 510 8 m 755 1028 l 641 789 l 509 789 l 570 1028 l 755 1028 z "},"Ů":{"ha":1004,"x_min":100,"x_max":904,"o":"m 904 421 q 496 -17 904 -17 q 100 411 100 -17 l 100 972 l 319 972 l 319 408 q 504 172 319 172 q 685 400 685 172 l 685 972 l 904 972 l 904 421 m 499 1063 q 385 1103 430 1063 q 340 1208 340 1143 q 387 1318 340 1277 q 503 1358 434 1358 q 620 1318 575 1358 q 665 1213 665 1278 q 616 1104 665 1146 q 499 1063 568 1063 m 499 1275 q 434 1211 434 1275 q 499 1147 434 1147 q 549 1166 530 1147 q 569 1211 569 1185 q 550 1257 569 1239 q 499 1275 530 1275 z "},"ů":{"ha":840,"x_min":79,"x_max":750,"o":"m 750 0 l 536 0 l 536 106 l 533 106 q 321 -17 454 -17 q 79 275 79 -17 l 79 694 l 293 694 l 293 294 q 410 147 293 147 q 502 188 467 147 q 536 297 536 228 l 536 694 l 750 694 l 750 0 m 417 804 q 303 845 348 804 q 258 950 258 885 q 305 1059 258 1019 q 420 1100 352 1100 q 538 1060 493 1100 q 583 954 583 1019 q 534 846 583 888 q 417 804 486 804 m 417 1017 q 352 953 352 1017 q 417 889 352 889 q 467 908 448 889 q 487 953 487 926 q 468 999 487 981 q 417 1017 448 1017 z "},"Ű":{"ha":1004,"x_min":100,"x_max":904,"o":"m 904 421 q 496 -17 904 -17 q 100 411 100 -17 l 100 972 l 319 972 l 319 408 q 504 172 319 172 q 685 400 685 172 l 685 972 l 904 972 l 904 421 m 828 1279 l 657 1063 l 515 1063 l 659 1279 l 828 1279 m 572 1279 l 404 1063 l 260 1063 l 404 1279 l 572 1279 z "},"ű":{"ha":840,"x_min":79,"x_max":750,"o":"m 750 0 l 536 0 l 536 106 l 533 106 q 321 -17 454 -17 q 79 275 79 -17 l 79 694 l 293 694 l 293 294 q 410 147 293 147 q 502 188 467 147 q 536 297 536 228 l 536 694 l 750 694 l 750 0 m 739 1021 l 568 804 l 426 804 l 570 1021 l 739 1021 m 483 1021 l 315 804 l 172 804 l 315 1021 l 483 1021 z "},"Ź":{"ha":843,"x_min":28,"x_max":811,"o":"m 811 0 l 28 0 l 28 126 l 526 794 l 64 794 l 64 972 l 810 972 l 810 850 l 322 178 l 811 178 l 811 0 m 656 1282 l 444 1063 l 289 1063 l 465 1282 l 656 1282 z "},"ź":{"ha":665,"x_min":17,"x_max":640,"o":"m 640 0 l 17 0 l 17 89 l 366 536 l 52 536 l 52 694 l 637 694 l 637 589 l 307 158 l 640 158 l 640 0 m 567 1023 l 355 804 l 200 804 l 376 1023 l 567 1023 z "},"Ż":{"ha":843,"x_min":28,"x_max":811,"o":"m 811 0 l 28 0 l 28 126 l 526 794 l 64 794 l 64 972 l 810 972 l 810 850 l 322 178 l 811 178 l 811 0 m 435 1063 q 360 1090 389 1063 q 330 1156 330 1117 q 360 1222 330 1196 q 435 1247 390 1247 q 509 1221 480 1247 q 538 1156 538 1196 q 509 1089 538 1116 q 435 1063 480 1063 z "},"ż":{"ha":665,"x_min":17,"x_max":640,"o":"m 640 0 l 17 0 l 17 89 l 366 536 l 52 536 l 52 694 l 637 694 l 637 589 l 307 158 l 640 158 l 640 0 m 347 804 q 272 831 302 804 q 243 897 243 859 q 273 963 243 938 q 347 989 302 989 q 421 963 393 989 q 450 897 450 937 q 421 831 450 857 q 347 804 393 804 z "},"Γ":{"ha":711,"x_min":111,"x_max":691,"o":"m 691 792 l 330 792 l 330 0 l 111 0 l 111 972 l 691 972 l 691 792 z "},"Θ":{"ha":1053,"x_min":50,"x_max":1003,"o":"m 523 -17 q 182 119 314 -17 q 50 473 50 255 q 183 846 50 704 q 537 989 317 989 q 874 852 745 989 q 1003 493 1003 716 q 870 123 1003 264 q 523 -17 736 -17 m 532 800 q 349 714 416 800 q 281 486 281 628 q 349 257 281 341 q 526 173 416 173 q 705 254 639 173 q 772 481 772 336 q 708 716 772 632 q 532 800 644 800 m 681 403 l 374 403 l 374 568 l 681 568 l 681 403 z "},"Φ":{"ha":1133,"x_min":51,"x_max":1081,"o":"m 668 121 l 668 -14 l 465 -14 l 465 121 l 449 121 q 162 230 273 121 q 51 509 51 340 q 164 779 51 673 q 450 884 277 884 l 465 884 l 465 985 l 668 985 l 668 883 l 684 883 q 969 779 858 883 q 1081 513 1081 675 q 968 232 1081 343 q 683 121 856 121 l 668 121 m 668 720 l 668 288 l 681 288 q 818 347 766 288 q 869 507 869 406 q 818 661 869 602 q 681 720 766 720 l 668 720 m 466 288 l 466 720 l 454 720 q 316 660 368 720 q 264 505 264 600 q 316 346 264 405 q 453 288 367 288 l 466 288 z "},"α":{"ha":884,"x_min":50,"x_max":879,"o":"m 585 145 q 334 -17 502 -17 q 125 79 201 -17 q 50 328 50 174 q 138 603 50 494 q 374 711 226 711 q 601 568 542 711 l 604 568 l 642 694 l 859 694 l 709 342 q 762 204 734 246 q 825 161 789 161 q 879 172 857 161 l 876 8 q 774 -10 831 -10 q 655 26 699 -10 q 589 145 612 62 l 585 145 m 539 357 q 401 549 500 549 q 300 489 337 549 q 264 340 264 429 q 293 202 264 256 q 379 149 323 149 q 529 325 475 149 l 539 357 z "},"δ":{"ha":850,"x_min":49,"x_max":800,"o":"m 288 632 q 150 841 150 717 q 231 987 150 933 q 446 1042 313 1042 q 700 989 560 1042 l 700 787 q 462 878 567 878 q 368 819 368 878 q 401 765 368 791 q 550 675 433 738 q 800 335 800 541 q 699 79 800 175 q 418 -17 597 -17 q 150 77 250 -17 q 49 311 49 172 q 288 632 49 543 m 422 536 q 310 457 354 513 q 267 328 267 401 q 310 197 267 246 q 426 147 353 147 q 540 197 498 147 q 582 327 582 246 q 422 536 582 451 z "},"ε":{"ha":643,"x_min":45,"x_max":599,"o":"m 599 172 l 599 14 q 351 -17 494 -17 q 126 36 206 -17 q 45 184 45 89 q 201 356 45 319 l 201 359 q 108 416 146 374 q 71 516 71 459 q 147 660 71 609 q 364 711 223 711 q 569 684 477 711 l 569 526 q 393 567 471 567 q 289 499 289 567 q 428 420 289 420 q 507 425 474 420 l 507 283 q 408 288 471 288 q 263 206 263 288 q 398 127 263 127 q 599 172 495 127 z "},"σ":{"ha":852,"x_min":49,"x_max":840,"o":"m 840 540 l 687 540 q 760 324 760 447 q 667 75 760 168 q 411 -17 574 -17 q 146 81 244 -17 q 49 346 49 179 q 144 605 49 515 q 421 694 239 694 l 840 694 l 840 540 m 490 540 l 441 540 q 268 337 268 540 q 307 198 268 249 q 409 147 345 147 q 507 200 472 147 q 542 347 542 253 q 490 540 542 456 z "},"τ":{"ha":763,"x_min":23,"x_max":730,"o":"m 730 540 l 486 540 l 486 246 q 558 158 486 158 q 630 173 594 158 l 630 9 q 490 -13 578 -13 q 271 214 271 -13 l 271 540 l 213 540 q 23 471 112 540 l 23 641 q 231 694 86 694 l 730 694 l 730 540 z "},"φ":{"ha":1043,"x_min":49,"x_max":994,"o":"m 616 -17 l 616 -326 l 422 -326 l 422 -17 l 409 -17 q 146 82 243 -17 q 49 346 49 180 q 165 694 49 552 l 387 694 q 291 544 331 641 q 252 355 252 447 q 295 202 252 258 q 410 146 339 146 l 422 146 l 422 455 q 489 645 422 578 q 677 711 555 711 q 910 613 826 711 q 994 336 994 515 q 896 80 994 177 q 630 -17 797 -17 l 616 -17 m 616 146 l 633 146 q 747 200 703 146 q 790 349 790 254 q 760 495 790 441 q 680 548 729 548 q 616 468 616 548 l 616 146 z "},"‗":{"ha":576,"x_min":0,"x_max":576,"o":"m 0 -188 l 0 -107 l 576 -107 l 576 -188 l 0 -188 m 0 -349 l 0 -268 l 576 -268 l 576 -349 l 0 -349 z "},"‼":{"ha":806,"x_min":103,"x_max":703,"o":"m 339 972 l 313 302 l 139 302 l 114 972 l 339 972 m 228 -16 q 138 17 174 -16 q 103 97 103 50 q 139 177 103 146 q 228 208 174 208 q 317 177 282 208 q 351 97 351 145 q 317 16 351 48 q 228 -16 283 -16 m 690 972 l 664 302 l 490 302 l 465 972 l 690 972 m 579 -16 q 490 17 525 -16 q 454 97 454 50 q 490 177 454 146 q 579 208 526 208 q 668 177 633 208 q 703 97 703 145 q 668 16 703 48 q 579 -16 634 -16 z "},"ⁿ":{"ha":618,"x_min":74,"x_max":545,"o":"m 545 486 l 400 486 l 400 786 q 323 880 400 880 q 250 848 282 880 q 218 777 218 817 l 218 486 l 74 486 l 74 974 l 215 974 l 215 907 q 370 986 265 986 q 545 794 545 986 l 545 486 z "},"₧":{"ha":1818,"x_min":111,"x_max":1747,"o":"m 330 335 l 330 0 l 111 0 l 111 972 l 399 972 q 766 663 766 972 q 661 426 766 516 q 379 335 555 335 l 330 335 m 330 804 l 330 501 l 361 501 q 536 654 536 501 q 361 804 536 804 l 330 804 m 1229 8 q 1086 -17 1181 -17 q 925 36 977 -17 q 873 204 873 90 l 873 467 l 775 467 l 775 611 l 873 611 l 873 761 l 1074 822 l 1074 611 l 1229 611 l 1229 467 l 1074 467 l 1074 241 q 1160 134 1074 134 q 1229 153 1194 134 l 1229 8 m 1270 18 l 1270 178 q 1468 115 1374 115 q 1556 178 1556 115 q 1482 235 1556 208 q 1340 295 1374 273 q 1288 350 1306 317 q 1270 425 1270 383 q 1338 574 1270 521 q 1525 628 1407 628 q 1706 600 1619 628 l 1706 449 q 1536 496 1626 496 q 1466 446 1466 496 q 1539 392 1466 419 q 1676 330 1641 354 q 1729 273 1710 307 q 1747 199 1747 240 q 1471 -17 1747 -17 q 1270 18 1363 -17 z "},"Ĳ":{"ha":1059,"x_min":30,"x_max":958,"o":"m 412 972 l 412 803 l 330 803 l 330 170 l 412 170 l 412 0 l 30 0 l 30 170 l 111 170 l 111 803 l 30 803 l 30 972 l 412 972 m 958 386 q 867 87 958 191 q 605 -17 777 -17 q 463 9 528 -17 l 463 215 q 589 172 519 172 q 739 395 739 172 l 739 972 l 958 972 l 958 386 z "},"ĳ":{"ha":840,"x_min":75,"x_max":767,"o":"m 199 804 q 110 837 144 804 q 75 916 75 869 q 110 994 75 964 q 199 1025 144 1025 q 288 994 254 1025 q 322 916 322 964 q 288 836 322 867 q 199 804 254 804 m 304 0 l 90 0 l 90 694 l 304 694 l 304 0 m 644 804 q 555 837 589 804 q 520 916 520 869 q 555 994 520 964 q 644 1025 589 1025 q 733 994 699 1025 q 767 916 767 964 q 733 836 767 867 q 644 804 699 804 m 749 12 q 674 -234 749 -142 q 457 -326 599 -326 q 355 -306 410 -326 l 355 -138 q 434 -163 399 -163 q 535 -4 535 -163 l 535 694 l 749 694 l 749 12 z "},"ŉ":{"ha":951,"x_min":-41,"x_max":872,"o":"m 221 996 l 90 694 l -41 694 l 36 996 l 221 996 m 872 0 l 659 0 l 659 386 q 543 547 659 547 q 451 504 486 547 q 415 396 415 461 l 415 0 l 201 0 l 201 694 l 415 694 l 415 585 l 418 585 q 642 711 494 711 q 872 425 872 711 l 872 0 z "},"′":{"ha":407,"x_min":103,"x_max":323,"o":"m 323 985 l 239 685 l 103 685 l 147 985 l 323 985 z "},"″":{"ha":685,"x_min":107,"x_max":597,"o":"m 597 985 l 513 684 l 376 684 l 420 985 l 597 985 m 330 985 l 245 685 l 107 685 l 151 985 l 330 985 z "},"℅":{"ha":1206,"x_min":78,"x_max":1097,"o":"m 543 958 l 515 841 q 418 871 475 871 q 311 817 354 871 q 267 694 267 763 q 359 591 267 591 q 473 627 415 591 l 450 512 q 308 477 383 477 q 167 530 218 477 q 117 677 117 584 q 200 897 117 808 q 416 986 284 986 q 543 958 495 986 m 1084 972 l 244 0 l 78 0 l 918 972 l 1084 972 m 826 -14 q 664 45 722 -14 q 606 196 606 104 q 681 404 606 315 q 883 492 755 492 q 1040 437 983 492 q 1097 286 1097 382 q 1024 75 1097 164 q 826 -14 951 -14 m 878 375 q 787 320 822 375 q 753 196 753 265 q 830 104 753 104 q 917 157 883 104 q 951 281 951 211 q 878 375 951 375 z "},"ℓ":{"ha":449,"x_min":9,"x_max":437,"o":"m 244 452 l 244 170 q 254 95 244 109 q 283 81 264 81 q 321 90 298 81 q 418 153 344 100 l 418 43 q 265 -17 342 -17 q 131 147 131 -17 l 131 300 l 77 233 l 9 286 l 131 446 l 131 754 q 172 958 131 905 q 289 1011 212 1011 q 395 967 353 1011 q 437 848 437 924 q 391 684 437 778 q 244 452 345 590 m 244 610 q 325 762 307 718 q 343 848 343 806 q 329 906 343 884 q 292 929 315 929 q 263 917 273 929 q 249 866 254 904 q 244 764 244 828 l 244 610 z "},"□":{"ha":839,"x_min":98,"x_max":739,"o":"m 739 0 l 98 0 l 98 640 l 739 640 l 739 0 m 688 52 l 688 589 l 150 589 l 150 52 l 688 52 z "},"▪":{"ha":492,"x_min":89,"x_max":403,"o":"m 403 301 l 89 301 l 89 615 l 403 615 l 403 301 z "},"▫":{"ha":492,"x_min":89,"x_max":403,"o":"m 403 301 l 89 301 l 89 615 l 403 615 l 403 301 m 351 353 l 351 564 l 140 564 l 140 353 l 351 353 z "},"●":{"ha":839,"x_min":121,"x_max":718,"o":"m 421 93 q 209 179 298 93 q 121 392 121 266 q 160 540 121 468 q 271 651 200 612 q 419 690 342 690 q 571 648 498 690 q 681 535 644 606 q 718 392 718 463 q 632 181 718 270 q 421 93 545 93 z "},"◦":{"ha":492,"x_min":77,"x_max":416,"o":"m 245 289 q 126 339 175 289 q 77 460 77 389 q 126 579 77 529 q 245 629 176 629 q 367 579 317 629 q 416 460 416 530 q 367 339 416 389 q 245 289 317 289 m 245 578 q 162 542 196 578 q 127 460 127 507 q 162 375 127 410 q 248 340 197 340 q 331 375 296 340 q 366 460 366 410 q 332 542 366 505 q 245 578 298 578 z "},"Ā":{"ha":977,"x_min":7,"x_max":966,"o":"m 966 0 l 728 0 l 659 216 l 313 216 l 244 0 l 7 0 l 361 972 l 621 972 l 966 0 m 608 385 l 504 711 q 488 799 492 748 l 482 799 q 465 714 479 756 l 359 385 l 608 385 m 687 1063 l 290 1063 l 290 1179 l 687 1179 l 687 1063 z "},"ā":{"ha":747,"x_min":39,"x_max":668,"o":"m 668 0 l 465 0 l 465 100 l 463 100 q 256 -17 393 -17 q 97 40 155 -17 q 39 193 39 98 q 278 427 39 395 l 467 452 q 343 566 467 566 q 107 492 219 566 l 107 653 q 230 694 152 676 q 371 711 307 711 q 668 415 668 711 l 668 0 m 467 282 l 467 329 l 340 313 q 236 218 236 299 q 261 158 236 182 q 330 135 287 135 q 429 177 391 135 q 467 282 467 218 m 586 804 l 189 804 l 189 921 l 586 921 l 586 804 z "},"Ĉ":{"ha":867,"x_min":50,"x_max":808,"o":"m 808 35 q 530 -17 702 -17 q 178 115 307 -17 q 50 465 50 246 q 194 844 50 699 q 568 989 338 989 q 808 953 711 989 l 808 742 q 586 800 711 800 q 365 714 449 800 q 281 481 281 628 q 360 256 281 340 q 574 172 439 172 q 808 235 702 172 l 808 35 m 786 1063 l 646 1063 l 538 1190 l 439 1063 l 298 1063 l 458 1283 l 626 1283 l 786 1063 z "},"ĉ":{"ha":667,"x_min":49,"x_max":646,"o":"m 616 25 q 407 -17 544 -17 q 148 80 247 -17 q 49 330 49 177 q 155 609 49 507 q 439 711 261 711 q 616 679 562 711 l 616 497 q 467 547 549 547 q 320 493 374 547 q 267 345 267 439 q 318 200 267 252 q 460 147 370 147 q 616 197 540 147 l 616 25 m 646 804 l 506 804 l 399 932 l 299 804 l 159 804 l 318 1025 l 486 1025 l 646 804 z "},"Ċ":{"ha":867,"x_min":50,"x_max":808,"o":"m 808 35 q 530 -17 702 -17 q 178 115 307 -17 q 50 465 50 246 q 194 844 50 699 q 568 989 338 989 q 808 953 711 989 l 808 742 q 586 800 711 800 q 365 714 449 800 q 281 481 281 628 q 360 256 281 340 q 574 172 439 172 q 808 235 702 172 l 808 35 m 555 1063 q 480 1090 510 1063 q 451 1156 451 1117 q 481 1222 451 1196 q 555 1247 511 1247 q 630 1221 601 1247 q 659 1156 659 1196 q 630 1089 659 1116 q 555 1063 601 1063 z "},"ċ":{"ha":667,"x_min":49,"x_max":616,"o":"m 616 25 q 407 -17 544 -17 q 148 80 247 -17 q 49 330 49 177 q 155 609 49 507 q 439 711 261 711 q 616 679 562 711 l 616 497 q 467 547 549 547 q 320 493 374 547 q 267 345 267 439 q 318 200 267 252 q 460 147 370 147 q 616 197 540 147 l 616 25 m 414 804 q 339 831 368 804 q 309 897 309 859 q 339 963 309 938 q 414 989 369 989 q 488 963 459 989 q 517 897 517 937 q 488 831 517 857 q 414 804 459 804 z "},"Ē":{"ha":739,"x_min":111,"x_max":694,"o":"m 694 0 l 111 0 l 111 972 l 672 972 l 672 794 l 330 794 l 330 578 l 648 578 l 648 400 l 330 400 l 330 178 l 694 178 l 694 0 m 586 1063 l 189 1063 l 189 1179 l 586 1179 l 586 1063 z "},"ē":{"ha":751,"x_min":49,"x_max":714,"o":"m 714 286 l 261 286 q 452 135 272 135 q 653 189 566 135 l 653 35 q 403 -17 557 -17 q 142 76 235 -17 q 49 336 49 170 q 149 610 49 509 q 396 711 250 711 q 631 621 548 711 q 714 376 714 531 l 714 286 m 515 418 q 395 567 515 567 q 306 524 343 567 q 260 418 268 481 l 515 418 m 588 804 l 191 804 l 191 921 l 588 921 l 588 804 z "},"Ĕ":{"ha":739,"x_min":111,"x_max":694,"o":"m 694 0 l 111 0 l 111 972 l 672 972 l 672 794 l 330 794 l 330 578 l 648 578 l 648 400 l 330 400 l 330 178 l 694 178 l 694 0 m 628 1271 q 558 1119 620 1175 q 397 1063 497 1063 q 236 1121 298 1063 q 171 1271 174 1179 l 292 1271 q 400 1179 304 1179 q 506 1271 493 1179 l 628 1271 z "},"ĕ":{"ha":751,"x_min":49,"x_max":714,"o":"m 714 286 l 261 286 q 452 135 272 135 q 653 189 566 135 l 653 35 q 403 -17 557 -17 q 142 76 235 -17 q 49 336 49 170 q 149 610 49 509 q 396 711 250 711 q 631 621 548 711 q 714 376 714 531 l 714 286 m 515 418 q 395 567 515 567 q 306 524 343 567 q 260 418 268 481 l 515 418 m 618 1013 q 548 861 610 917 q 387 804 487 804 q 226 862 288 804 q 161 1013 163 920 l 282 1013 q 390 921 294 921 q 496 1013 483 921 l 618 1013 z "},"Ė":{"ha":739,"x_min":111,"x_max":694,"o":"m 694 0 l 111 0 l 111 972 l 672 972 l 672 794 l 330 794 l 330 578 l 648 578 l 648 400 l 330 400 l 330 178 l 694 178 l 694 0 m 399 1063 q 325 1090 354 1063 q 295 1156 295 1117 q 325 1222 295 1196 q 399 1247 355 1247 q 474 1221 445 1247 q 503 1156 503 1196 q 474 1089 503 1116 q 399 1063 445 1063 z "},"ė":{"ha":751,"x_min":49,"x_max":714,"o":"m 714 286 l 261 286 q 452 135 272 135 q 653 189 566 135 l 653 35 q 403 -17 557 -17 q 142 76 235 -17 q 49 336 49 170 q 149 610 49 509 q 396 711 250 711 q 631 621 548 711 q 714 376 714 531 l 714 286 m 515 418 q 395 567 515 567 q 306 524 343 567 q 260 418 268 481 l 515 418 m 404 804 q 329 831 359 804 q 300 897 300 859 q 330 963 300 938 q 404 989 359 989 q 478 963 450 989 q 507 897 507 937 q 478 831 507 857 q 404 804 450 804 z "},"Ĝ":{"ha":987,"x_min":50,"x_max":909,"o":"m 909 65 q 555 -17 767 -17 q 185 113 321 -17 q 50 471 50 243 q 198 844 50 700 q 591 989 346 989 q 864 946 746 989 l 864 741 q 589 806 751 806 q 367 717 452 806 q 281 481 281 629 q 358 249 281 331 q 566 167 435 167 q 690 189 644 167 l 690 379 l 496 379 l 496 554 l 909 554 l 909 65 m 811 1063 l 671 1063 l 564 1190 l 464 1063 l 323 1063 l 483 1283 l 651 1283 l 811 1063 z "},"ĝ":{"ha":860,"x_min":49,"x_max":771,"o":"m 771 79 q 659 -220 771 -114 q 335 -326 547 -326 q 113 -286 195 -326 l 113 -106 q 329 -168 220 -168 q 497 -111 437 -168 q 557 45 557 -54 l 557 100 l 554 100 q 338 -17 481 -17 q 127 77 205 -17 q 49 328 49 170 q 136 608 49 504 q 364 711 222 711 q 554 614 491 711 l 557 614 l 557 694 l 771 694 l 771 79 m 559 334 l 559 389 q 520 501 559 454 q 419 547 481 547 q 307 492 348 547 q 267 335 267 436 q 305 198 267 248 q 411 147 344 147 q 518 198 477 147 q 559 334 559 250 m 673 804 l 533 804 l 426 932 l 326 804 l 186 804 l 345 1025 l 513 1025 l 673 804 z "},"Ġ":{"ha":987,"x_min":50,"x_max":909,"o":"m 909 65 q 555 -17 767 -17 q 185 113 321 -17 q 50 471 50 243 q 198 844 50 700 q 591 989 346 989 q 864 946 746 989 l 864 741 q 589 806 751 806 q 367 717 452 806 q 281 481 281 629 q 358 249 281 331 q 566 167 435 167 q 690 189 644 167 l 690 379 l 496 379 l 496 554 l 909 554 l 909 65 m 555 1063 q 480 1090 510 1063 q 451 1156 451 1117 q 481 1222 451 1196 q 555 1247 511 1247 q 630 1221 601 1247 q 659 1156 659 1196 q 630 1089 659 1116 q 555 1063 601 1063 z "},"ġ":{"ha":860,"x_min":49,"x_max":771,"o":"m 771 79 q 659 -220 771 -114 q 335 -326 547 -326 q 113 -286 195 -326 l 113 -106 q 329 -168 220 -168 q 497 -111 437 -168 q 557 45 557 -54 l 557 100 l 554 100 q 338 -17 481 -17 q 127 77 205 -17 q 49 328 49 170 q 136 608 49 504 q 364 711 222 711 q 554 614 491 711 l 557 614 l 557 694 l 771 694 l 771 79 m 559 334 l 559 389 q 520 501 559 454 q 419 547 481 547 q 307 492 348 547 q 267 335 267 436 q 305 198 267 248 q 411 147 344 147 q 518 198 477 147 q 559 334 559 250 m 430 804 q 355 831 385 804 q 326 897 326 859 q 355 963 326 938 q 430 989 385 989 q 504 963 475 989 q 533 897 533 937 q 504 831 533 857 q 430 804 475 804 z "},"Ģ":{"ha":987,"x_min":50,"x_max":909,"o":"m 909 65 q 555 -17 767 -17 q 185 113 321 -17 q 50 471 50 243 q 198 844 50 700 q 591 989 346 989 q 864 946 746 989 l 864 741 q 589 806 751 806 q 367 717 452 806 q 281 481 281 629 q 358 249 281 331 q 566 167 435 167 q 690 189 644 167 l 690 379 l 496 379 l 496 554 l 909 554 l 909 65 m 659 -79 l 545 -318 l 414 -318 l 475 -79 l 659 -79 z "},"ģ":{"ha":860,"x_min":49,"x_max":771,"o":"m 557 1043 l 496 804 l 311 804 l 425 1043 l 557 1043 m 771 79 q 659 -220 771 -114 q 335 -326 547 -326 q 113 -286 195 -326 l 113 -106 q 329 -168 220 -168 q 497 -111 437 -168 q 557 45 557 -54 l 557 100 l 554 100 q 338 -17 481 -17 q 127 77 205 -17 q 49 328 49 170 q 136 608 49 504 q 364 711 222 711 q 554 614 491 711 l 557 614 l 557 694 l 771 694 l 771 79 m 559 334 l 559 389 q 520 501 559 454 q 419 547 481 547 q 307 492 348 547 q 267 335 267 436 q 305 198 267 248 q 411 147 344 147 q 518 198 477 147 q 559 334 559 250 z "},"Ĥ":{"ha":1064,"x_min":111,"x_max":953,"o":"m 953 0 l 733 0 l 733 396 l 330 396 l 330 0 l 111 0 l 111 972 l 330 972 l 330 585 l 733 585 l 733 972 l 953 972 l 953 0 m 776 1063 l 635 1063 l 528 1190 l 429 1063 l 288 1063 l 448 1283 l 616 1283 l 776 1063 z "},"ĥ":{"ha":836,"x_min":90,"x_max":757,"o":"m 757 0 l 543 0 l 543 395 q 432 547 543 547 q 340 505 375 547 q 304 396 304 462 l 304 0 l 90 0 l 90 1028 l 304 1028 l 304 591 l 307 591 q 521 711 386 711 q 757 427 757 711 l 757 0 m 686 1063 l 546 1063 l 439 1190 l 339 1063 l 199 1063 l 358 1283 l 526 1283 l 686 1063 z "},"Ħ":{"ha":1064,"x_min":0,"x_max":1064,"o":"m 1064 690 l 953 690 l 953 0 l 733 0 l 733 396 l 330 396 l 330 0 l 111 0 l 111 690 l 0 690 l 0 829 l 111 829 l 111 972 l 330 972 l 330 829 l 733 829 l 733 972 l 953 972 l 953 829 l 1064 829 l 1064 690 m 733 585 l 733 690 l 330 690 l 330 585 l 733 585 z "},"ħ":{"ha":856,"x_min":18,"x_max":779,"o":"m 779 0 l 568 0 l 568 375 q 457 528 568 528 q 363 486 397 528 q 329 379 329 445 l 329 0 l 115 0 l 115 800 l 18 800 l 18 907 l 115 907 l 115 1028 l 329 1028 l 329 907 l 553 907 l 553 800 l 329 800 l 329 576 l 332 576 q 546 696 410 696 q 779 411 779 696 l 779 0 z "},"Ĩ":{"ha":440,"x_min":-24,"x_max":464,"o":"m 412 972 l 412 803 l 330 803 l 330 170 l 412 170 l 412 0 l 30 0 l 30 170 l 111 170 l 111 803 l 30 803 l 30 972 l 412 972 m 464 1261 q 426 1115 464 1166 q 323 1063 389 1063 q 210 1092 265 1063 q 126 1124 149 1124 q 72 1050 72 1124 l -24 1050 q 14 1197 -24 1145 q 118 1249 51 1249 q 232 1216 173 1249 q 313 1186 286 1186 q 366 1261 366 1186 l 464 1261 z "},"ĩ":{"ha":395,"x_min":-47,"x_max":441,"o":"m 304 0 l 90 0 l 90 694 l 304 694 l 304 0 m 441 1015 q 403 868 441 920 q 300 817 366 817 q 186 846 242 817 q 103 878 126 878 q 49 804 49 878 l -47 804 q -9 951 -47 899 q 95 1003 28 1003 q 209 970 150 1003 q 290 940 262 940 q 343 1015 343 940 l 441 1015 z "},"Ī":{"ha":440,"x_min":21,"x_max":418,"o":"m 412 972 l 412 803 l 330 803 l 330 170 l 412 170 l 412 0 l 30 0 l 30 170 l 111 170 l 111 803 l 30 803 l 30 972 l 412 972 m 418 1063 l 21 1063 l 21 1179 l 418 1179 l 418 1063 z "},"ī":{"ha":395,"x_min":-1,"x_max":396,"o":"m 304 0 l 90 0 l 90 694 l 304 694 l 304 0 m 396 804 l -1 804 l -1 921 l 396 921 l 396 804 z "},"Ĭ":{"ha":440,"x_min":-8,"x_max":449,"o":"m 412 972 l 412 803 l 330 803 l 330 170 l 412 170 l 412 0 l 30 0 l 30 170 l 111 170 l 111 803 l 30 803 l 30 972 l 412 972 m 449 1271 q 379 1119 441 1175 q 218 1063 318 1063 q 57 1121 119 1063 q -8 1271 -5 1179 l 113 1271 q 221 1179 125 1179 q 327 1271 314 1179 l 449 1271 z "},"ĭ":{"ha":395,"x_min":-31,"x_max":426,"o":"m 304 0 l 90 0 l 90 694 l 304 694 l 304 0 m 426 1013 q 356 861 418 917 q 195 804 295 804 q 34 862 96 804 q -31 1013 -28 920 l 90 1013 q 198 921 102 921 q 304 1013 291 921 l 426 1013 z "},"Į":{"ha":440,"x_min":30,"x_max":412,"o":"m 412 972 l 412 803 l 330 803 l 330 170 l 412 170 l 412 0 l 30 0 l 30 170 l 111 170 l 111 803 l 30 803 l 30 972 l 412 972 m 324 -271 q 285 -280 308 -277 q 239 -284 262 -284 q 146 -254 181 -284 q 112 -166 112 -224 q 119 -122 112 -145 q 141 -78 127 -100 q 176 -36 155 -56 q 224 0 197 -16 l 330 0 q 251 -76 277 -39 q 226 -141 226 -113 q 237 -175 226 -163 q 269 -186 249 -186 q 296 -184 281 -186 q 323 -178 310 -182 l 324 -271 z "},"į":{"ha":395,"x_min":75,"x_max":322,"o":"m 199 804 q 110 837 144 804 q 75 916 75 869 q 110 994 75 964 q 199 1025 144 1025 q 288 994 254 1025 q 322 916 322 964 q 288 836 322 867 q 199 804 254 804 m 304 0 l 90 0 l 90 694 l 304 694 l 304 0 m 299 -271 q 260 -280 283 -277 q 214 -284 237 -284 q 121 -254 156 -284 q 87 -166 87 -224 q 94 -122 87 -145 q 116 -78 102 -100 q 151 -36 130 -56 q 199 0 172 -16 l 304 0 q 226 -76 252 -39 q 201 -141 201 -113 q 212 -175 201 -163 q 243 -186 224 -186 q 271 -184 256 -186 q 298 -178 285 -182 l 299 -271 z "},"Ĵ":{"ha":618,"x_min":22,"x_max":650,"o":"m 517 386 q 426 87 517 191 q 164 -17 336 -17 q 22 9 87 -17 l 22 215 q 149 172 79 172 q 298 395 298 172 l 298 972 l 517 972 l 517 386 m 650 1063 l 510 1063 l 403 1190 l 303 1063 l 163 1063 l 322 1283 l 490 1283 l 650 1063 z "},"ĵ":{"ha":395,"x_min":-90,"x_max":440,"o":"m 304 12 q 229 -234 304 -142 q 12 -326 154 -326 q -90 -306 -35 -326 l -90 -138 q -11 -163 -45 -163 q 90 -4 90 -163 l 90 694 l 304 694 l 304 12 m 440 804 l 300 804 l 193 932 l 93 804 l -47 804 l 112 1025 l 280 1025 l 440 804 z "},"Ķ":{"ha":901,"x_min":111,"x_max":920,"o":"m 920 0 l 643 0 l 359 422 q 334 476 351 435 l 330 476 l 330 0 l 111 0 l 111 972 l 330 972 l 330 513 l 334 513 q 361 567 342 532 l 629 972 l 890 972 l 551 509 l 920 0 m 601 -79 l 487 -318 l 355 -318 l 416 -79 l 601 -79 z "},"ķ":{"ha":777,"x_min":90,"x_max":786,"o":"m 786 0 l 529 0 l 307 345 l 304 345 l 304 0 l 90 0 l 90 1028 l 304 1028 l 304 374 l 307 374 l 514 694 l 768 694 l 519 368 l 786 0 m 519 -79 l 405 -318 l 273 -318 l 334 -79 l 519 -79 z "},"ĸ":{"ha":777,"x_min":90,"x_max":786,"o":"m 786 0 l 529 0 l 307 345 l 304 345 l 304 0 l 90 0 l 90 694 l 304 694 l 304 374 l 307 374 l 514 694 l 768 694 l 519 368 l 786 0 z "},"Ļ":{"ha":710,"x_min":111,"x_max":690,"o":"m 690 0 l 111 0 l 111 972 l 330 972 l 330 178 l 690 178 l 690 0 m 294 -306 l 294 -212 q 343 -216 318 -216 q 427 -167 427 -216 q 351 -122 427 -122 q 326 -123 342 -122 l 326 0 l 443 0 l 443 -56 q 570 -168 570 -61 q 354 -309 570 -309 q 294 -306 323 -309 z "},"ļ":{"ha":395,"x_min":86,"x_max":361,"o":"m 304 0 l 90 0 l 90 1028 l 304 1028 l 304 0 m 86 -306 l 86 -212 q 135 -216 110 -216 q 218 -167 218 -216 q 143 -122 218 -122 q 118 -123 134 -122 l 118 0 l 235 0 l 235 -56 q 361 -168 361 -61 q 146 -309 361 -309 q 86 -306 115 -309 z "},"Ņ":{"ha":1097,"x_min":111,"x_max":986,"o":"m 986 0 l 765 0 l 364 611 q 315 692 329 665 l 313 692 q 318 534 318 640 l 318 0 l 111 0 l 111 972 l 347 972 l 733 380 q 782 301 760 340 l 785 301 q 779 435 779 335 l 779 972 l 986 972 l 986 0 m 671 -79 l 557 -318 l 426 -318 l 487 -79 l 671 -79 z "},"ņ":{"ha":840,"x_min":90,"x_max":761,"o":"m 761 0 l 547 0 l 547 386 q 432 547 547 547 q 340 505 376 547 q 304 396 304 462 l 304 0 l 90 0 l 90 694 l 304 694 l 304 585 l 307 585 q 530 711 384 711 q 761 425 761 711 l 761 0 m 543 -79 l 429 -318 l 297 -318 l 358 -79 l 543 -79 z "},"Ŋ":{"ha":1097,"x_min":111,"x_max":986,"o":"m 986 54 q 717 -285 986 -285 q 579 -264 636 -285 l 579 -96 q 673 -121 624 -121 q 779 2 777 -121 l 364 611 q 315 692 333 657 l 313 692 q 318 534 318 640 l 318 0 l 111 0 l 111 972 l 347 972 l 733 403 q 782 323 772 346 l 785 323 q 779 457 779 357 l 779 972 l 986 972 l 986 54 z "},"ŋ":{"ha":840,"x_min":90,"x_max":761,"o":"m 761 43 q 484 -286 761 -286 q 367 -265 424 -286 l 367 -97 q 446 -122 412 -122 q 547 36 547 -122 l 547 386 q 432 547 547 547 q 340 505 376 547 q 304 396 304 462 l 304 0 l 90 0 l 90 694 l 304 694 l 304 585 l 307 585 q 530 711 384 711 q 761 425 761 711 l 761 43 z "},"Ō":{"ha":1053,"x_min":50,"x_max":1003,"o":"m 522 -17 q 182 119 313 -17 q 50 473 50 255 q 184 846 50 704 q 538 989 317 989 q 874 852 746 989 q 1003 493 1003 716 q 870 123 1003 264 q 522 -17 736 -17 m 532 800 q 349 714 416 800 q 281 485 281 627 q 349 256 281 340 q 526 172 416 172 q 706 254 640 172 q 772 481 772 336 q 708 716 772 632 q 532 800 644 800 m 725 1063 l 328 1063 l 328 1179 l 725 1179 l 725 1063 z "},"ō":{"ha":849,"x_min":49,"x_max":800,"o":"m 421 -17 q 148 80 248 -17 q 49 345 49 178 q 152 614 49 517 q 431 711 255 711 q 702 614 604 711 q 800 357 800 517 q 699 83 800 184 q 421 -17 597 -17 m 427 547 q 309 495 351 547 q 267 347 267 443 q 428 147 267 147 q 582 353 582 147 q 427 547 582 547 m 623 804 l 226 804 l 226 921 l 623 921 l 623 804 z "},"Ŏ":{"ha":1053,"x_min":50,"x_max":1003,"o":"m 522 -17 q 182 119 313 -17 q 50 473 50 255 q 184 846 50 704 q 538 989 317 989 q 874 852 746 989 q 1003 493 1003 716 q 870 123 1003 264 q 522 -17 736 -17 m 532 800 q 349 714 416 800 q 281 485 281 627 q 349 256 281 340 q 526 172 416 172 q 706 254 640 172 q 772 481 772 336 q 708 716 772 632 q 532 800 644 800 m 755 1271 q 685 1119 747 1175 q 524 1063 624 1063 q 363 1121 425 1063 q 298 1271 300 1179 l 419 1271 q 527 1179 431 1179 q 633 1271 620 1179 l 755 1271 z "},"ŏ":{"ha":849,"x_min":49,"x_max":800,"o":"m 421 -17 q 148 80 248 -17 q 49 345 49 178 q 152 614 49 517 q 431 711 255 711 q 702 614 604 711 q 800 357 800 517 q 699 83 800 184 q 421 -17 597 -17 m 427 547 q 309 495 351 547 q 267 347 267 443 q 428 147 267 147 q 582 353 582 147 q 427 547 582 547 m 653 1013 q 584 861 645 917 q 422 804 522 804 q 261 862 323 804 q 196 1013 199 920 l 317 1013 q 425 921 329 921 q 531 1013 518 921 l 653 1013 z "},"Ŗ":{"ha":907,"x_min":111,"x_max":927,"o":"m 927 0 l 675 0 l 524 250 q 492 301 507 279 q 460 339 476 323 q 427 364 444 355 q 389 372 410 372 l 330 372 l 330 0 l 111 0 l 111 972 l 458 972 q 812 708 812 972 q 797 614 812 657 q 753 536 781 571 q 684 477 724 502 q 594 437 644 452 l 594 435 q 636 413 616 428 q 675 377 656 397 q 712 333 694 357 q 743 288 729 310 l 927 0 m 330 808 l 330 538 l 425 538 q 538 578 496 538 q 582 681 582 620 q 429 808 582 808 l 330 808 m 576 -79 l 462 -318 l 330 -318 l 391 -79 l 576 -79 z "},"ŗ":{"ha":553,"x_min":90,"x_max":543,"o":"m 543 501 q 453 522 505 522 q 344 471 383 522 q 304 332 304 420 l 304 0 l 90 0 l 90 694 l 304 694 l 304 566 l 307 566 q 490 707 358 707 q 543 699 524 707 l 543 501 m 402 -79 l 288 -318 l 157 -318 l 218 -79 l 402 -79 z "},"Ŝ":{"ha":779,"x_min":62,"x_max":730,"o":"m 66 37 l 66 254 q 195 180 125 205 q 334 155 264 155 q 407 163 376 155 q 458 183 437 170 q 489 215 479 197 q 499 254 499 233 q 483 304 499 282 q 438 346 467 327 q 372 382 410 365 q 288 418 333 400 q 118 534 174 466 q 62 700 62 603 q 93 830 62 776 q 176 920 123 885 q 298 972 229 956 q 444 989 367 989 q 579 980 520 989 q 687 951 637 970 l 687 749 q 634 779 663 766 q 574 800 605 791 q 514 812 544 808 q 456 817 484 817 q 389 809 419 817 q 337 789 358 802 q 304 759 316 777 q 293 718 293 741 q 306 674 293 694 q 342 638 319 655 q 400 604 366 621 q 477 570 434 587 q 582 518 535 545 q 661 456 628 490 q 712 377 694 421 q 730 273 730 332 q 699 137 730 192 q 615 47 668 81 q 492 -2 562 13 q 344 -17 422 -17 q 192 -3 264 -17 q 66 37 119 10 m 625 1063 l 485 1063 l 378 1190 l 278 1063 l 138 1063 l 297 1283 l 465 1283 l 625 1063 z "},"ŝ":{"ha":611,"x_min":45,"x_max":578,"o":"m 45 18 l 45 192 q 150 144 98 160 q 250 129 203 129 q 339 144 307 129 q 372 192 372 160 q 357 226 372 212 q 319 250 342 239 q 268 268 296 260 q 214 286 240 276 q 141 320 173 302 q 89 361 110 338 q 56 416 67 385 q 45 490 45 448 q 70 591 45 549 q 138 660 96 633 q 235 699 180 686 q 349 711 290 711 q 442 704 395 711 q 536 684 490 697 l 536 518 q 449 554 495 542 q 357 566 402 566 q 318 562 336 566 q 285 551 299 558 q 262 533 271 544 q 254 507 254 522 q 267 475 254 488 q 298 451 279 461 q 342 434 318 441 q 390 418 366 426 q 467 385 433 403 q 527 344 502 368 q 565 288 551 320 q 578 212 578 256 q 551 107 578 151 q 480 36 524 63 q 377 -4 435 8 q 257 -17 319 -17 q 45 18 142 -17 m 559 804 l 419 804 l 312 932 l 212 804 l 72 804 l 231 1025 l 399 1025 l 559 804 z "},"Ŧ":{"ha":814,"x_min":21,"x_max":794,"o":"m 794 794 l 517 794 l 517 546 l 677 546 l 677 366 l 517 366 l 517 0 l 297 0 l 297 366 l 136 366 l 136 546 l 297 546 l 297 794 l 21 794 l 21 972 l 794 972 l 794 794 z "},"ŧ":{"ha":541,"x_min":28,"x_max":510,"o":"m 510 8 q 367 -17 463 -17 q 140 218 140 -17 l 140 300 l 41 300 l 41 439 l 140 439 l 140 536 l 28 536 l 28 694 l 140 694 l 140 844 l 354 905 l 354 694 l 510 694 l 510 536 l 354 536 l 354 439 l 503 439 l 503 300 l 354 300 l 354 256 q 440 147 354 147 q 510 167 474 147 l 510 8 z "},"Ũ":{"ha":1004,"x_min":100,"x_max":904,"o":"m 904 421 q 496 -17 904 -17 q 100 411 100 -17 l 100 972 l 319 972 l 319 408 q 504 172 319 172 q 685 400 685 172 l 685 972 l 904 972 l 904 421 m 746 1240 q 708 1094 746 1145 q 606 1042 671 1042 q 492 1071 547 1042 q 408 1103 431 1103 q 354 1029 354 1103 l 258 1029 q 296 1176 258 1124 q 400 1228 333 1228 q 514 1195 455 1228 q 595 1165 568 1165 q 648 1240 648 1165 l 746 1240 z "},"ũ":{"ha":840,"x_min":79,"x_max":750,"o":"m 750 0 l 536 0 l 536 106 l 533 106 q 321 -17 454 -17 q 79 275 79 -17 l 79 694 l 293 694 l 293 294 q 410 147 293 147 q 502 188 467 147 q 536 297 536 228 l 536 694 l 750 694 l 750 0 m 664 1015 q 626 868 664 920 q 524 817 589 817 q 410 846 465 817 q 326 878 349 878 q 272 804 272 878 l 176 804 q 214 951 176 899 q 318 1003 251 1003 q 432 970 373 1003 q 513 940 486 940 q 566 1015 566 940 l 664 1015 z "},"Ū":{"ha":1004,"x_min":100,"x_max":904,"o":"m 904 421 q 496 -17 904 -17 q 100 411 100 -17 l 100 972 l 319 972 l 319 408 q 504 172 319 172 q 685 400 685 172 l 685 972 l 904 972 l 904 421 m 701 1063 l 303 1063 l 303 1179 l 701 1179 l 701 1063 z "},"ū":{"ha":840,"x_min":79,"x_max":750,"o":"m 750 0 l 536 0 l 536 106 l 533 106 q 321 -17 454 -17 q 79 275 79 -17 l 79 694 l 293 694 l 293 294 q 410 147 293 147 q 502 188 467 147 q 536 297 536 228 l 536 694 l 750 694 l 750 0 m 618 804 l 221 804 l 221 921 l 618 921 l 618 804 z "},"Ŭ":{"ha":1004,"x_min":100,"x_max":904,"o":"m 904 421 q 496 -17 904 -17 q 100 411 100 -17 l 100 972 l 319 972 l 319 408 q 504 172 319 172 q 685 400 685 172 l 685 972 l 904 972 l 904 421 m 730 1271 q 661 1119 722 1175 q 500 1063 600 1063 q 338 1121 401 1063 q 273 1271 276 1179 l 395 1271 q 503 1179 406 1179 q 608 1271 595 1179 l 730 1271 z "},"ŭ":{"ha":840,"x_min":79,"x_max":750,"o":"m 750 0 l 536 0 l 536 106 l 533 106 q 321 -17 454 -17 q 79 275 79 -17 l 79 694 l 293 694 l 293 294 q 410 147 293 147 q 502 188 467 147 q 536 297 536 228 l 536 694 l 750 694 l 750 0 m 648 1013 q 579 861 640 917 q 418 804 517 804 q 256 862 319 804 q 191 1013 194 920 l 313 1013 q 420 921 324 921 q 526 1013 513 921 l 648 1013 z "},"Ų":{"ha":1004,"x_min":100,"x_max":904,"o":"m 904 421 q 496 -17 904 -17 q 100 411 100 -17 l 100 972 l 319 972 l 319 408 q 504 172 319 172 q 685 400 685 172 l 685 972 l 904 972 l 904 421 m 627 -271 q 588 -280 610 -277 q 541 -284 565 -284 q 449 -254 484 -284 q 414 -166 414 -224 q 422 -122 414 -145 q 444 -78 429 -100 q 479 -36 458 -56 q 527 0 500 -16 l 632 0 q 554 -76 579 -39 q 528 -141 528 -113 q 540 -175 528 -163 q 571 -186 551 -186 q 598 -184 584 -186 q 626 -178 612 -182 l 627 -271 z "},"ų":{"ha":840,"x_min":79,"x_max":750,"o":"m 750 0 l 536 0 l 536 106 l 533 106 q 321 -17 454 -17 q 79 275 79 -17 l 79 694 l 293 694 l 293 294 q 410 147 293 147 q 502 188 467 147 q 536 297 536 228 l 536 694 l 750 694 l 750 0 m 637 -271 q 598 -280 621 -277 q 552 -284 576 -284 q 460 -254 494 -284 q 425 -166 425 -224 q 433 -122 425 -145 q 454 -78 440 -100 q 490 -36 469 -56 q 538 0 511 -16 l 643 0 q 565 -76 590 -39 q 539 -141 539 -113 q 551 -175 539 -163 q 582 -186 562 -186 q 609 -184 595 -186 q 637 -178 623 -182 l 637 -271 z "},"Ŵ":{"ha":1396,"x_min":12,"x_max":1383,"o":"m 1383 972 l 1126 0 l 884 0 l 722 624 q 707 733 709 673 l 704 733 q 686 624 698 667 l 521 0 l 268 0 l 12 972 l 252 972 l 389 325 q 401 214 397 283 l 406 214 q 425 328 408 266 l 602 972 l 836 972 l 996 319 q 1011 215 1004 283 l 1014 215 q 1028 323 1017 269 l 1162 972 l 1383 972 m 942 1063 l 802 1063 l 694 1190 l 595 1063 l 454 1063 l 614 1283 l 782 1283 l 942 1063 z "},"ŵ":{"ha":1107,"x_min":11,"x_max":1096,"o":"m 1096 694 l 896 0 l 671 0 l 568 407 q 557 496 558 448 l 553 496 q 539 410 548 443 l 429 0 l 207 0 l 11 694 l 229 694 l 325 241 q 335 164 332 210 l 339 164 q 351 244 342 212 l 471 694 l 675 694 l 782 241 q 791 163 786 224 l 796 163 q 807 241 800 202 l 897 694 l 1096 694 m 798 804 l 657 804 l 550 932 l 450 804 l 310 804 l 469 1025 l 637 1025 l 798 804 z "},"Ŷ":{"ha":843,"x_min":0,"x_max":844,"o":"m 844 972 l 528 346 l 528 0 l 309 0 l 309 342 l 0 972 l 250 972 l 407 610 q 429 530 411 600 l 432 530 q 453 607 441 579 l 612 972 l 844 972 m 665 1063 l 525 1063 l 418 1190 l 318 1063 l 178 1063 l 337 1283 l 505 1283 l 665 1063 z "},"ŷ":{"ha":747,"x_min":-3,"x_max":751,"o":"m 751 694 l 469 -56 q 163 -326 368 -326 q 35 -309 85 -326 l 35 -138 q 127 -163 77 -163 q 243 -85 210 -163 l 279 1 l -3 694 l 235 694 l 364 272 q 383 179 376 233 l 386 179 q 408 271 392 218 l 539 694 l 751 694 m 617 804 l 477 804 l 370 932 l 270 804 l 130 804 l 289 1025 l 457 1025 l 617 804 z "},"ſ":{"ha":416,"x_min":90,"x_max":486,"o":"m 486 864 q 407 880 445 880 q 304 768 304 880 l 304 0 l 90 0 l 90 781 q 168 972 90 899 q 378 1044 245 1044 q 486 1031 443 1044 l 486 864 z "},"Ǻ":{"ha":977,"x_min":7,"x_max":966,"o":"m 966 0 l 728 0 l 659 216 l 313 216 l 244 0 l 7 0 l 354 954 q 318 1047 318 991 q 368 1162 318 1119 q 490 1204 418 1204 q 615 1161 568 1204 q 663 1050 663 1118 q 627 957 663 996 l 966 0 m 488 1116 q 437 1096 456 1116 q 418 1048 418 1077 q 488 982 418 982 q 540 1001 520 982 q 559 1048 559 1021 q 539 1097 559 1078 q 488 1116 519 1116 m 606 396 l 503 711 q 488 793 494 739 l 482 793 q 467 714 477 747 l 363 396 l 606 396 m 703 1479 l 491 1260 l 336 1260 l 513 1479 l 703 1479 z "},"ǻ":{"ha":747,"x_min":39,"x_max":668,"o":"m 668 0 l 465 0 l 465 100 l 463 100 q 256 -17 393 -17 q 97 40 155 -17 q 39 193 39 98 q 278 427 39 395 l 467 452 q 343 566 467 566 q 107 492 219 566 l 107 653 q 230 694 152 676 q 371 711 307 711 q 668 415 668 711 l 668 0 m 467 282 l 467 329 l 340 313 q 236 218 236 299 q 261 158 236 182 q 330 135 287 135 q 429 177 391 135 q 467 282 467 218 m 389 770 q 274 810 319 770 q 229 916 229 850 q 276 1025 229 984 q 392 1065 323 1065 q 509 1025 465 1065 q 554 920 554 985 q 506 811 554 853 q 389 770 457 770 m 389 982 q 323 918 323 982 q 389 854 323 854 q 439 873 419 854 q 458 918 458 892 q 439 964 458 946 q 389 982 420 982 m 604 1344 l 392 1125 l 237 1125 l 414 1344 l 604 1344 z "},"Ǽ":{"ha":1299,"x_min":-1,"x_max":1254,"o":"m 1254 0 l 672 0 l 672 216 l 353 216 l 253 0 l -1 0 l 490 972 l 1232 972 l 1232 794 l 890 794 l 890 578 l 1208 578 l 1208 400 l 890 400 l 890 178 l 1254 178 l 1254 0 m 672 385 l 672 794 l 619 794 l 428 385 l 672 385 m 1035 1282 l 823 1063 l 668 1063 l 844 1282 l 1035 1282 z "},"ǽ":{"ha":1150,"x_min":39,"x_max":1112,"o":"m 1112 286 l 660 286 q 851 135 673 135 q 1053 189 960 135 l 1053 36 q 796 -17 947 -17 q 526 104 614 -17 l 524 104 q 278 -17 428 -17 q 102 39 165 -17 q 39 195 39 95 q 104 353 39 294 q 292 422 170 413 l 465 436 q 340 566 465 566 q 107 493 222 566 l 107 653 q 358 711 234 711 q 578 621 517 711 l 581 621 q 802 711 670 711 q 1029 621 947 711 q 1112 374 1112 531 l 1112 286 m 914 418 q 794 567 914 567 q 705 525 743 567 q 660 418 667 483 l 914 418 m 465 281 l 465 311 l 359 302 q 235 214 235 292 q 261 157 235 180 q 330 135 288 135 q 427 175 389 135 q 465 281 465 216 m 800 1023 l 588 804 l 433 804 l 610 1023 l 800 1023 z "},"Ǿ":{"ha":1053,"x_min":50,"x_max":1003,"o":"m 236 74 l 139 -41 l 54 29 l 155 149 q 50 473 50 279 q 183 846 50 704 q 538 989 317 989 q 810 908 696 989 l 897 1010 l 982 940 l 890 833 q 1003 493 1003 701 q 870 123 1003 264 q 522 -17 736 -17 q 236 74 359 -17 m 689 766 q 532 818 623 818 q 337 725 409 818 q 265 481 265 633 q 297 310 265 382 l 689 766 m 753 675 l 361 216 q 526 154 429 154 q 717 241 645 154 q 789 479 789 328 q 753 675 789 591 m 779 1282 l 567 1063 l 412 1063 l 589 1282 l 779 1282 z "},"ǿ":{"ha":849,"x_min":26,"x_max":818,"o":"m 818 685 l 724 586 q 800 357 800 489 q 700 83 800 181 q 421 -16 600 -16 q 199 43 287 -16 l 107 -53 l 26 20 l 119 117 q 49 346 49 212 q 152 615 49 517 q 432 713 256 713 q 643 657 553 713 l 737 757 l 818 685 m 524 536 q 428 564 486 564 q 253 349 253 564 q 265 267 253 299 l 524 536 m 585 441 l 318 164 q 427 134 359 134 q 597 353 597 134 q 585 441 597 403 m 650 1023 l 437 804 l 283 804 l 459 1023 l 650 1023 z "},"·":{"ha":377,"x_min":63,"x_max":313,"o":"m 186 330 q 98 363 134 330 q 63 443 63 395 q 99 523 63 492 q 189 554 134 554 q 278 523 243 554 q 313 443 313 491 q 278 362 313 393 q 186 330 243 330 z "},"Ẁ":{"ha":1396,"x_min":12,"x_max":1383,"o":"m 1383 972 l 1126 0 l 884 0 l 722 624 q 707 733 709 673 l 704 733 q 686 624 698 667 l 521 0 l 268 0 l 12 972 l 252 972 l 389 325 q 401 214 397 283 l 406 214 q 425 328 408 266 l 602 972 l 836 972 l 996 319 q 1011 215 1004 283 l 1014 215 q 1028 323 1017 269 l 1162 972 l 1383 972 m 843 1063 l 689 1063 l 476 1282 l 667 1282 l 843 1063 z "},"ẁ":{"ha":1107,"x_min":11,"x_max":1096,"o":"m 1096 694 l 896 0 l 671 0 l 568 407 q 557 496 558 448 l 553 496 q 539 410 548 443 l 429 0 l 207 0 l 11 694 l 229 694 l 325 241 q 335 164 332 210 l 339 164 q 351 244 342 212 l 471 694 l 675 694 l 782 241 q 791 163 786 224 l 796 163 q 807 241 800 202 l 897 694 l 1096 694 m 726 804 l 572 804 l 359 1023 l 550 1023 l 726 804 z "},"Ẃ":{"ha":1396,"x_min":12,"x_max":1383,"o":"m 1383 972 l 1126 0 l 884 0 l 722 624 q 707 733 709 673 l 704 733 q 686 624 698 667 l 521 0 l 268 0 l 12 972 l 252 972 l 389 325 q 401 214 397 283 l 406 214 q 425 328 408 266 l 602 972 l 836 972 l 996 319 q 1011 215 1004 283 l 1014 215 q 1028 323 1017 269 l 1162 972 l 1383 972 m 930 1282 l 718 1063 l 564 1063 l 740 1282 l 930 1282 z "},"ẃ":{"ha":1107,"x_min":11,"x_max":1096,"o":"m 1096 694 l 896 0 l 671 0 l 568 407 q 557 496 558 448 l 553 496 q 539 410 548 443 l 429 0 l 207 0 l 11 694 l 229 694 l 325 241 q 335 164 332 210 l 339 164 q 351 244 342 212 l 471 694 l 675 694 l 782 241 q 791 163 786 224 l 796 163 q 807 241 800 202 l 897 694 l 1096 694 m 778 1023 l 566 804 l 411 804 l 587 1023 l 778 1023 z "},"Ẅ":{"ha":1396,"x_min":12,"x_max":1383,"o":"m 1383 972 l 1126 0 l 884 0 l 722 624 q 707 733 709 673 l 704 733 q 686 624 698 667 l 521 0 l 268 0 l 12 972 l 252 972 l 389 325 q 401 214 397 283 l 406 214 q 425 328 408 266 l 602 972 l 836 972 l 996 319 q 1011 215 1004 283 l 1014 215 q 1028 323 1017 269 l 1162 972 l 1383 972 m 867 1063 q 793 1089 822 1063 q 764 1156 764 1116 q 793 1223 764 1197 q 867 1249 822 1249 q 942 1222 913 1249 q 972 1156 972 1196 q 943 1089 972 1115 q 867 1063 913 1063 m 557 1063 q 481 1089 511 1063 q 452 1156 452 1116 q 482 1222 452 1196 q 557 1249 512 1249 q 632 1222 603 1249 q 661 1156 661 1196 q 632 1088 661 1114 q 557 1063 603 1063 z "},"ẅ":{"ha":1107,"x_min":11,"x_max":1096,"o":"m 1096 694 l 896 0 l 671 0 l 568 407 q 557 496 558 448 l 553 496 q 539 410 548 443 l 429 0 l 207 0 l 11 694 l 229 694 l 325 241 q 335 164 332 210 l 339 164 q 351 244 342 212 l 471 694 l 675 694 l 782 241 q 791 163 786 224 l 796 163 q 807 241 800 202 l 897 694 l 1096 694 m 731 804 q 656 831 686 804 q 627 897 627 857 q 656 964 627 939 q 731 990 686 990 q 806 964 777 990 q 836 897 836 938 q 806 830 836 857 q 731 804 777 804 m 420 804 q 345 831 374 804 q 316 897 316 858 q 346 964 316 938 q 420 990 376 990 q 495 964 467 990 q 524 897 524 938 q 495 830 524 856 q 420 804 467 804 z "},"Ỳ":{"ha":843,"x_min":0,"x_max":844,"o":"m 844 972 l 528 346 l 528 0 l 309 0 l 309 342 l 0 972 l 250 972 l 407 610 q 429 530 411 600 l 432 530 q 453 607 441 579 l 612 972 l 844 972 m 588 1063 l 434 1063 l 221 1282 l 412 1282 l 588 1063 z "},"ỳ":{"ha":747,"x_min":-3,"x_max":751,"o":"m 751 694 l 469 -56 q 163 -326 368 -326 q 35 -309 85 -326 l 35 -138 q 127 -163 77 -163 q 243 -85 210 -163 l 279 1 l -3 694 l 235 694 l 364 272 q 383 179 376 233 l 386 179 q 408 271 392 218 l 539 694 l 751 694 m 554 804 l 400 804 l 187 1023 l 378 1023 l 554 804 z "},"‛":{"ha":403,"x_min":77,"x_max":339,"o":"m 339 694 l 207 694 l 77 996 l 261 996 l 339 694 z "},"‾":{"ha":576,"x_min":0,"x_max":576,"o":"m 576 947 l 0 947 l 0 1028 l 576 1028 l 576 947 z "},"₤":{"ha":799,"x_min":97,"x_max":755,"o":"m 755 0 l 97 0 l 97 154 q 197 212 167 172 q 228 322 228 251 l 228 350 l 111 350 l 111 469 l 228 469 l 228 541 l 111 541 l 111 660 l 228 660 l 228 689 q 311 906 228 823 q 534 989 393 989 q 693 956 621 989 l 693 781 q 551 825 627 825 q 427 669 427 825 l 427 660 l 608 660 l 608 541 l 427 541 l 427 469 l 608 469 l 608 350 l 427 350 l 427 343 q 323 164 427 222 l 755 164 l 755 0 z "},"℮":{"ha":833,"x_min":57,"x_max":777,"o":"m 777 359 l 215 359 l 215 109 q 415 26 297 26 q 684 193 591 26 l 732 164 q 576 12 651 47 q 416 -24 500 -24 q 155 86 254 -24 q 57 359 57 195 q 157 636 57 530 q 414 743 257 743 q 663 647 560 743 q 777 359 766 550 m 618 410 l 618 611 q 412 694 530 694 q 214 611 296 694 l 214 410 l 618 410 z "},"⅛":{"ha":1341,"x_min":66,"x_max":1251,"o":"m 458 396 l 77 396 l 77 513 l 196 513 l 196 836 l 66 808 l 66 930 l 342 986 l 342 513 l 458 513 l 458 396 m 1021 972 l 416 0 l 251 0 l 855 972 l 1021 972 m 932 301 q 841 432 841 345 q 897 546 841 501 q 1040 591 953 591 q 1183 549 1130 591 q 1237 440 1237 507 q 1137 302 1237 349 q 1251 157 1251 262 q 1192 33 1251 78 q 1027 -13 1132 -13 q 880 32 937 -13 q 823 150 823 76 q 932 301 823 251 m 1102 430 q 1040 487 1102 487 q 995 471 1013 487 q 976 429 976 455 q 1039 360 976 386 q 1102 430 1102 387 m 1034 243 q 959 156 959 214 q 982 110 959 128 q 1038 92 1004 92 q 1116 157 1116 92 q 1034 243 1116 215 z "},"⅜":{"ha":1341,"x_min":89,"x_max":1251,"o":"m 89 418 l 89 541 q 239 494 161 494 q 340 564 340 494 q 224 633 340 633 l 144 633 l 144 746 l 221 746 q 322 811 322 746 q 241 872 322 872 q 107 828 169 872 l 107 947 q 269 986 174 986 q 413 945 360 986 q 465 836 465 904 q 368 704 465 736 l 368 701 q 485 567 485 673 q 418 433 485 484 q 244 382 352 382 q 89 418 154 382 m 1021 972 l 417 0 l 252 0 l 856 972 l 1021 972 m 932 301 q 841 432 841 345 q 897 546 841 501 q 1040 591 953 591 q 1183 549 1130 591 q 1237 440 1237 507 q 1137 302 1237 349 q 1251 157 1251 262 q 1192 33 1251 78 q 1027 -13 1132 -13 q 880 32 937 -13 q 823 150 823 76 q 932 301 823 251 m 1102 430 q 1040 487 1102 487 q 995 471 1013 487 q 976 429 976 455 q 1039 360 976 386 q 1102 430 1102 387 m 1034 243 q 959 156 959 214 q 982 110 959 128 q 1038 92 1004 92 q 1116 157 1116 92 q 1034 243 1116 215 z "},"⅝":{"ha":1341,"x_min":91,"x_max":1251,"o":"m 91 408 l 91 532 q 225 491 160 491 q 326 572 326 491 q 211 650 326 650 q 107 642 172 650 l 107 974 l 444 974 l 444 857 l 231 857 l 231 759 q 273 761 258 761 q 418 713 366 761 q 471 584 471 665 q 409 438 471 495 q 239 382 346 382 q 91 408 153 382 m 1021 972 l 417 0 l 252 0 l 856 972 l 1021 972 m 932 301 q 841 432 841 345 q 897 546 841 501 q 1040 591 953 591 q 1183 549 1130 591 q 1237 440 1237 507 q 1137 302 1237 349 q 1251 157 1251 262 q 1192 33 1251 78 q 1027 -13 1132 -13 q 880 32 937 -13 q 823 150 823 76 q 932 301 823 251 m 1102 430 q 1040 487 1102 487 q 995 471 1013 487 q 976 429 976 455 q 1039 360 976 386 q 1102 430 1102 387 m 1034 243 q 959 156 959 214 q 982 110 959 128 q 1038 92 1004 92 q 1116 157 1116 92 q 1034 243 1116 215 z "},"⅞":{"ha":1285,"x_min":60,"x_max":1196,"o":"m 480 906 l 272 396 l 121 396 l 329 856 l 60 856 l 60 972 l 480 972 l 480 906 m 966 972 l 361 0 l 196 0 l 800 972 l 966 972 m 877 301 q 785 432 785 345 q 841 546 785 501 q 985 591 897 591 q 1128 549 1074 591 q 1181 440 1181 507 q 1081 302 1181 349 q 1196 157 1196 262 q 1136 33 1196 78 q 972 -13 1076 -13 q 824 32 881 -13 q 768 150 768 76 q 877 301 768 251 m 1046 430 q 985 487 1046 487 q 939 471 958 487 q 920 429 920 455 q 983 360 920 386 q 1046 430 1046 387 m 978 243 q 903 156 903 214 q 926 110 903 128 q 982 92 949 92 q 1061 157 1061 92 q 978 243 1061 215 z "},";":{"ha":376,"x_min":26,"x_max":317,"o":"m 191 479 q 102 512 137 479 q 66 591 66 545 q 102 672 66 641 q 192 703 138 703 q 282 671 247 703 q 317 591 317 640 q 282 511 317 542 q 191 479 248 479 m 293 171 l 193 -172 l 26 -172 l 96 171 l 293 171 z "},"΄":{"ha":440,"x_min":128,"x_max":383,"o":"m 383 1023 l 243 792 l 128 792 l 193 1023 l 383 1023 z "},"΅":{"ha":567,"x_min":-21,"x_max":588,"o":"m 438 1072 l 301 820 l 197 820 l 254 1072 l 438 1072 m 490 803 q 421 828 448 803 q 393 890 393 853 q 420 953 393 929 q 490 977 448 977 q 561 953 533 977 q 588 890 588 928 q 561 828 588 852 q 490 803 534 803 m 77 803 q 6 828 34 803 q -21 890 -21 854 q 7 953 -21 929 q 77 977 35 977 q 147 953 119 977 q 174 890 174 928 q 147 828 174 852 q 77 803 120 803 z "},"Ά":{"ha":1015,"x_min":7,"x_max":1005,"o":"m 1005 0 l 766 0 l 697 216 l 351 216 l 283 0 l 45 0 l 399 972 l 659 972 l 1005 0 m 647 385 l 543 711 q 526 799 531 748 l 521 799 q 504 714 517 756 l 398 385 l 647 385 m 262 972 l 121 742 l 7 742 l 71 972 l 262 972 z "},"Έ":{"ha":909,"x_min":-33,"x_max":865,"o":"m 865 0 l 281 0 l 281 972 l 842 972 l 842 794 l 500 794 l 500 578 l 819 578 l 819 400 l 500 400 l 500 178 l 865 178 l 865 0 m 222 972 l 81 742 l -33 742 l 31 972 l 222 972 z "},"Ή":{"ha":1235,"x_min":-34,"x_max":1122,"o":"m 1122 0 l 903 0 l 903 396 l 500 396 l 500 0 l 281 0 l 281 972 l 500 972 l 500 585 l 903 585 l 903 972 l 1122 972 l 1122 0 m 221 972 l 81 742 l -34 742 l 31 972 l 221 972 z "},"Ί":{"ha":665,"x_min":-31,"x_max":637,"o":"m 637 972 l 637 803 l 556 803 l 556 170 l 637 170 l 637 0 l 256 0 l 256 170 l 337 170 l 337 803 l 256 803 l 256 972 l 637 972 m 224 972 l 84 742 l -31 742 l 34 972 l 224 972 z "},"Ό":{"ha":1175,"x_min":-26,"x_max":1124,"o":"m 643 -17 q 302 119 434 -17 q 171 473 171 255 q 304 846 171 704 q 659 989 438 989 q 995 852 867 989 q 1124 493 1124 716 q 990 123 1124 264 q 643 -17 857 -17 m 652 800 q 469 714 537 800 q 401 485 401 627 q 469 256 401 340 q 647 172 537 172 q 827 254 760 172 q 893 481 893 336 q 829 716 893 632 q 652 800 764 800 m 229 972 l 89 742 l -26 742 l 39 972 l 229 972 z "},"Ύ":{"ha":1083,"x_min":-49,"x_max":1083,"o":"m 1083 972 l 766 346 l 766 0 l 547 0 l 547 342 l 239 972 l 489 972 l 646 610 q 668 530 650 600 l 671 530 q 692 607 680 579 l 851 972 l 1083 972 m 206 972 l 66 742 l -49 742 l 16 972 l 206 972 z "},"Ώ":{"ha":1200,"x_min":-33,"x_max":1143,"o":"m 907 178 l 1142 178 l 1142 0 l 735 0 l 735 176 q 913 533 913 330 q 844 727 913 654 q 671 800 775 800 q 493 727 563 800 q 424 525 424 654 q 461 349 424 431 q 599 176 499 267 l 599 0 l 192 0 l 192 178 l 422 178 q 193 562 193 311 q 326 872 193 755 q 667 989 458 989 q 1013 871 882 989 q 1143 566 1143 754 q 907 178 1143 309 m 222 972 l 81 742 l -33 742 l 31 972 l 222 972 z "},"ΐ":{"ha":456,"x_min":-90,"x_max":519,"o":"m 443 9 q 317 -13 395 -13 q 104 214 104 -13 l 104 694 l 319 694 l 319 246 q 378 158 319 158 q 443 174 409 158 l 443 9 m 369 1072 l 232 820 l 128 820 l 185 1072 l 369 1072 m 421 803 q 352 828 379 803 q 324 890 324 853 q 351 953 324 929 q 421 977 378 977 q 491 953 464 977 q 519 890 519 928 q 492 828 519 852 q 421 803 465 803 m 7 803 q -63 828 -35 803 q -90 890 -90 854 q -62 953 -90 929 q 7 977 -35 977 q 78 953 50 977 q 105 890 105 928 q 78 828 105 852 q 7 803 51 803 z "},"Α":{"ha":977,"x_min":7,"x_max":966,"o":"m 966 0 l 728 0 l 659 216 l 313 216 l 244 0 l 7 0 l 361 972 l 621 972 l 966 0 m 608 385 l 504 711 q 488 799 492 748 l 482 799 q 465 714 479 756 l 359 385 l 608 385 z "},"Β":{"ha":890,"x_min":111,"x_max":842,"o":"m 111 0 l 111 972 l 465 972 q 715 913 628 972 q 803 745 803 853 q 750 607 803 666 q 614 525 696 548 l 614 522 q 780 446 718 509 q 842 290 842 382 q 746 78 842 157 q 485 0 650 0 l 111 0 m 330 811 l 330 581 l 427 581 q 533 613 494 581 q 572 704 572 646 q 412 811 572 811 l 330 811 m 330 418 l 330 161 l 449 161 q 568 197 525 161 q 611 293 611 232 q 569 385 611 351 q 450 418 526 418 l 330 418 z "},"Ε":{"ha":739,"x_min":111,"x_max":694,"o":"m 694 0 l 111 0 l 111 972 l 672 972 l 672 794 l 330 794 l 330 578 l 648 578 l 648 400 l 330 400 l 330 178 l 694 178 l 694 0 z "},"Ζ":{"ha":843,"x_min":28,"x_max":811,"o":"m 811 0 l 28 0 l 28 126 l 526 794 l 64 794 l 64 972 l 810 972 l 810 850 l 322 178 l 811 178 l 811 0 z "},"Η":{"ha":1064,"x_min":111,"x_max":953,"o":"m 953 0 l 733 0 l 733 396 l 330 396 l 330 0 l 111 0 l 111 972 l 330 972 l 330 585 l 733 585 l 733 972 l 953 972 l 953 0 z "},"Ι":{"ha":440,"x_min":30,"x_max":412,"o":"m 412 972 l 412 803 l 330 803 l 330 170 l 412 170 l 412 0 l 30 0 l 30 170 l 111 170 l 111 803 l 30 803 l 30 972 l 412 972 z "},"Κ":{"ha":901,"x_min":111,"x_max":920,"o":"m 920 0 l 643 0 l 359 422 q 334 476 351 435 l 330 476 l 330 0 l 111 0 l 111 972 l 330 972 l 330 513 l 334 513 q 361 567 342 532 l 629 972 l 890 972 l 551 509 l 920 0 z "},"Λ":{"ha":962,"x_min":7,"x_max":950,"o":"m 950 0 l 711 0 l 499 705 q 481 796 487 745 l 476 796 q 456 707 471 757 l 243 0 l 7 0 l 351 972 l 618 972 l 950 0 z "},"Μ":{"ha":1329,"x_min":111,"x_max":1219,"o":"m 1219 0 l 1003 0 l 1003 582 q 1011 790 1003 676 l 1006 790 q 975 661 989 701 l 747 0 l 568 0 l 336 654 q 306 790 327 681 l 300 790 q 309 538 309 646 l 309 0 l 111 0 l 111 972 l 432 972 l 631 396 q 665 257 654 327 l 669 257 q 708 397 688 338 l 907 972 l 1219 972 l 1219 0 z "},"Ν":{"ha":1097,"x_min":111,"x_max":986,"o":"m 986 0 l 765 0 l 364 611 q 315 692 329 665 l 313 692 q 318 534 318 640 l 318 0 l 111 0 l 111 972 l 347 972 l 733 380 q 782 301 760 340 l 785 301 q 779 435 779 335 l 779 972 l 986 972 l 986 0 z "},"Ξ":{"ha":769,"x_min":41,"x_max":728,"o":"m 712 791 l 56 791 l 56 972 l 712 972 l 712 791 m 614 399 l 155 399 l 155 578 l 614 578 l 614 399 m 728 0 l 41 0 l 41 183 l 728 183 l 728 0 z "},"Ο":{"ha":1053,"x_min":50,"x_max":1003,"o":"m 522 -17 q 182 119 313 -17 q 50 473 50 255 q 184 846 50 704 q 538 989 317 989 q 874 852 746 989 q 1003 493 1003 716 q 870 123 1003 264 q 522 -17 736 -17 m 532 800 q 349 714 416 800 q 281 485 281 627 q 349 256 281 340 q 526 172 416 172 q 706 254 640 172 q 772 481 772 336 q 708 716 772 632 q 532 800 644 800 z "},"Π":{"ha":1063,"x_min":111,"x_max":952,"o":"m 952 0 l 733 0 l 733 781 l 330 781 l 330 0 l 111 0 l 111 972 l 952 972 l 952 0 z "},"Ρ":{"ha":853,"x_min":111,"x_max":822,"o":"m 330 335 l 330 0 l 111 0 l 111 972 l 454 972 q 822 663 822 972 q 716 426 822 516 q 435 335 611 335 l 330 335 m 330 804 l 330 501 l 416 501 q 591 654 591 501 q 416 804 591 804 l 330 804 z "},"Σ":{"ha":790,"x_min":28,"x_max":763,"o":"m 763 0 l 28 0 l 28 117 l 342 492 l 45 847 l 45 972 l 721 972 l 721 793 l 355 793 l 594 502 l 334 176 l 763 176 l 763 0 z "},"Τ":{"ha":814,"x_min":21,"x_max":794,"o":"m 794 794 l 517 794 l 517 0 l 297 0 l 297 794 l 21 794 l 21 972 l 794 972 l 794 794 z "},"Υ":{"ha":843,"x_min":0,"x_max":844,"o":"m 844 972 l 528 346 l 528 0 l 309 0 l 309 342 l 0 972 l 250 972 l 407 610 q 429 530 411 600 l 432 530 q 453 607 441 579 l 612 972 l 844 972 z "},"Χ":{"ha":910,"x_min":4,"x_max":905,"o":"m 905 0 l 646 0 l 478 317 q 458 382 469 334 l 456 382 q 433 314 451 359 l 265 0 l 4 0 l 314 486 l 31 972 l 297 972 l 436 681 q 465 599 452 646 l 468 599 q 498 684 476 627 l 653 972 l 897 972 l 606 490 l 905 0 z "},"Ψ":{"ha":1147,"x_min":90,"x_max":1057,"o":"m 1057 607 q 953 343 1057 444 q 684 240 850 242 l 669 240 l 669 0 l 479 0 l 479 240 l 463 240 q 197 340 304 240 q 90 606 90 440 l 90 972 l 283 972 l 283 622 q 462 422 283 423 l 479 422 l 479 972 l 669 972 l 669 422 l 685 422 q 863 622 863 422 l 863 972 l 1057 972 l 1057 607 z "},"Ω":{"ha":1063,"x_min":56,"x_max":1007,"o":"m 771 178 l 1006 178 l 1006 0 l 599 0 l 599 176 q 777 533 777 330 q 708 727 777 654 q 534 800 639 800 q 357 727 427 800 q 288 525 288 654 q 325 349 288 431 q 463 176 363 267 l 463 0 l 56 0 l 56 178 l 286 178 q 57 562 57 311 q 189 872 57 755 q 530 989 321 989 q 876 871 745 989 q 1007 566 1007 754 q 771 178 1007 309 z "},"Ϊ":{"ha":440,"x_min":-37,"x_max":483,"o":"m 412 972 l 412 803 l 330 803 l 330 170 l 412 170 l 412 0 l 30 0 l 30 170 l 111 170 l 111 803 l 30 803 l 30 972 l 412 972 m 378 1040 q 304 1067 333 1040 q 275 1133 275 1093 q 304 1200 275 1175 q 378 1226 333 1226 q 453 1200 424 1226 q 483 1133 483 1174 q 454 1066 483 1093 q 378 1040 425 1040 m 68 1040 q -7 1067 22 1040 q -37 1133 -37 1094 q -7 1200 -37 1174 q 68 1226 23 1226 q 143 1200 114 1226 q 172 1133 172 1174 q 143 1066 172 1092 q 68 1040 114 1040 z "},"Ϋ":{"ha":843,"x_min":0,"x_max":844,"o":"m 844 972 l 528 346 l 528 0 l 309 0 l 309 342 l 0 972 l 250 972 l 407 610 q 429 530 411 600 l 432 530 q 453 607 441 579 l 612 972 l 844 972 m 574 1040 q 500 1066 529 1040 q 471 1133 471 1093 q 500 1200 471 1174 q 574 1225 529 1225 q 649 1199 620 1225 q 679 1133 679 1173 q 650 1066 679 1092 q 574 1040 621 1040 m 264 1040 q 189 1066 218 1040 q 159 1133 159 1093 q 189 1199 159 1173 q 264 1225 219 1225 q 339 1199 310 1225 q 368 1133 368 1173 q 339 1065 368 1091 q 264 1040 310 1040 z "},"ά":{"ha":884,"x_min":50,"x_max":879,"o":"m 585 145 q 334 -17 502 -17 q 125 79 201 -17 q 50 328 50 174 q 138 603 50 494 q 374 711 226 711 q 601 568 542 711 l 604 568 l 642 694 l 859 694 l 709 342 q 762 204 734 246 q 825 161 789 161 q 879 172 857 161 l 876 8 q 774 -10 831 -10 q 655 26 699 -10 q 589 145 612 62 l 585 145 m 539 357 q 401 549 500 549 q 300 489 337 549 q 264 340 264 429 q 293 202 264 256 q 379 149 323 149 q 529 325 475 149 l 539 357 m 597 1023 l 457 792 l 342 792 l 407 1023 l 597 1023 z "},"έ":{"ha":643,"x_min":45,"x_max":599,"o":"m 599 172 l 599 14 q 351 -17 494 -17 q 126 36 206 -17 q 45 184 45 89 q 201 356 45 319 l 201 359 q 108 416 146 374 q 71 516 71 459 q 147 660 71 609 q 364 711 223 711 q 569 684 477 711 l 569 526 q 393 567 471 567 q 289 499 289 567 q 428 420 289 420 q 507 425 474 420 l 507 283 q 408 288 471 288 q 263 206 263 288 q 398 127 263 127 q 599 172 495 127 m 524 1023 l 384 792 l 269 792 l 334 1023 l 524 1023 z "},"ή":{"ha":849,"x_min":62,"x_max":761,"o":"m 761 -321 l 545 -321 l 545 367 q 431 528 545 528 q 340 487 375 528 q 304 380 304 446 l 304 0 l 90 0 l 90 458 q 62 694 90 636 l 282 694 q 303 583 303 652 l 307 583 q 530 711 383 711 q 761 425 761 711 l 761 -321 m 605 1023 l 465 792 l 350 792 l 414 1023 l 605 1023 z "},"ί":{"ha":456,"x_min":104,"x_max":443,"o":"m 443 9 q 317 -13 395 -13 q 104 214 104 -13 l 104 694 l 319 694 l 319 246 q 378 158 319 158 q 443 174 409 158 l 443 9 m 391 1023 l 251 792 l 136 792 l 201 1023 l 391 1023 z "},"ΰ":{"ha":862,"x_min":14,"x_max":800,"o":"m 106 452 q 92 522 106 504 q 52 541 78 541 q 14 534 35 541 l 14 689 q 132 707 58 707 q 275 662 230 707 q 320 494 320 616 l 320 327 q 457 154 320 154 q 553 194 522 154 q 584 319 584 233 q 503 694 584 512 l 726 694 q 800 321 800 527 q 707 72 800 161 q 451 -17 615 -17 q 197 66 288 -17 q 106 301 106 150 l 106 452 m 562 1072 l 425 820 l 321 820 l 378 1072 l 562 1072 m 614 803 q 545 828 572 803 q 517 890 517 853 q 545 953 517 929 q 614 977 572 977 q 685 953 657 977 q 712 890 712 928 q 685 828 712 852 q 614 803 658 803 m 201 803 q 131 828 158 803 q 103 890 103 854 q 131 953 103 929 q 201 977 159 977 q 271 953 243 977 q 298 890 298 928 q 271 828 298 852 q 201 803 244 803 z "},"β":{"ha":864,"x_min":90,"x_max":817,"o":"m 304 17 l 304 -321 l 90 -321 l 90 711 q 181 951 90 861 q 429 1042 272 1042 q 668 970 581 1042 q 755 779 755 899 q 708 635 755 697 q 583 549 661 574 l 583 546 q 754 453 692 524 q 817 279 817 382 q 725 65 817 147 q 482 -16 633 -16 q 304 17 391 -16 m 382 454 l 382 604 q 495 650 452 609 q 538 758 538 692 q 509 846 538 814 q 428 878 479 878 q 304 718 304 878 l 304 193 q 452 148 377 148 q 598 286 598 148 q 382 454 598 446 z "},"γ":{"ha":787,"x_min":-19,"x_max":745,"o":"m 467 -50 q 465 -326 467 -268 l 246 -326 q 259 14 259 -187 q 148 351 237 138 q -19 694 60 564 l 229 694 q 418 188 373 412 l 421 188 q 539 596 539 399 q 531 694 539 640 l 741 694 q 745 622 745 650 q 690 322 745 471 q 467 -50 635 174 z "},"ζ":{"ha":646,"x_min":45,"x_max":644,"o":"m 583 -210 l 353 -210 q 432 -93 432 -155 q 396 -34 432 -58 q 269 15 360 -10 q 45 309 45 68 q 399 870 45 555 l 399 873 l 138 873 l 138 1028 l 606 1028 l 606 871 q 264 336 264 553 q 300 224 264 267 q 427 156 337 182 q 595 68 547 120 q 644 -60 644 16 q 583 -210 644 -144 z "},"η":{"ha":849,"x_min":62,"x_max":761,"o":"m 761 -321 l 545 -321 l 545 367 q 431 528 545 528 q 340 487 375 528 q 304 380 304 446 l 304 0 l 90 0 l 90 458 q 62 694 90 636 l 282 694 q 303 583 303 652 l 307 583 q 530 711 383 711 q 761 425 761 711 l 761 -321 z "},"θ":{"ha":850,"x_min":49,"x_max":800,"o":"m 420 -17 q 148 122 246 -17 q 49 512 49 262 q 150 902 49 762 q 431 1042 252 1042 q 704 904 608 1042 q 800 526 800 766 q 701 127 800 271 q 420 -17 601 -17 m 579 595 q 425 877 564 877 q 269 595 287 877 l 579 595 m 579 441 l 269 441 q 427 149 283 149 q 579 441 566 149 z "},"ι":{"ha":456,"x_min":104,"x_max":443,"o":"m 443 9 q 317 -13 395 -13 q 104 214 104 -13 l 104 694 l 319 694 l 319 246 q 378 158 319 158 q 443 174 409 158 l 443 9 z "},"κ":{"ha":792,"x_min":90,"x_max":792,"o":"m 792 0 l 543 0 l 366 286 l 304 222 l 304 0 l 90 0 l 90 694 l 304 694 l 304 408 l 433 569 q 640 705 541 705 q 733 696 703 705 l 733 522 q 673 530 709 530 q 566 466 627 530 l 516 414 l 792 0 z "},"λ":{"ha":762,"x_min":3,"x_max":748,"o":"m 748 0 l 523 0 l 389 480 l 233 0 l 3 0 l 305 689 l 279 761 q 176 847 248 847 q 81 822 130 847 l 81 1006 q 215 1024 135 1024 q 379 969 314 1024 q 490 776 444 915 l 748 0 z "},"μ":{"ha":871,"x_min":90,"x_max":859,"o":"m 550 110 q 392 -16 509 -16 q 309 13 339 -16 l 307 13 l 304 -268 l 90 -268 l 90 694 l 304 694 l 304 295 q 420 155 304 155 q 545 327 545 155 l 545 694 l 761 694 l 760 275 q 773 190 760 218 q 821 161 787 161 q 859 168 835 161 l 858 5 q 733 -11 800 -11 q 553 110 580 -11 l 550 110 z "},"ν":{"ha":769,"x_min":-16,"x_max":708,"o":"m 454 0 l 261 0 l -16 694 l 212 694 l 390 172 q 508 505 508 321 q 495 616 508 559 q 467 694 482 674 l 682 694 q 708 530 708 647 q 454 0 708 288 z "},"ξ":{"ha":663,"x_min":43,"x_max":654,"o":"m 593 -210 l 363 -210 q 442 -98 442 -159 q 427 -55 442 -73 q 387 -27 412 -37 q 301 -4 361 -17 q 43 267 43 49 q 108 440 43 363 q 281 549 172 517 q 179 616 215 576 q 143 700 143 656 q 314 869 143 806 l 314 873 l 105 873 l 105 1028 l 589 1028 l 589 878 q 403 808 470 854 q 336 702 336 763 q 369 635 336 663 q 455 595 401 606 q 572 601 469 595 l 572 430 q 475 433 537 433 q 323 395 383 433 q 262 291 262 358 q 414 156 262 188 q 600 79 547 128 q 654 -51 654 31 q 593 -210 654 -137 z "},"ο":{"ha":849,"x_min":49,"x_max":800,"o":"m 421 -17 q 148 80 248 -17 q 49 345 49 178 q 152 614 49 517 q 431 711 255 711 q 702 614 604 711 q 800 357 800 517 q 699 83 800 184 q 421 -17 597 -17 m 427 547 q 309 495 351 547 q 267 347 267 443 q 428 147 267 147 q 582 353 582 147 q 427 547 582 547 z "},"ρ":{"ha":859,"x_min":87,"x_max":810,"o":"m 305 47 l 302 47 l 302 -268 l 87 -268 l 87 345 q 179 615 87 519 q 445 711 271 711 q 711 615 613 711 q 810 353 810 518 q 724 84 810 184 q 494 -17 638 -17 q 305 47 379 -17 m 302 208 q 437 147 359 147 q 591 348 591 147 q 549 491 591 435 q 439 547 507 547 q 302 367 302 547 l 302 208 z "},"ς":{"ha":677,"x_min":48,"x_max":648,"o":"m 587 -210 l 362 -210 q 441 -93 441 -155 q 305 3 441 -26 q 116 106 183 30 q 48 297 48 182 q 162 598 48 484 q 441 711 277 711 q 618 677 550 711 l 618 496 q 468 547 551 547 q 325 481 382 547 q 267 316 267 416 q 302 216 267 254 q 434 155 338 178 q 648 -60 648 102 q 587 -210 648 -146 z "},"υ":{"ha":862,"x_min":14,"x_max":800,"o":"m 106 452 q 92 522 106 504 q 52 541 78 541 q 14 534 35 541 l 14 689 q 132 707 58 707 q 275 662 230 707 q 320 494 320 616 l 320 327 q 457 154 320 154 q 553 194 522 154 q 584 319 584 233 q 503 694 584 512 l 726 694 q 800 321 800 527 q 707 72 800 161 q 451 -17 615 -17 q 197 66 288 -17 q 106 301 106 150 l 106 452 z "},"χ":{"ha":770,"x_min":-18,"x_max":770,"o":"m 770 -311 q 671 -325 736 -325 q 540 -276 594 -325 q 435 -106 486 -227 l 370 48 l 208 -314 l -18 -314 l 279 229 l 192 430 q 94 543 143 543 q 26 525 61 543 l 26 698 q 130 711 58 711 q 251 675 203 711 q 334 553 299 639 l 394 406 l 515 694 l 743 694 l 489 227 l 602 -28 q 661 -133 639 -111 q 711 -155 683 -155 q 770 -140 742 -155 l 770 -311 z "},"ψ":{"ha":1099,"x_min":82,"x_max":1016,"o":"m 1016 379 q 919 90 1016 197 q 663 -16 823 -16 l 646 -16 l 646 -326 l 452 -326 l 452 -16 l 435 -16 q 179 90 275 -16 q 82 379 82 197 l 82 694 l 283 694 l 283 379 q 327 210 283 270 q 442 149 370 149 l 452 149 l 452 903 l 646 903 l 646 149 l 656 149 q 771 210 728 149 q 815 379 815 270 l 815 694 l 1016 694 l 1016 379 z "},"ω":{"ha":1155,"x_min":62,"x_max":1093,"o":"m 578 103 l 575 103 q 361 -16 509 -16 q 142 76 222 -16 q 62 328 62 169 q 150 694 62 500 l 368 694 q 264 326 264 494 q 372 155 264 155 q 477 318 477 155 l 477 509 l 678 509 l 678 318 q 783 155 678 155 q 890 326 890 155 q 787 694 890 494 l 1004 694 q 1093 327 1093 499 q 1012 75 1093 167 q 791 -16 931 -16 q 578 103 642 -16 z "},"ϊ":{"ha":456,"x_min":-38,"x_max":481,"o":"m 443 9 q 317 -13 395 -13 q 104 214 104 -13 l 104 694 l 319 694 l 319 246 q 378 158 319 158 q 443 174 409 158 l 443 9 m 377 795 q 302 822 332 795 q 273 888 273 848 q 302 956 273 930 q 377 981 332 981 q 452 955 422 981 q 481 888 481 929 q 452 822 481 848 q 377 795 423 795 m 66 795 q -9 822 20 795 q -38 888 -38 849 q -8 955 -38 929 q 66 981 22 981 q 141 955 113 981 q 170 888 170 929 q 141 821 170 847 q 66 795 113 795 z "},"ϋ":{"ha":862,"x_min":14,"x_max":800,"o":"m 106 452 q 92 522 106 504 q 52 541 78 541 q 14 534 35 541 l 14 689 q 132 707 58 707 q 275 662 230 707 q 320 494 320 616 l 320 327 q 457 154 320 154 q 553 194 522 154 q 584 319 584 233 q 503 694 584 512 l 726 694 q 800 321 800 527 q 707 72 800 161 q 451 -17 615 -17 q 197 66 288 -17 q 106 301 106 150 l 106 452 m 568 795 q 493 822 522 795 q 464 888 464 848 q 493 956 464 930 q 568 981 522 981 q 643 955 613 981 q 672 888 672 929 q 643 822 672 848 q 568 795 614 795 m 257 795 q 182 822 211 795 q 153 888 153 849 q 182 955 153 929 q 257 981 212 981 q 332 955 303 981 q 361 888 361 929 q 332 821 361 847 q 257 795 303 795 z "},"ό":{"ha":849,"x_min":49,"x_max":800,"o":"m 421 -17 q 148 80 248 -17 q 49 345 49 178 q 152 614 49 517 q 431 711 255 711 q 702 614 604 711 q 800 357 800 517 q 699 83 800 184 q 421 -17 597 -17 m 427 547 q 309 495 351 547 q 267 347 267 443 q 428 147 267 147 q 582 353 582 147 q 427 547 582 547 m 591 1023 l 450 792 l 336 792 l 400 1023 l 591 1023 z "},"ύ":{"ha":862,"x_min":14,"x_max":800,"o":"m 106 452 q 92 522 106 504 q 52 541 78 541 q 14 534 35 541 l 14 689 q 132 707 58 707 q 275 662 230 707 q 320 494 320 616 l 320 327 q 457 154 320 154 q 553 194 522 154 q 584 319 584 233 q 503 694 584 512 l 726 694 q 800 321 800 527 q 707 72 800 161 q 451 -17 615 -17 q 197 66 288 -17 q 106 301 106 150 l 106 452 m 576 1023 l 435 792 l 321 792 l 385 1023 l 576 1023 z "},"ώ":{"ha":1155,"x_min":62,"x_max":1093,"o":"m 578 103 l 575 103 q 361 -16 509 -16 q 142 76 222 -16 q 62 328 62 169 q 150 694 62 500 l 368 694 q 264 326 264 494 q 372 155 264 155 q 477 318 477 155 l 477 509 l 678 509 l 678 318 q 783 155 678 155 q 890 326 890 155 q 787 694 890 494 l 1004 694 q 1093 327 1093 499 q 1012 75 1093 167 q 791 -16 931 -16 q 578 103 642 -16 m 739 1023 l 598 792 l 484 792 l 548 1023 l 739 1023 z "},"Ё":{"ha":739,"x_min":111,"x_max":694,"o":"m 694 0 l 111 0 l 111 972 l 672 972 l 672 794 l 330 794 l 330 578 l 648 578 l 648 400 l 330 400 l 330 178 l 694 178 l 694 0 m 568 1040 q 493 1067 522 1040 q 464 1133 464 1093 q 493 1200 464 1175 q 568 1226 522 1226 q 643 1200 613 1226 q 672 1133 672 1174 q 643 1066 672 1093 q 568 1040 614 1040 m 257 1040 q 182 1067 211 1040 q 153 1133 153 1094 q 182 1200 153 1174 q 257 1226 212 1226 q 332 1200 303 1226 q 361 1133 361 1174 q 332 1066 361 1092 q 257 1040 303 1040 z "},"Ђ":{"ha":1048,"x_min":21,"x_max":997,"o":"m 591 9 l 591 170 q 682 150 634 150 q 758 184 729 150 q 786 277 786 218 q 618 425 786 425 l 497 425 l 497 0 l 278 0 l 278 793 l 21 793 l 21 972 l 794 972 l 794 793 l 497 793 l 497 586 l 654 586 q 905 504 814 586 q 997 278 997 421 q 925 66 997 142 q 722 -9 853 -9 q 591 9 639 -9 z "},"Ѓ":{"ha":711,"x_min":111,"x_max":690,"o":"m 690 791 l 330 791 l 330 0 l 111 0 l 111 972 l 690 972 l 690 791 m 627 1282 l 414 1063 l 260 1063 l 436 1282 l 627 1282 z "},"Є":{"ha":866,"x_min":50,"x_max":807,"o":"m 807 35 q 529 -17 701 -17 q 177 115 303 -17 q 50 465 50 246 q 186 848 50 707 q 553 989 321 989 q 807 953 701 989 l 807 751 q 568 810 705 810 q 378 747 450 810 q 289 570 305 684 l 664 570 l 664 396 l 290 396 q 376 224 304 285 q 566 163 448 163 q 807 225 701 163 l 807 35 z "},"Ѕ":{"ha":779,"x_min":62,"x_max":730,"o":"m 66 37 l 66 254 q 195 180 125 205 q 334 155 264 155 q 407 163 376 155 q 458 183 437 170 q 489 215 479 197 q 499 254 499 233 q 483 304 499 282 q 438 346 467 327 q 372 382 410 365 q 288 418 333 400 q 118 534 174 466 q 62 700 62 603 q 93 830 62 776 q 176 920 123 885 q 298 972 229 956 q 444 989 367 989 q 579 980 520 989 q 687 951 637 970 l 687 749 q 634 779 663 766 q 574 800 605 791 q 514 812 544 808 q 456 817 484 817 q 389 809 419 817 q 337 789 358 802 q 304 759 316 777 q 293 718 293 741 q 306 674 293 694 q 342 638 319 655 q 400 604 366 621 q 477 570 434 587 q 582 518 535 545 q 661 456 628 490 q 712 377 694 421 q 730 273 730 332 q 699 137 730 192 q 615 47 668 81 q 492 -2 562 13 q 344 -17 422 -17 q 192 -3 264 -17 q 66 37 119 10 z "},"Ї":{"ha":440,"x_min":-36,"x_max":484,"o":"m 412 972 l 412 803 l 330 803 l 330 170 l 412 170 l 412 0 l 30 0 l 30 170 l 111 170 l 111 803 l 30 803 l 30 972 l 412 972 m 379 1040 q 304 1067 334 1040 q 275 1133 275 1093 q 304 1200 275 1175 q 379 1226 334 1226 q 454 1200 425 1226 q 484 1133 484 1174 q 454 1066 484 1093 q 379 1040 425 1040 m 68 1040 q -7 1067 22 1040 q -36 1133 -36 1094 q -6 1200 -36 1174 q 68 1226 24 1226 q 143 1200 115 1226 q 172 1133 172 1174 q 143 1066 172 1092 q 68 1040 115 1040 z "},"Љ":{"ha":1436,"x_min":16,"x_max":1397,"o":"m 684 0 l 684 790 l 489 790 q 440 486 467 632 q 389 241 413 339 q 341 100 364 143 q 288 34 318 58 q 221 -2 258 9 q 138 -14 184 -14 q 16 7 70 -14 l 16 186 q 87 167 54 167 q 122 175 106 167 q 153 209 137 184 q 197 342 168 233 q 255 611 226 450 q 311 972 285 772 l 903 972 l 903 600 l 1046 600 q 1397 317 1397 600 q 1302 83 1397 167 q 1035 0 1207 0 l 684 0 m 903 435 l 903 167 l 1002 167 q 1166 301 1166 167 q 1006 435 1166 435 l 903 435 z "},"Њ":{"ha":1453,"x_min":111,"x_max":1414,"o":"m 701 0 l 701 411 l 330 411 l 330 0 l 111 0 l 111 972 l 330 972 l 330 597 l 701 597 l 701 972 l 920 972 l 920 606 l 1064 606 q 1414 319 1414 606 q 1319 84 1414 168 q 1051 0 1225 0 l 701 0 m 920 435 l 920 168 l 1019 168 q 1183 304 1183 168 q 1023 435 1183 435 l 920 435 z "},"Ћ":{"ha":1110,"x_min":21,"x_max":1046,"o":"m 1046 0 l 828 0 l 828 244 q 664 399 828 399 l 517 399 l 517 0 l 297 0 l 297 793 l 21 793 l 21 972 l 794 972 l 794 793 l 517 793 l 517 583 l 703 583 q 958 500 871 583 q 1046 261 1046 418 l 1046 0 z "},"Ќ":{"ha":901,"x_min":111,"x_max":920,"o":"m 920 0 l 643 0 l 359 422 q 334 476 351 435 l 330 476 l 330 0 l 111 0 l 111 972 l 330 972 l 330 513 l 334 513 q 361 567 342 532 l 629 972 l 890 972 l 551 509 l 920 0 m 710 1282 l 498 1063 l 343 1063 l 519 1282 l 710 1282 z "},"Ў":{"ha":854,"x_min":16,"x_max":860,"o":"m 860 972 l 555 306 q 394 51 470 119 q 201 -17 318 -17 q 75 5 124 -17 l 75 205 q 191 170 131 170 q 335 302 273 170 l 16 972 l 265 972 l 427 583 q 449 504 441 548 l 450 504 q 473 581 458 541 l 629 972 l 860 972 m 734 1297 q 642 1126 722 1190 q 441 1062 561 1062 q 239 1126 320 1062 q 153 1297 159 1190 l 309 1297 q 351 1212 312 1245 q 444 1178 391 1178 q 536 1212 497 1178 q 578 1297 574 1246 l 734 1297 z "},"Џ":{"ha":1062,"x_min":111,"x_max":953,"o":"m 953 0 l 626 0 l 626 -265 l 433 -265 l 433 0 l 111 0 l 111 972 l 330 972 l 330 187 l 733 187 l 733 972 l 953 972 l 953 0 z "},"А":{"ha":977,"x_min":7,"x_max":966,"o":"m 966 0 l 728 0 l 659 216 l 313 216 l 244 0 l 7 0 l 361 972 l 621 972 l 966 0 m 608 385 l 504 711 q 488 799 492 748 l 482 799 q 465 714 479 756 l 359 385 l 608 385 z "},"Б":{"ha":892,"x_min":111,"x_max":844,"o":"m 111 0 l 111 972 l 737 972 l 737 793 l 330 793 l 330 581 l 518 581 q 759 508 674 581 q 844 309 844 436 q 754 81 844 162 q 497 0 663 0 l 111 0 m 330 421 l 330 160 l 458 160 q 612 294 612 160 q 465 421 612 421 l 330 421 z "},"В":{"ha":890,"x_min":111,"x_max":842,"o":"m 111 0 l 111 972 l 465 972 q 715 913 628 972 q 803 745 803 853 q 750 607 803 666 q 614 525 696 548 l 614 522 q 780 446 718 509 q 842 290 842 382 q 746 78 842 157 q 485 0 650 0 l 111 0 m 330 811 l 330 581 l 427 581 q 533 613 494 581 q 572 704 572 646 q 412 811 572 811 l 330 811 m 330 418 l 330 161 l 449 161 q 568 197 525 161 q 611 293 611 232 q 569 385 611 351 q 450 418 526 418 l 330 418 z "},"Г":{"ha":711,"x_min":111,"x_max":690,"o":"m 690 791 l 330 791 l 330 0 l 111 0 l 111 972 l 690 972 l 690 791 z "},"Д":{"ha":1076,"x_min":26,"x_max":1026,"o":"m 1026 -265 l 833 -265 l 833 0 l 216 0 l 216 -265 l 26 -265 l 26 179 l 117 179 q 325 972 305 520 l 888 972 l 888 179 l 1026 179 l 1026 -265 m 668 179 l 668 790 l 503 790 q 451 486 495 655 q 342 179 407 317 l 668 179 z "},"Е":{"ha":739,"x_min":111,"x_max":694,"o":"m 694 0 l 111 0 l 111 972 l 672 972 l 672 794 l 330 794 l 330 578 l 648 578 l 648 400 l 330 400 l 330 178 l 694 178 l 694 0 z "},"Ж":{"ha":1379,"x_min":-7,"x_max":1385,"o":"m 1385 0 l 1112 0 l 825 419 q 799 468 814 435 l 796 468 l 796 0 l 582 0 l 582 468 l 579 468 q 553 419 572 452 l 265 0 l -7 0 l 364 507 l 21 972 l 282 972 l 553 566 q 579 521 570 540 l 582 521 l 582 972 l 796 972 l 796 521 l 799 521 q 825 566 808 541 l 1096 972 l 1357 972 l 1014 507 l 1385 0 z "},"З":{"ha":776,"x_min":49,"x_max":722,"o":"m 49 36 l 49 228 q 313 150 165 150 q 496 282 496 150 q 294 416 496 416 l 170 416 l 170 581 l 289 581 q 468 707 468 581 q 315 822 468 822 q 82 753 206 822 l 82 932 q 358 989 207 989 q 605 923 517 989 q 693 743 693 857 q 643 592 693 654 q 501 509 593 530 l 501 505 q 664 430 605 492 q 722 278 722 369 q 621 60 722 138 q 328 -17 519 -17 q 49 36 146 -17 z "},"И":{"ha":1098,"x_min":111,"x_max":986,"o":"m 986 0 l 779 0 l 779 534 q 786 692 779 627 l 782 692 q 733 611 768 664 l 332 0 l 111 0 l 111 972 l 318 972 l 318 435 q 313 301 318 335 l 315 301 q 366 380 319 309 l 751 972 l 986 972 l 986 0 z "},"Й":{"ha":1098,"x_min":111,"x_max":986,"o":"m 986 0 l 779 0 l 779 534 q 786 692 779 627 l 782 692 q 733 611 768 664 l 332 0 l 111 0 l 111 972 l 318 972 l 318 435 q 313 301 318 335 l 315 301 q 366 380 319 309 l 751 972 l 986 972 l 986 0 m 848 1297 q 755 1126 836 1190 q 555 1062 675 1062 q 353 1126 434 1062 q 267 1297 273 1190 l 422 1297 q 465 1212 426 1245 q 558 1178 505 1178 q 650 1212 611 1178 q 692 1297 688 1246 l 848 1297 z "},"К":{"ha":901,"x_min":111,"x_max":920,"o":"m 920 0 l 643 0 l 359 422 q 334 476 351 435 l 330 476 l 330 0 l 111 0 l 111 972 l 330 972 l 330 513 l 334 513 q 361 567 342 532 l 629 972 l 890 972 l 551 509 l 920 0 z "},"Л":{"ha":1014,"x_min":16,"x_max":903,"o":"m 903 0 l 684 0 l 684 790 l 489 790 q 342 109 410 231 q 134 -14 273 -14 q 16 5 75 -14 l 16 180 q 83 167 55 167 q 133 184 111 167 q 180 278 154 202 q 242 540 205 354 q 311 972 278 726 l 903 972 l 903 0 z "},"М":{"ha":1329,"x_min":111,"x_max":1219,"o":"m 1219 0 l 1003 0 l 1003 582 q 1011 790 1003 676 l 1006 790 q 975 661 989 701 l 747 0 l 568 0 l 336 654 q 306 790 327 681 l 300 790 q 309 538 309 646 l 309 0 l 111 0 l 111 972 l 432 972 l 631 396 q 665 257 654 327 l 669 257 q 708 397 688 338 l 907 972 l 1219 972 l 1219 0 z "},"Н":{"ha":1064,"x_min":111,"x_max":953,"o":"m 953 0 l 733 0 l 733 396 l 330 396 l 330 0 l 111 0 l 111 972 l 330 972 l 330 585 l 733 585 l 733 972 l 953 972 l 953 0 z "},"О":{"ha":1053,"x_min":50,"x_max":1003,"o":"m 522 -17 q 182 119 313 -17 q 50 473 50 255 q 184 846 50 704 q 538 989 317 989 q 874 852 746 989 q 1003 493 1003 716 q 870 123 1003 264 q 522 -17 736 -17 m 532 800 q 349 714 416 800 q 281 485 281 627 q 349 256 281 340 q 526 172 416 172 q 706 254 640 172 q 772 481 772 336 q 708 716 772 632 q 532 800 644 800 z "},"П":{"ha":1063,"x_min":111,"x_max":952,"o":"m 952 0 l 733 0 l 733 781 l 330 781 l 330 0 l 111 0 l 111 972 l 952 972 l 952 0 z "},"Р":{"ha":853,"x_min":111,"x_max":822,"o":"m 330 335 l 330 0 l 111 0 l 111 972 l 454 972 q 822 663 822 972 q 716 426 822 516 q 435 335 611 335 l 330 335 m 330 804 l 330 501 l 416 501 q 591 654 591 501 q 416 804 591 804 l 330 804 z "},"С":{"ha":867,"x_min":50,"x_max":808,"o":"m 808 35 q 530 -17 702 -17 q 178 115 307 -17 q 50 465 50 246 q 194 844 50 699 q 568 989 338 989 q 808 953 711 989 l 808 742 q 586 800 711 800 q 365 714 449 800 q 281 481 281 628 q 360 256 281 340 q 574 172 439 172 q 808 235 702 172 l 808 35 z "},"Т":{"ha":814,"x_min":21,"x_max":794,"o":"m 794 794 l 517 794 l 517 0 l 297 0 l 297 794 l 21 794 l 21 972 l 794 972 l 794 794 z "},"У":{"ha":854,"x_min":16,"x_max":860,"o":"m 860 972 l 555 306 q 394 51 470 119 q 201 -17 318 -17 q 75 5 124 -17 l 75 205 q 191 170 131 170 q 335 302 273 170 l 16 972 l 265 972 l 427 583 q 449 504 441 548 l 450 504 q 473 581 458 541 l 629 972 l 860 972 z "},"Ф":{"ha":1165,"x_min":47,"x_max":1118,"o":"m 689 106 l 689 -5 l 476 -5 l 476 106 l 453 106 q 157 216 267 106 q 47 501 47 326 q 155 776 47 672 q 450 880 262 880 l 476 880 l 476 991 l 689 991 l 689 880 l 714 880 q 1011 777 903 880 q 1118 501 1118 673 q 1008 216 1118 326 q 711 106 899 106 l 689 106 m 689 717 l 689 272 l 699 272 q 841 333 789 272 q 893 496 893 395 q 841 657 893 597 q 700 717 789 717 l 689 717 m 476 272 l 476 717 l 464 717 q 324 656 376 717 q 272 496 272 596 q 323 333 272 394 q 465 272 374 272 l 476 272 z "},"Х":{"ha":910,"x_min":4,"x_max":905,"o":"m 905 0 l 646 0 l 478 317 q 458 382 469 334 l 456 382 q 433 314 451 359 l 265 0 l 4 0 l 314 486 l 31 972 l 297 972 l 436 681 q 465 599 452 646 l 468 599 q 498 684 476 627 l 653 972 l 897 972 l 606 490 l 905 0 z "},"Ц":{"ha":1141,"x_min":111,"x_max":1092,"o":"m 1092 -265 l 899 -265 l 899 0 l 111 0 l 111 972 l 330 972 l 330 187 l 733 187 l 733 972 l 953 972 l 953 187 l 1092 187 l 1092 -265 z "},"Ч":{"ha":1008,"x_min":94,"x_max":892,"o":"m 892 0 l 672 0 l 672 386 q 396 311 536 311 q 94 602 94 311 l 94 972 l 313 972 l 313 621 q 452 494 313 494 q 672 561 562 494 l 672 972 l 892 972 l 892 0 z "},"Ш":{"ha":1404,"x_min":111,"x_max":1293,"o":"m 1293 0 l 111 0 l 111 972 l 330 972 l 330 187 l 593 187 l 593 972 l 811 972 l 811 187 l 1074 187 l 1074 972 l 1293 972 l 1293 0 z "},"Щ":{"ha":1481,"x_min":111,"x_max":1432,"o":"m 1432 -265 l 1253 -265 l 1253 0 l 111 0 l 111 972 l 330 972 l 330 187 l 593 187 l 593 972 l 811 972 l 811 187 l 1074 187 l 1074 972 l 1293 972 l 1293 187 l 1432 187 l 1432 -265 z "},"Ъ":{"ha":1052,"x_min":21,"x_max":1011,"o":"m 297 0 l 297 793 l 21 793 l 21 972 l 517 972 l 517 608 l 660 608 q 1011 322 1011 608 q 916 85 1011 170 q 648 0 821 0 l 297 0 m 517 443 l 517 167 l 615 167 q 781 307 781 167 q 619 443 781 443 l 517 443 z "},"Ы":{"ha":1248,"x_min":111,"x_max":1136,"o":"m 1136 0 l 918 0 l 918 972 l 1136 972 l 1136 0 m 111 0 l 111 972 l 330 972 l 330 608 l 473 608 q 825 322 825 608 q 730 85 825 170 q 463 0 635 0 l 111 0 m 330 443 l 330 167 l 429 167 q 595 307 595 167 q 433 443 595 443 l 330 443 z "},"Ь":{"ha":865,"x_min":111,"x_max":825,"o":"m 111 0 l 111 972 l 330 972 l 330 608 l 473 608 q 825 322 825 608 q 730 85 825 170 q 463 0 635 0 l 111 0 m 330 443 l 330 167 l 429 167 q 595 307 595 167 q 433 443 595 443 l 330 443 z "},"Э":{"ha":866,"x_min":60,"x_max":815,"o":"m 60 35 l 60 225 q 300 163 166 163 q 576 396 545 163 l 201 396 l 201 570 l 578 570 q 301 810 536 810 q 60 753 168 810 l 60 950 q 323 989 173 989 q 685 856 555 989 q 815 484 815 722 q 686 120 815 258 q 332 -17 556 -17 q 60 35 167 -17 z "},"Ю":{"ha":1478,"x_min":111,"x_max":1428,"o":"m 518 403 l 330 403 l 330 0 l 111 0 l 111 972 l 330 972 l 330 586 l 522 586 q 675 881 553 772 q 979 989 797 989 q 1304 853 1181 989 q 1428 493 1428 718 q 1300 122 1428 261 q 964 -17 1173 -17 q 662 97 783 -17 q 518 403 540 211 m 977 800 q 805 718 866 800 q 745 488 745 635 q 803 253 745 334 q 968 172 861 172 q 1136 252 1076 172 q 1196 481 1196 332 q 1138 717 1196 633 q 977 800 1081 800 z "},"Я":{"ha":889,"x_min":8,"x_max":778,"o":"m 778 0 l 558 0 l 558 378 l 500 378 q 367 254 418 378 l 261 0 l 8 0 l 144 290 q 296 443 202 413 l 296 446 q 81 694 81 496 q 176 899 81 825 q 443 972 271 972 l 778 972 l 778 0 m 558 542 l 558 806 l 467 806 q 313 677 313 806 q 354 579 313 616 q 467 542 396 542 l 558 542 z "},"а":{"ha":747,"x_min":39,"x_max":668,"o":"m 668 0 l 465 0 l 465 100 l 463 100 q 256 -17 393 -17 q 97 40 155 -17 q 39 193 39 98 q 278 427 39 395 l 467 452 q 343 566 467 566 q 107 492 219 566 l 107 653 q 230 694 152 676 q 371 711 307 711 q 668 415 668 711 l 668 0 m 467 282 l 467 329 l 340 313 q 236 218 236 299 q 261 158 236 182 q 330 135 287 135 q 429 177 391 135 q 467 282 467 218 z "},"б":{"ha":846,"x_min":53,"x_max":798,"o":"m 705 1044 l 705 875 q 618 842 673 850 q 436 811 466 818 q 346 772 374 797 q 300 701 318 748 q 275 587 282 654 l 278 587 q 485 676 355 676 q 715 588 633 676 q 798 346 798 500 q 696 82 798 180 q 422 -17 595 -17 q 147 98 241 -17 q 53 432 53 214 q 68 621 53 536 q 115 770 84 705 q 192 878 146 835 q 286 942 238 922 q 380 971 334 962 q 611 1010 426 981 q 705 1044 672 1025 m 272 437 q 271 374 271 421 q 312 209 271 270 q 428 147 354 147 q 537 199 495 147 q 579 336 579 250 q 537 473 579 424 q 422 522 494 522 q 334 498 376 522 q 272 437 292 473 z "},"в":{"ha":805,"x_min":90,"x_max":750,"o":"m 90 0 l 90 694 l 478 694 q 726 525 726 694 q 687 423 726 465 q 586 368 648 381 q 706 315 663 359 q 750 208 750 271 q 683 57 750 114 q 498 0 616 0 l 90 0 m 304 564 l 304 418 l 410 418 q 507 494 507 418 q 415 564 507 564 l 304 564 m 304 292 l 304 134 l 428 134 q 530 216 530 134 q 425 292 530 292 l 304 292 z "},"г":{"ha":570,"x_min":90,"x_max":543,"o":"m 543 532 l 304 532 l 304 0 l 90 0 l 90 694 l 543 694 l 543 532 z "},"д":{"ha":861,"x_min":12,"x_max":827,"o":"m 827 -253 l 652 -253 l 652 0 l 184 0 l 184 -253 l 12 -253 l 12 151 l 74 151 q 229 694 221 382 l 717 694 l 717 151 l 827 151 l 827 -253 m 503 151 l 503 545 l 396 545 q 282 151 380 325 l 503 151 z "},"е":{"ha":751,"x_min":49,"x_max":714,"o":"m 714 286 l 261 286 q 452 135 272 135 q 653 189 566 135 l 653 35 q 403 -17 557 -17 q 142 76 235 -17 q 49 336 49 170 q 149 610 49 509 q 396 711 250 711 q 631 621 548 711 q 714 376 714 531 l 714 286 m 515 418 q 395 567 515 567 q 306 524 343 567 q 260 418 268 481 l 515 418 z "},"ж":{"ha":1177,"x_min":5,"x_max":1174,"o":"m 1174 0 l 921 0 l 697 347 l 694 347 l 694 0 l 484 0 l 484 347 l 481 347 l 258 0 l 5 0 l 269 364 l 12 694 l 264 694 l 481 366 l 484 366 l 484 694 l 694 694 l 694 366 l 697 366 l 914 694 l 1165 694 l 908 364 l 1174 0 z "},"з":{"ha":667,"x_min":54,"x_max":619,"o":"m 54 18 l 54 174 q 254 127 155 127 q 399 207 399 127 q 241 289 399 289 l 144 289 l 144 421 l 243 421 q 378 500 378 421 q 257 570 378 570 q 75 529 166 570 l 75 676 q 296 711 197 711 q 599 524 599 711 q 437 363 599 393 l 437 359 q 571 308 523 352 q 619 196 619 264 q 279 -14 619 -14 q 54 18 150 -14 z "},"и":{"ha":871,"x_min":90,"x_max":781,"o":"m 781 0 l 586 0 l 586 454 q 529 355 559 401 l 293 0 l 90 0 l 90 694 l 286 694 l 286 254 q 334 339 308 300 l 570 694 l 781 694 l 781 0 z "},"й":{"ha":871,"x_min":90,"x_max":781,"o":"m 781 0 l 586 0 l 586 454 q 529 355 559 401 l 293 0 l 90 0 l 90 694 l 286 694 l 286 254 q 334 339 308 300 l 570 694 l 781 694 l 781 0 m 730 1026 q 637 854 718 918 q 437 791 557 791 q 235 854 316 791 q 149 1026 155 918 l 304 1026 q 347 940 308 974 q 440 907 387 907 q 532 941 493 907 q 574 1026 570 975 l 730 1026 z "},"к":{"ha":777,"x_min":90,"x_max":783,"o":"m 783 0 l 526 0 l 307 339 l 304 339 l 304 0 l 90 0 l 90 694 l 304 694 l 304 368 l 307 368 l 521 694 l 775 694 l 519 364 l 783 0 z "},"л":{"ha":838,"x_min":11,"x_max":747,"o":"m 747 0 l 532 0 l 532 543 l 414 543 q 302 110 376 228 q 94 -8 228 -8 q 11 5 48 -8 l 11 151 q 61 140 35 140 q 167 259 125 140 q 243 694 209 378 l 747 694 l 747 0 z "},"м":{"ha":1079,"x_min":90,"x_max":989,"o":"m 989 0 l 789 0 l 789 541 q 753 412 782 503 l 618 0 l 429 0 l 294 412 q 258 539 261 514 l 258 0 l 90 0 l 90 694 l 372 694 l 504 298 q 538 175 534 207 q 572 297 543 205 l 703 694 l 989 694 l 989 0 z "},"н":{"ha":850,"x_min":90,"x_max":760,"o":"m 760 0 l 545 0 l 545 290 l 304 290 l 304 0 l 90 0 l 90 694 l 304 694 l 304 437 l 545 437 l 545 694 l 760 694 l 760 0 z "},"о":{"ha":849,"x_min":49,"x_max":800,"o":"m 421 -17 q 148 80 248 -17 q 49 345 49 178 q 152 614 49 517 q 431 711 255 711 q 702 614 604 711 q 800 357 800 517 q 699 83 800 184 q 421 -17 597 -17 m 427 547 q 309 495 351 547 q 267 347 267 443 q 428 147 267 147 q 582 353 582 147 q 427 547 582 547 z "},"п":{"ha":850,"x_min":90,"x_max":760,"o":"m 760 0 l 545 0 l 545 543 l 304 543 l 304 0 l 90 0 l 90 694 l 760 694 l 760 0 z "},"р":{"ha":861,"x_min":90,"x_max":812,"o":"m 307 81 l 304 81 l 304 -319 l 90 -319 l 90 694 l 304 694 l 304 590 l 307 590 q 530 711 387 711 q 739 619 665 711 q 812 367 812 526 q 727 88 812 193 q 498 -17 641 -17 q 307 81 373 -17 m 301 366 l 301 310 q 339 193 301 238 q 439 147 377 147 q 552 204 512 147 q 593 364 593 260 q 450 547 593 547 q 343 497 385 547 q 301 366 301 448 z "},"с":{"ha":667,"x_min":49,"x_max":616,"o":"m 616 25 q 407 -17 544 -17 q 148 80 247 -17 q 49 330 49 177 q 155 609 49 507 q 439 711 261 711 q 616 679 562 711 l 616 497 q 467 547 549 547 q 320 493 374 547 q 267 345 267 439 q 318 200 267 252 q 460 147 370 147 q 616 197 540 147 l 616 25 z "},"т":{"ha":631,"x_min":21,"x_max":610,"o":"m 610 532 l 424 532 l 424 0 l 208 0 l 208 532 l 21 532 l 21 694 l 610 694 l 610 532 z "},"у":{"ha":747,"x_min":-3,"x_max":751,"o":"m 751 694 l 469 -56 q 163 -326 368 -326 q 35 -309 85 -326 l 35 -138 q 127 -163 77 -163 q 243 -85 210 -163 l 279 1 l -3 694 l 235 694 l 364 272 q 383 179 376 233 l 386 179 q 408 271 392 218 l 539 694 l 751 694 z "},"ф":{"ha":1089,"x_min":46,"x_max":1043,"o":"m 644 -8 l 644 -322 l 444 -322 l 444 -8 l 411 -8 q 144 88 241 -8 q 46 345 46 184 q 143 606 46 509 q 412 703 241 703 l 444 703 l 444 994 l 644 994 l 644 703 l 675 703 q 945 606 848 703 q 1043 345 1043 510 q 945 88 1043 184 q 677 -8 848 -8 l 644 -8 m 644 551 l 644 143 l 653 143 q 780 198 734 143 q 825 345 825 252 q 780 496 825 441 q 656 551 735 551 l 644 551 m 444 143 l 444 551 l 433 551 q 309 496 354 551 q 264 345 264 441 q 310 198 264 252 q 436 143 355 143 l 444 143 z "},"х":{"ha":767,"x_min":5,"x_max":761,"o":"m 761 694 l 532 358 l 760 0 l 513 0 l 412 187 q 383 250 400 210 l 380 250 q 353 189 370 222 l 252 0 l 5 0 l 240 346 l 20 694 l 268 694 l 367 500 q 395 435 387 461 l 397 435 q 427 501 408 467 l 528 694 l 761 694 z "},"ц":{"ha":905,"x_min":90,"x_max":871,"o":"m 871 -253 l 696 -253 l 696 0 l 90 0 l 90 694 l 304 694 l 304 151 l 545 151 l 545 694 l 760 694 l 760 151 l 871 151 l 871 -253 z "},"ч":{"ha":834,"x_min":82,"x_max":743,"o":"m 743 0 l 529 0 l 529 240 q 318 179 420 179 q 82 418 82 179 l 82 694 l 288 694 l 288 452 q 383 345 288 345 q 529 386 451 345 l 529 694 l 743 694 l 743 0 z "},"ш":{"ha":1197,"x_min":90,"x_max":1107,"o":"m 1107 0 l 90 0 l 90 694 l 304 694 l 304 151 l 490 151 l 490 694 l 705 694 l 705 151 l 892 151 l 892 694 l 1107 694 l 1107 0 z "},"щ":{"ha":1252,"x_min":90,"x_max":1218,"o":"m 1218 -253 l 1044 -253 l 1044 0 l 90 0 l 90 694 l 304 694 l 304 151 l 490 151 l 490 694 l 705 694 l 705 151 l 892 151 l 892 694 l 1107 694 l 1107 151 l 1218 151 l 1218 -253 z "},"ъ":{"ha":901,"x_min":18,"x_max":861,"o":"m 214 0 l 214 532 l 18 532 l 18 694 l 429 694 l 429 452 l 611 452 q 795 394 730 452 q 861 233 861 337 q 796 64 861 127 q 615 0 730 0 l 214 0 m 429 317 l 429 136 l 533 136 q 642 229 642 136 q 536 317 642 317 l 429 317 z "},"ы":{"ha":1132,"x_min":90,"x_max":1042,"o":"m 1042 0 l 827 0 l 827 694 l 1042 694 l 1042 0 m 90 0 l 90 694 l 304 694 l 304 452 l 488 452 q 671 394 606 452 q 737 233 737 337 q 672 63 737 127 q 492 0 607 0 l 90 0 m 304 317 l 304 136 l 408 136 q 517 229 517 136 q 411 317 517 317 l 304 317 z "},"ь":{"ha":777,"x_min":90,"x_max":737,"o":"m 90 0 l 90 694 l 304 694 l 304 452 l 488 452 q 671 394 606 452 q 737 233 737 337 q 672 63 737 127 q 492 0 607 0 l 90 0 m 304 317 l 304 136 l 408 136 q 517 229 517 136 q 411 317 517 317 l 304 317 z "},"э":{"ha":665,"x_min":52,"x_max":616,"o":"m 52 29 l 52 182 q 218 132 125 132 q 401 281 380 132 l 143 281 l 143 407 l 403 407 q 214 561 382 561 q 57 514 123 561 l 57 673 q 245 711 140 711 q 522 617 427 711 q 616 343 616 522 q 519 83 616 183 q 254 -17 421 -17 q 52 29 142 -17 z "},"ю":{"ha":1227,"x_min":90,"x_max":1178,"o":"m 447 283 l 304 283 l 304 0 l 90 0 l 90 694 l 304 694 l 304 436 l 453 436 q 575 639 479 567 q 815 711 671 711 q 1082 615 987 711 q 1178 357 1178 519 q 1079 83 1178 182 q 806 -17 981 -17 q 558 61 651 -17 q 447 283 465 140 m 810 547 q 663 350 663 547 q 812 147 663 147 q 960 353 960 147 q 810 547 960 547 z "},"я":{"ha":789,"x_min":24,"x_max":700,"o":"m 700 0 l 488 0 l 488 260 l 439 260 q 336 160 382 260 l 262 0 l 24 0 l 125 197 q 254 311 171 287 q 81 492 81 341 q 378 694 81 694 l 700 694 l 700 0 m 488 387 l 488 558 l 407 558 q 296 473 296 558 q 407 387 296 387 l 488 387 z "},"ё":{"ha":751,"x_min":49,"x_max":714,"o":"m 714 286 l 261 286 q 452 135 272 135 q 653 189 566 135 l 653 35 q 403 -17 557 -17 q 142 76 235 -17 q 49 336 49 170 q 149 610 49 509 q 396 711 250 711 q 631 621 548 711 q 714 376 714 531 l 714 286 m 515 418 q 395 567 515 567 q 306 524 343 567 q 260 418 268 481 l 515 418 m 559 804 q 485 831 514 804 q 456 897 456 857 q 485 964 456 939 q 559 990 514 990 q 634 964 605 990 q 664 897 664 938 q 635 830 664 857 q 559 804 606 804 m 249 804 q 174 831 203 804 q 144 897 144 858 q 174 964 144 938 q 249 990 204 990 q 324 964 295 990 q 353 897 353 938 q 324 830 353 856 q 249 804 295 804 z "},"ђ":{"ha":859,"x_min":18,"x_max":794,"o":"m 363 -285 l 363 -119 q 437 -144 401 -144 q 547 -61 514 -144 q 579 240 579 22 q 457 528 579 528 q 367 485 405 528 q 329 379 329 443 l 329 0 l 115 0 l 115 800 l 18 800 l 18 907 l 115 907 l 115 1028 l 329 1028 l 329 907 l 553 907 l 553 800 l 329 800 l 329 576 l 332 576 q 539 696 403 696 q 794 245 794 696 q 713 -183 794 -62 q 452 -304 631 -304 q 363 -285 407 -304 z "},"ѓ":{"ha":570,"x_min":90,"x_max":543,"o":"m 543 532 l 304 532 l 304 0 l 90 0 l 90 694 l 543 694 l 543 532 m 536 1023 l 323 804 l 169 804 l 345 1023 l 536 1023 z "},"є":{"ha":667,"x_min":49,"x_max":612,"o":"m 612 29 q 408 -17 522 -17 q 146 80 244 -17 q 49 335 49 176 q 151 613 49 514 q 431 711 252 711 q 608 677 530 711 l 608 514 q 452 561 545 561 q 262 407 286 561 l 522 407 l 522 281 l 264 281 q 446 132 286 132 q 612 183 536 132 l 612 29 z "},"ѕ":{"ha":611,"x_min":45,"x_max":578,"o":"m 45 18 l 45 192 q 150 144 98 160 q 250 129 203 129 q 339 144 307 129 q 372 192 372 160 q 357 226 372 212 q 319 250 342 239 q 268 268 296 260 q 214 286 240 276 q 141 320 173 302 q 89 361 110 338 q 56 416 67 385 q 45 490 45 448 q 70 591 45 549 q 138 660 96 633 q 235 699 180 686 q 349 711 290 711 q 442 704 395 711 q 536 684 490 697 l 536 518 q 449 554 495 542 q 357 566 402 566 q 318 562 336 566 q 285 551 299 558 q 262 533 271 544 q 254 507 254 522 q 267 475 254 488 q 298 451 279 461 q 342 434 318 441 q 390 418 366 426 q 467 385 433 403 q 527 344 502 368 q 565 288 551 320 q 578 212 578 256 q 551 107 578 151 q 480 36 524 63 q 377 -4 435 8 q 257 -17 319 -17 q 45 18 142 -17 z "},"ї":{"ha":395,"x_min":-57,"x_max":463,"o":"m 304 0 l 90 0 l 90 694 l 304 694 l 304 0 m 358 804 q 283 831 313 804 q 254 897 254 857 q 283 964 254 939 q 358 990 313 990 q 433 964 404 990 q 463 897 463 938 q 433 830 463 857 q 358 804 404 804 m 47 804 q -28 831 1 804 q -57 897 -57 858 q -27 964 -57 938 q 47 990 3 990 q 122 964 94 990 q 151 897 151 938 q 122 830 151 856 q 47 804 94 804 z "},"љ":{"ha":1220,"x_min":11,"x_max":1179,"o":"m 532 0 l 532 543 l 414 543 q 302 110 376 228 q 94 -8 228 -8 q 11 5 48 -8 l 11 151 q 61 140 35 140 q 167 259 125 140 q 243 694 209 378 l 747 694 l 747 443 l 928 443 q 1113 387 1046 443 q 1179 229 1179 331 q 1114 62 1179 124 q 933 0 1049 0 l 532 0 m 747 304 l 747 139 l 850 139 q 960 225 960 139 q 850 304 960 304 l 747 304 z "},"њ":{"ha":1198,"x_min":90,"x_max":1157,"o":"m 510 0 l 510 297 l 304 297 l 304 0 l 90 0 l 90 694 l 304 694 l 304 446 l 510 446 l 510 694 l 725 694 l 725 446 l 907 446 q 1092 390 1027 446 q 1157 232 1157 334 q 1092 63 1157 126 q 911 0 1026 0 l 510 0 m 725 310 l 725 138 l 829 138 q 937 228 937 138 q 832 310 937 310 l 725 310 z "},"ћ":{"ha":856,"x_min":18,"x_max":779,"o":"m 779 0 l 568 0 l 568 375 q 457 528 568 528 q 363 486 397 528 q 329 379 329 445 l 329 0 l 115 0 l 115 800 l 18 800 l 18 907 l 115 907 l 115 1028 l 329 1028 l 329 907 l 553 907 l 553 800 l 329 800 l 329 576 l 332 576 q 546 696 410 696 q 779 411 779 696 l 779 0 z "},"ќ":{"ha":777,"x_min":90,"x_max":783,"o":"m 783 0 l 526 0 l 307 339 l 304 339 l 304 0 l 90 0 l 90 694 l 304 694 l 304 368 l 307 368 l 521 694 l 775 694 l 519 364 l 783 0 m 644 1023 l 431 804 l 277 804 l 453 1023 l 644 1023 z "},"ў":{"ha":747,"x_min":-3,"x_max":751,"o":"m 751 694 l 469 -56 q 163 -326 368 -326 q 35 -309 85 -326 l 35 -138 q 127 -163 77 -163 q 243 -85 210 -163 l 279 1 l -3 694 l 235 694 l 364 272 q 383 179 376 233 l 386 179 q 408 271 392 218 l 539 694 l 751 694 m 676 1026 q 583 854 664 918 q 383 791 503 791 q 181 854 262 791 q 94 1026 100 918 l 250 1026 q 293 940 254 974 q 386 907 332 907 q 477 941 439 907 q 520 1026 516 975 l 676 1026 z "},"џ":{"ha":850,"x_min":90,"x_max":760,"o":"m 760 0 l 514 0 l 514 -254 l 339 -254 l 339 0 l 90 0 l 90 694 l 304 694 l 304 151 l 545 151 l 545 694 l 760 694 l 760 0 z "},"Ґ":{"ha":717,"x_min":111,"x_max":690,"o":"m 690 793 l 330 793 l 330 0 l 111 0 l 111 972 l 505 972 l 505 1143 l 690 1143 l 690 793 z "},"ґ":{"ha":604,"x_min":90,"x_max":566,"o":"m 566 534 l 304 534 l 304 0 l 90 0 l 90 694 l 395 694 l 395 864 l 566 864 l 566 534 z "},"―":{"ha":1389,"x_min":0,"x_max":1389,"o":"m 1389 296 l 0 296 l 0 446 l 1389 446 l 1389 296 z "},"№":{"ha":1671,"x_min":111,"x_max":1603,"o":"m 1314 411 q 1105 487 1179 411 q 1031 699 1031 563 q 1107 912 1031 836 q 1321 987 1183 987 q 1529 912 1455 987 q 1603 708 1603 836 q 1527 490 1603 569 q 1314 411 1451 411 m 1318 846 q 1211 700 1211 846 q 1318 554 1211 554 q 1421 704 1421 554 q 1318 846 1421 846 m 930 0 l 710 0 l 359 599 q 315 682 345 623 l 313 682 q 318 525 318 631 l 318 0 l 111 0 l 111 972 l 347 972 l 681 393 q 726 311 705 351 l 729 311 q 724 444 724 345 l 724 972 l 930 972 l 930 0 m 1582 160 l 1046 160 l 1046 313 l 1582 313 l 1582 160 z "},"π":{"ha":962,"x_min":7,"x_max":917,"o":"m 917 536 l 766 536 l 766 256 q 825 158 766 158 q 889 174 856 158 l 889 9 q 770 -12 833 -12 q 553 220 553 -12 l 553 536 l 385 536 l 385 211 q 357 0 385 68 l 139 0 q 171 222 171 82 l 171 536 q 7 479 89 535 l 7 652 q 174 694 66 694 l 917 694 l 917 536 z "},"Ș":{"ha":779,"x_min":62,"x_max":730,"o":"m 66 37 l 66 254 q 195 180 125 205 q 334 155 264 155 q 407 163 376 155 q 458 183 437 170 q 489 215 479 197 q 499 254 499 233 q 483 304 499 282 q 438 346 467 327 q 372 382 410 365 q 288 418 333 400 q 118 534 174 466 q 62 700 62 603 q 93 830 62 776 q 176 920 123 885 q 298 972 229 956 q 444 989 367 989 q 579 980 520 989 q 687 951 637 970 l 687 749 q 634 779 663 766 q 574 800 605 791 q 514 812 544 808 q 456 817 484 817 q 389 809 419 817 q 337 789 358 802 q 304 759 316 777 q 293 718 293 741 q 306 674 293 694 q 342 638 319 655 q 400 604 366 621 q 477 570 434 587 q 582 518 535 545 q 661 456 628 490 q 712 377 694 421 q 730 273 730 332 q 699 137 730 192 q 615 47 668 81 q 492 -2 562 13 q 344 -17 422 -17 q 192 -3 264 -17 q 66 37 119 10 m 494 -79 l 380 -318 l 249 -318 l 310 -79 l 494 -79 z "},"ș":{"ha":611,"x_min":45,"x_max":578,"o":"m 45 18 l 45 192 q 150 144 98 160 q 250 129 203 129 q 339 144 307 129 q 372 192 372 160 q 357 226 372 212 q 319 250 342 239 q 268 268 296 260 q 214 286 240 276 q 141 320 173 302 q 89 361 110 338 q 56 416 67 385 q 45 490 45 448 q 70 591 45 549 q 138 660 96 633 q 235 699 180 686 q 349 711 290 711 q 442 704 395 711 q 536 684 490 697 l 536 518 q 449 554 495 542 q 357 566 402 566 q 318 562 336 566 q 285 551 299 558 q 262 533 271 544 q 254 507 254 522 q 267 475 254 488 q 298 451 279 461 q 342 434 318 441 q 390 418 366 426 q 467 385 433 403 q 527 344 502 368 q 565 288 551 320 q 578 212 578 256 q 551 107 578 151 q 480 36 524 63 q 377 -4 435 8 q 257 -17 319 -17 q 45 18 142 -17 m 412 -79 l 298 -318 l 167 -318 l 228 -79 l 412 -79 z "},"¤":{"ha":772,"x_min":35,"x_max":737,"o":"m 737 243 l 642 144 l 545 240 q 386 196 473 196 q 228 240 300 196 l 131 144 l 35 243 l 131 336 q 86 492 86 411 q 131 647 86 574 l 35 742 l 131 840 l 228 745 q 386 789 300 789 q 545 745 473 789 l 642 840 l 737 742 l 642 647 q 688 492 688 572 q 642 336 688 414 l 737 243 m 386 654 q 271 607 318 654 q 224 493 224 560 q 271 379 224 426 q 386 332 318 332 q 502 379 454 332 q 550 493 550 426 q 500 607 550 559 q 386 654 451 654 z "},"Ơ":{"ha":1080,"x_min":50,"x_max":1101,"o":"m 900 822 q 1003 493 1003 690 q 870 123 1003 264 q 522 -17 736 -17 q 182 119 313 -17 q 50 473 50 255 q 184 846 50 704 q 538 989 317 989 q 776 930 672 989 q 838 920 815 920 q 967 1009 967 920 q 955 1084 967 1043 l 1085 1084 q 1101 993 1101 1038 q 1055 866 1101 911 q 924 821 1009 821 q 912 821 920 821 l 900 822 m 532 800 q 349 714 416 800 q 281 485 281 627 q 349 256 281 340 q 526 172 416 172 q 706 254 640 172 q 772 481 772 336 q 708 716 772 632 q 532 800 644 800 z "},"ơ":{"ha":875,"x_min":49,"x_max":863,"o":"m 707 608 q 800 357 800 512 q 699 83 800 184 q 421 -17 597 -17 q 148 80 248 -17 q 49 345 49 178 q 152 614 49 517 q 431 711 255 711 q 534 701 477 711 q 609 694 573 694 q 729 790 729 694 q 717 865 729 824 l 847 865 q 863 777 863 819 q 707 608 863 623 m 427 547 q 309 495 351 547 q 267 347 267 443 q 428 147 267 147 q 582 353 582 147 q 427 547 582 547 z "},"Ư":{"ha":1088,"x_min":100,"x_max":1116,"o":"m 904 874 l 904 421 q 496 -17 904 -17 q 100 411 100 -17 l 100 972 l 319 972 l 319 408 q 504 172 319 172 q 685 400 685 172 l 685 972 l 889 972 q 959 1001 932 972 q 986 1072 986 1029 q 974 1143 986 1102 l 1103 1143 q 1116 1063 1116 1105 q 1060 930 1116 981 q 904 874 1004 878 z "},"ư":{"ha":928,"x_min":79,"x_max":940,"o":"m 750 604 l 750 0 l 536 0 l 536 106 l 533 106 q 321 -17 454 -17 q 79 275 79 -17 l 79 694 l 293 694 l 293 294 q 410 147 293 147 q 502 188 467 147 q 536 297 536 228 l 536 694 l 732 694 q 817 795 817 694 q 804 865 817 824 l 929 865 q 940 786 940 833 q 890 657 940 707 q 750 604 840 608 z "},"̉":{"ha":422,"x_min":100,"x_max":319,"o":"m 222 860 l 222 827 l 127 827 l 127 911 q 208 954 208 916 q 153 991 208 991 q 100 985 127 991 l 100 1064 q 178 1068 161 1068 q 319 961 319 1068 q 222 860 319 877 z "},"̣":{"ha":463,"x_min":126,"x_max":334,"o":"m 231 -265 q 156 -238 185 -265 q 126 -172 126 -211 q 156 -106 126 -132 q 231 -81 186 -81 q 305 -106 276 -81 q 334 -172 334 -132 q 305 -239 334 -212 q 231 -265 276 -265 z "},"̀":{"ha":372,"x_min":25,"x_max":338,"o":"m 338 827 l 204 827 l 25 993 l 215 993 l 338 827 z "},"́":{"ha":372,"x_min":35,"x_max":347,"o":"m 347 993 l 168 827 l 35 827 l 157 993 l 347 993 z "},"Ạ":{"ha":977,"x_min":7,"x_max":966,"o":"m 966 0 l 728 0 l 659 216 l 313 216 l 244 0 l 7 0 l 361 972 l 621 972 l 966 0 m 608 385 l 504 711 q 488 799 492 748 l 482 799 q 465 714 479 756 l 359 385 l 608 385 m 492 -265 q 417 -238 446 -265 q 387 -172 387 -211 q 417 -106 387 -132 q 492 -81 447 -81 q 566 -106 537 -81 q 595 -172 595 -132 q 566 -239 595 -212 q 492 -265 537 -265 z "},"ạ":{"ha":747,"x_min":39,"x_max":668,"o":"m 668 0 l 465 0 l 465 100 l 463 100 q 256 -17 393 -17 q 97 40 155 -17 q 39 193 39 98 q 278 427 39 395 l 467 452 q 343 566 467 566 q 107 492 219 566 l 107 653 q 230 694 152 676 q 371 711 307 711 q 668 415 668 711 l 668 0 m 467 282 l 467 329 l 340 313 q 236 218 236 299 q 261 158 236 182 q 330 135 287 135 q 429 177 391 135 q 467 282 467 218 m 368 -265 q 293 -238 322 -265 q 263 -172 263 -211 q 293 -106 263 -132 q 368 -81 323 -81 q 442 -106 413 -81 q 471 -172 471 -132 q 442 -239 471 -212 q 368 -265 413 -265 z "},"Ả":{"ha":977,"x_min":7,"x_max":966,"o":"m 966 0 l 728 0 l 659 216 l 313 216 l 244 0 l 7 0 l 361 972 l 621 972 l 966 0 m 608 385 l 504 711 q 488 799 492 748 l 482 799 q 465 714 479 756 l 359 385 l 608 385 m 519 1097 l 519 1064 l 424 1064 l 424 1148 q 505 1192 505 1153 q 449 1229 505 1229 q 396 1222 423 1229 l 396 1301 q 474 1305 457 1305 q 616 1198 616 1305 q 519 1097 616 1114 z "},"ả":{"ha":747,"x_min":39,"x_max":668,"o":"m 668 0 l 465 0 l 465 100 l 463 100 q 256 -17 393 -17 q 97 40 155 -17 q 39 193 39 98 q 278 427 39 395 l 467 452 q 343 566 467 566 q 107 492 219 566 l 107 653 q 230 694 152 676 q 371 711 307 711 q 668 415 668 711 l 668 0 m 467 282 l 467 329 l 340 313 q 236 218 236 299 q 261 158 236 182 q 330 135 287 135 q 429 177 391 135 q 467 282 467 218 m 413 860 l 413 827 l 318 827 l 318 911 q 399 954 399 916 q 343 991 399 991 q 290 985 317 991 l 290 1064 q 368 1068 351 1068 q 510 961 510 1068 q 413 860 510 877 z "},"Ấ":{"ha":977,"x_min":7,"x_max":966,"o":"m 966 0 l 728 0 l 659 216 l 313 216 l 244 0 l 7 0 l 361 972 l 621 972 l 966 0 m 608 385 l 504 711 q 488 799 492 748 l 482 799 q 465 714 479 756 l 359 385 l 608 385 m 966 1333 l 787 1166 l 654 1166 l 776 1333 l 966 1333 m 716 1063 l 580 1063 l 477 1156 l 381 1063 l 245 1063 l 399 1232 l 562 1232 l 716 1063 z "},"ấ":{"ha":747,"x_min":39,"x_max":859,"o":"m 668 0 l 465 0 l 465 100 l 463 100 q 256 -17 393 -17 q 97 40 155 -17 q 39 193 39 98 q 278 427 39 395 l 467 452 q 343 566 467 566 q 107 492 219 566 l 107 653 q 230 694 152 676 q 371 711 307 711 q 668 415 668 711 l 668 0 m 467 282 l 467 329 l 340 313 q 236 218 236 299 q 261 158 236 182 q 330 135 287 135 q 429 177 391 135 q 467 282 467 218 m 859 1096 l 679 929 l 546 929 l 668 1096 l 859 1096 m 608 827 l 472 827 l 370 920 l 273 827 l 138 827 l 292 996 l 454 996 l 608 827 z "},"Ầ":{"ha":977,"x_min":-1,"x_max":966,"o":"m 966 0 l 728 0 l 659 216 l 313 216 l 244 0 l 7 0 l 361 972 l 621 972 l 966 0 m 608 385 l 504 711 q 488 799 492 748 l 482 799 q 465 714 479 756 l 359 385 l 608 385 m 312 1166 l 178 1166 l -1 1333 l 189 1333 l 312 1166 m 720 1063 l 584 1063 l 488 1156 l 385 1063 l 249 1063 l 404 1232 l 566 1232 l 720 1063 z "},"ầ":{"ha":747,"x_min":-108,"x_max":668,"o":"m 668 0 l 465 0 l 465 100 l 463 100 q 256 -17 393 -17 q 97 40 155 -17 q 39 193 39 98 q 278 427 39 395 l 467 452 q 343 566 467 566 q 107 492 219 566 l 107 653 q 230 694 152 676 q 371 711 307 711 q 668 415 668 711 l 668 0 m 467 282 l 467 329 l 340 313 q 236 218 236 299 q 261 158 236 182 q 330 135 287 135 q 429 177 391 135 q 467 282 467 218 m 205 929 l 71 929 l -108 1096 l 82 1096 l 205 929 m 613 827 l 477 827 l 381 920 l 278 827 l 142 827 l 296 996 l 458 996 l 613 827 z "},"Ẩ":{"ha":977,"x_min":7,"x_max":966,"o":"m 966 0 l 728 0 l 659 216 l 313 216 l 244 0 l 7 0 l 361 972 l 621 972 l 966 0 m 608 385 l 504 711 q 488 799 492 748 l 482 799 q 465 714 479 756 l 359 385 l 608 385 m 774 1200 l 774 1166 l 680 1166 l 680 1251 q 760 1295 760 1256 q 705 1332 760 1332 q 652 1325 680 1332 l 652 1404 q 730 1408 713 1408 q 871 1301 871 1408 q 774 1200 871 1217 m 720 1064 l 584 1064 l 481 1157 l 385 1064 l 250 1064 l 404 1233 l 566 1233 l 720 1064 z "},"ẩ":{"ha":747,"x_min":39,"x_max":766,"o":"m 668 0 l 465 0 l 465 100 l 463 100 q 256 -17 393 -17 q 97 40 155 -17 q 39 193 39 98 q 278 427 39 395 l 467 452 q 343 566 467 566 q 107 492 219 566 l 107 653 q 230 694 152 676 q 371 711 307 711 q 668 415 668 711 l 668 0 m 467 282 l 467 329 l 340 313 q 236 218 236 299 q 261 158 236 182 q 330 135 287 135 q 429 177 391 135 q 467 282 467 218 m 669 962 l 669 929 l 575 929 l 575 1014 q 655 1057 655 1019 q 600 1095 655 1095 q 547 1088 574 1095 l 547 1166 q 625 1171 608 1171 q 766 1064 766 1171 q 669 962 766 979 m 615 827 l 479 827 l 376 920 l 280 827 l 144 827 l 298 996 l 461 996 l 615 827 z "},"Ẫ":{"ha":977,"x_min":7,"x_max":966,"o":"m 966 0 l 728 0 l 659 216 l 313 216 l 244 0 l 7 0 l 361 972 l 621 972 l 966 0 m 608 385 l 504 711 q 488 799 492 748 l 482 799 q 465 714 479 756 l 359 385 l 608 385 m 719 1431 q 577 1276 719 1276 q 475 1299 537 1276 q 388 1324 410 1324 q 337 1272 337 1324 l 239 1272 q 384 1428 239 1428 q 487 1404 433 1428 q 570 1380 543 1380 q 621 1431 621 1380 l 719 1431 m 716 1062 l 580 1062 l 477 1155 l 381 1062 l 245 1062 l 399 1231 l 562 1231 l 716 1062 z "},"ẫ":{"ha":747,"x_min":39,"x_max":668,"o":"m 668 0 l 465 0 l 465 100 l 463 100 q 256 -17 393 -17 q 97 40 155 -17 q 39 193 39 98 q 278 427 39 395 l 467 452 q 343 566 467 566 q 107 492 219 566 l 107 653 q 230 694 152 676 q 371 711 307 711 q 668 415 668 711 l 668 0 m 467 282 l 467 329 l 340 313 q 236 218 236 299 q 261 158 236 182 q 330 135 287 135 q 429 177 391 135 q 467 282 467 218 m 625 1196 q 483 1040 625 1040 q 381 1064 443 1040 q 294 1089 316 1089 q 243 1036 243 1089 l 145 1036 q 290 1193 145 1193 q 393 1169 338 1193 q 476 1145 449 1145 q 527 1196 527 1145 l 625 1196 m 622 827 l 486 827 l 382 920 l 287 827 l 151 827 l 305 996 l 467 996 l 622 827 z "},"Ậ":{"ha":977,"x_min":7,"x_max":966,"o":"m 966 0 l 728 0 l 659 216 l 313 216 l 244 0 l 7 0 l 361 972 l 621 972 l 966 0 m 608 385 l 504 711 q 488 799 492 748 l 482 799 q 465 714 479 756 l 359 385 l 608 385 m 735 1041 l 595 1041 l 488 1168 l 388 1041 l 248 1041 l 407 1261 l 575 1261 l 735 1041 m 463 -265 q 388 -238 417 -265 q 358 -172 358 -211 q 388 -106 358 -132 q 463 -81 418 -81 q 537 -106 508 -81 q 566 -172 566 -132 q 537 -239 566 -212 q 463 -265 508 -265 z "},"ậ":{"ha":747,"x_min":39,"x_max":668,"o":"m 668 0 l 465 0 l 465 100 l 463 100 q 256 -17 393 -17 q 97 40 155 -17 q 39 193 39 98 q 278 427 39 395 l 467 452 q 343 566 467 566 q 107 492 219 566 l 107 653 q 230 694 152 676 q 371 711 307 711 q 668 415 668 711 l 668 0 m 467 282 l 467 329 l 340 313 q 236 218 236 299 q 261 158 236 182 q 330 135 287 135 q 429 177 391 135 q 467 282 467 218 m 627 804 l 487 804 l 380 932 l 280 804 l 140 804 l 299 1025 l 467 1025 l 627 804 m 362 -265 q 287 -238 317 -265 q 258 -172 258 -211 q 288 -106 258 -132 q 362 -81 317 -81 q 436 -106 408 -81 q 465 -172 465 -132 q 436 -239 465 -212 q 362 -265 408 -265 z "},"Ắ":{"ha":977,"x_min":7,"x_max":966,"o":"m 966 0 l 728 0 l 659 216 l 313 216 l 244 0 l 7 0 l 361 972 l 621 972 l 966 0 m 608 385 l 504 711 q 488 799 492 748 l 482 799 q 465 714 479 756 l 359 385 l 608 385 m 728 1385 l 549 1219 l 416 1219 l 538 1385 l 728 1385 m 707 1232 q 643 1108 700 1154 q 492 1062 585 1062 q 339 1109 398 1062 q 278 1232 281 1157 l 388 1232 q 495 1164 398 1164 q 597 1232 587 1164 l 707 1232 z "},"ắ":{"ha":747,"x_min":39,"x_max":668,"o":"m 668 0 l 465 0 l 465 100 l 463 100 q 256 -17 393 -17 q 97 40 155 -17 q 39 193 39 98 q 278 427 39 395 l 467 452 q 343 566 467 566 q 107 492 219 566 l 107 653 q 230 694 152 676 q 371 711 307 711 q 668 415 668 711 l 668 0 m 467 282 l 467 329 l 340 313 q 236 218 236 299 q 261 158 236 182 q 330 135 287 135 q 429 177 391 135 q 467 282 467 218 m 636 1150 l 456 983 l 323 983 l 446 1150 l 636 1150 m 615 997 q 550 872 608 918 q 399 827 493 827 q 247 874 306 827 q 186 997 189 922 l 296 997 q 403 929 306 929 q 505 997 494 929 l 615 997 z "},"Ằ":{"ha":977,"x_min":7,"x_max":966,"o":"m 966 0 l 728 0 l 659 216 l 313 216 l 244 0 l 7 0 l 361 972 l 621 972 l 966 0 m 608 385 l 504 711 q 488 799 492 748 l 482 799 q 465 714 479 756 l 359 385 l 608 385 m 559 1219 l 425 1219 l 246 1386 l 437 1386 l 559 1219 m 698 1233 q 633 1108 690 1154 q 482 1063 576 1063 q 330 1110 389 1063 q 269 1233 271 1158 l 378 1233 q 486 1165 389 1165 q 588 1233 577 1165 l 698 1233 z "},"ằ":{"ha":747,"x_min":39,"x_max":668,"o":"m 668 0 l 465 0 l 465 100 l 463 100 q 256 -17 393 -17 q 97 40 155 -17 q 39 193 39 98 q 278 427 39 395 l 467 452 q 343 566 467 566 q 107 492 219 566 l 107 653 q 230 694 152 676 q 371 711 307 711 q 668 415 668 711 l 668 0 m 467 282 l 467 329 l 340 313 q 236 218 236 299 q 261 158 236 182 q 330 135 287 135 q 429 177 391 135 q 467 282 467 218 m 471 983 l 337 983 l 158 1150 l 349 1150 l 471 983 m 610 997 q 545 872 602 918 q 394 827 488 827 q 242 874 300 827 q 180 997 183 922 l 290 997 q 397 929 300 929 q 500 997 489 929 l 610 997 z "}}}
